<?xml version="1.0" encoding="UTF-8"?>
<!DOCTYPE svg PUBLIC "-//W3C//DTD SVG 1.1//EN" "http://www.w3.org/Graphics/SVG/1.1/DTD/svg11.dtd">
<!-- Creator: CorelDRAW 2020 (64-Bit) -->
<svg xmlns="http://www.w3.org/2000/svg" xml:space="preserve" width="69.8579mm" height="24.5725mm" version="1.1" style="shape-rendering:geometricPrecision; text-rendering:geometricPrecision; image-rendering:optimizeQuality; fill-rule:evenodd; clip-rule:evenodd"
viewBox="0 0 6985.8 2457.25"
 xmlns:xlink="http://www.w3.org/1999/xlink"
 xmlns:xodm="http://www.corel.com/coreldraw/odm/2003">
 <defs>
  <style type="text/css">
   <![CDATA[
    .fil0 {fill:#2B2A29}
    .fil8 {fill:#000837}
    .fil3 {fill:#25A3E4}
    .fil2 {fill:#26C2F5}
    .fil1 {fill:#F2266A}
    .fil4 {fill:#F6F967}
    .fil9 {fill:#FEFEFE;fill-rule:nonzero}
    .fil5 {fill:#2B2A29;fill-rule:nonzero}
    .fil6 {fill:#5B5A50;fill-rule:nonzero}
    .fil7 {fill:#F2266A;fill-rule:nonzero}
   ]]>
  </style>
 </defs>
 <g id="Layer_x0020_1">
  <metadata id="CorelCorpID_0Corel-Layer"/>
  <g id="_1771113597600">
   <circle class="fil0" cx="936.61" cy="863.18" r="863.18"/>
   <g>
    <g>
     <path class="fil1" d="M1245.34 573.29c43.62,147.26 -33.22,255.31 94.22,311.3l-8.68 9.07c-31.2,26.26 -46.83,20.67 -64.18,82.06 -12.59,44.56 -6.26,103.67 -7.38,153.64 -3.18,141.72 -99.56,90.51 -218.55,105.36l-0.93 169.25c123.32,13.28 324.32,22.44 403.65,-77.32 46.03,-57.88 47.59,-107.04 47.43,-197.68 -0.19,-113.47 -25.13,-151.16 92.29,-149.66l-0.77 -177.64c-114.71,-6.47 -88.94,-5.09 -91.98,-196.51 -2.27,-142.41 -59.1,-153.34 -96.5,-195.3 -6.93,37.2 -48.57,63.14 -72.92,88.17 -28.34,29.15 -50.13,49.03 -75.7,75.26z"/>
     <path class="fil2" d="M541.39 868.58c73.01,-7.31 54.9,-159.36 58.27,-233.39 5.49,-120.76 110.73,-79.22 216.5,-88.09l2.58 -173.14c-630.87,-49.8 -386.66,294.23 -459.65,406.17 -23.91,29.04 -36.86,15.83 -82.43,23.62l-0.35 172.51c42.51,6.01 68.09,-7.96 90.03,31.31 7.55,141.11 -18.09,289.83 85.95,350.49 25.32,-5.29 63.08,-55.42 82.97,-74.38 22.99,-21.91 50.93,-56.4 78.55,-76.02 -21.5,-74.65 -9.52,-111.54 -14.54,-192.27 -5.17,-83.25 -28.65,-91.05 -79.7,-126.69 18.29,-10.4 14.28,-10.46 21.82,-20.12z"/>
     <path class="fil1" d="M452.29 1358.06c80.38,65.25 243.83,52.13 365.42,48.93l1.39 -174.27c-93.78,-6.12 -134.62,12.84 -205.29,-25.06 -27.62,19.62 -55.56,54.11 -78.55,76.02 -19.89,18.96 -57.65,69.09 -82.97,74.38z"/>
     <path class="fil3" d="M1245.34 573.29c25.57,-26.23 47.36,-46.11 75.7,-75.26 24.35,-25.03 65.99,-50.97 72.92,-88.17 -92.69,-50.4 -229.31,-41.04 -350.43,-36.79l-1.84 175.5c39.64,1.23 76.42,-0.32 113.24,0.15 64.25,0.83 51.33,3.95 90.41,24.57z"/>
     <path class="fil4" d="M691.31 1123.06c35.88,17.89 49.18,16.26 76.74,-16.53l188.8 -190.73c15.66,-18.23 13.08,-14.59 30.94,-29.71 12.47,-10.56 16.42,-14.97 29.91,-30.9l125.08 -125.35c29.26,-30.41 45.18,-29.25 19.84,-78.77 -52.3,-14.86 -70.26,24.62 -136.67,91.09l-243.27 242.49c-69.74,70.75 -105.97,84.27 -91.37,138.41z"/>
     <path class="fil5" d="M44.2 1945.66c0,22.2 3.89,38.75 11.69,49.64 7.79,10.89 21.19,16.33 40.19,16.33 8.96,0 18.09,-1.23 27.38,-3.68 9.29,-2.46 16.6,-5.5 21.94,-9.13l6.08 39.71c-15.16,8.76 -34.05,13.13 -56.68,13.13 -31.82,0 -55.57,-8.43 -71.26,-25.3 -15.69,-16.86 -23.54,-43.02 -23.54,-78.46 0,-35.65 7.85,-63.14 23.54,-82.46 15.69,-19.32 39.34,-28.99 70.94,-28.99 20.28,0 39.28,4.6 57,13.78l-6.4 39.71c-14.1,-8.97 -31.07,-13.45 -50.92,-13.45 -17.51,0 -30.21,5.55 -38.11,16.65 -7.9,11.1 -11.85,28.61 -11.85,52.52z"/>
     <path id="1" class="fil5" d="M301.36 1995.62c6.19,-11.32 9.29,-28.4 9.29,-51.24 0,-22.85 -3.1,-39.82 -9.29,-50.92 -5.98,-11.1 -17.93,-16.65 -35.87,-16.65 -18.15,0 -30.21,5.55 -36.19,16.65 -5.97,10.67 -8.96,27.65 -8.96,50.92 0,23.06 2.99,40.14 8.96,51.24 5.98,10.89 18.04,16.33 36.19,16.33 17.72,0 29.68,-5.44 35.87,-16.33zm7.37 48.36c-11.53,5.33 -25.95,8 -43.24,8 -17.51,0 -32.02,-2.67 -43.55,-8 -20.93,-9.4 -34.59,-28.29 -40.99,-56.69 -2.57,-12.59 -3.85,-26.9 -3.85,-42.91 0,-16.23 1.28,-30.42 3.85,-42.59 6.19,-28.4 19.85,-47.4 40.99,-57.01 11.53,-5.34 26.04,-8 43.55,-8 17.29,0 31.71,2.66 43.24,8 21.35,9.4 35.01,28.4 40.99,57.01 2.77,11.74 4.16,25.94 4.16,42.59 0,16.65 -1.39,30.96 -4.16,42.91 -5.98,28.4 -19.64,47.29 -40.99,56.69z"/>
     <path id="2" class="fil5" d="M456.68 2047.82l-65.01 0 0 -208.16 65.01 0c34.59,0 59.56,7.79 74.94,23.38 15.37,15.79 23.05,42.59 23.05,80.38 0,69.6 -32.66,104.4 -97.99,104.4zm-22.1 -40.03l22.1 0c19.85,0 33.73,-4.59 41.63,-13.77 8.11,-9.4 12.17,-26.26 12.17,-50.6 0,-22.21 -3.74,-38.32 -11.21,-48.36 -7.26,-10.25 -21.46,-15.37 -42.59,-15.37l-22.1 0 0 128.1z"/>
     <polygon id="3" class="fil5" points="637.94,2047.82 595.03,2047.82 595.03,1839.66 637.94,1839.66 "/>
     <polygon id="4" class="fil5" points="727.61,2047.82 684.7,2047.82 684.7,1839.66 725.37,1839.66 803.51,1966.16 803.51,1839.66 846.42,1839.66 846.42,2047.82 805.75,2047.82 727.61,1921.64 "/>
     <path id="5" class="fil5" d="M1005.59 1966.16l-34.59 0 0 -36.83 74.3 0 0 109.2c-15.8,8.76 -35.98,13.13 -60.53,13.13 -35.01,0 -60.53,-8.54 -76.54,-25.62 -16.01,-17.08 -24.02,-44.62 -24.02,-82.62 0,-43.77 14.09,-74.51 42.28,-92.23 14.94,-9.82 33.84,-14.74 56.68,-14.74 22.84,0 43.55,4.6 62.13,13.78l-6.41 39.71c-5.12,-2.99 -13.34,-6.09 -24.66,-9.29 -10.24,-2.78 -20.17,-4.16 -29.78,-4.16 -20.07,0 -34.43,5.44 -43.07,16.33 -8.65,10.89 -12.97,28.39 -12.97,52.52 0,19.86 3.41,35.44 10.24,46.76 8.12,13.02 23.6,19.53 46.44,19.53 5.55,0 12.38,-0.53 20.5,-1.6l0 -43.87z"/>
     <path id="6" class="fil5" d="M1195.82 1945.66c0,22.2 3.89,38.75 11.69,49.64 7.79,10.89 21.19,16.33 40.19,16.33 8.96,0 18.09,-1.23 27.38,-3.68 9.29,-2.46 16.6,-5.5 21.94,-9.13l6.08 39.71c-15.16,8.76 -34.05,13.13 -56.68,13.13 -31.82,0 -55.57,-8.43 -71.26,-25.3 -15.69,-16.86 -23.54,-43.02 -23.54,-78.46 0,-35.65 7.85,-63.14 23.54,-82.46 15.69,-19.32 39.34,-28.99 70.94,-28.99 20.28,0 39.28,4.6 57,13.78l-6.4 39.71c-14.1,-8.97 -31.07,-13.45 -50.92,-13.45 -17.51,0 -30.21,5.55 -38.11,16.65 -7.9,11.1 -11.85,28.61 -11.85,52.52z"/>
     <polygon id="7" class="fil5" points="1475.07,2047.82 1338.97,2047.82 1338.97,1839.66 1381.88,1839.66 1381.88,2007.79 1475.07,2007.79 "/>
     <path id="8" class="fil5" d="M1491.08 1961.99l0 -122.33 42.92 0 0 122.33c0,33.1 13.77,49.64 41.31,49.64 27.33,0 40.99,-16.54 40.99,-49.64l0 -122.33 42.92 0 0 122.33c0,29.89 -7.37,52.31 -22.1,67.26 -14.73,14.94 -35.34,22.41 -61.81,22.41 -26.47,0 -47.13,-7.47 -61.97,-22.41 -14.84,-14.95 -22.26,-37.37 -22.26,-67.26z"/>
     <path id="9" class="fil5" d="M1700.21 2047.82l0 -208.16 78.14 0c49.74,0 74.62,18.89 74.62,56.68 0,19.43 -8.33,33.95 -24.98,43.56 20.92,10.03 31.38,25.19 31.38,45.47 0,17.51 -6.72,32.35 -20.17,44.52 -13.67,11.95 -32.88,17.93 -57.65,17.93l-81.34 0zm81.34 -88.07l-38.43 0 0 48.04 38.43 0c22.85,0 34.27,-7.9 34.27,-23.7 0,-16.23 -11.42,-24.34 -34.27,-24.34zm-3.2 -80.06l-35.23 0 0 43.23 35.23 0c20.71,0 31.06,-7.36 31.06,-22.09 0,-14.1 -10.35,-21.14 -31.06,-21.14z"/>
    </g>
    <g>
     <polygon class="fil6" points="2612.68,1476.46 2517.81,1476.46 2517.81,1414.7 2774.24,1414.7 2774.24,1476.46 2679.38,1476.46 2679.38,1735.86 2612.68,1735.86 "/>
     <path id="1" class="fil6" d="M2953.29 1735.86l-64.23 0 0 -345.86 64.23 0 0 98.32c15.16,-3.62 32.12,-5.43 50.89,-5.43 69.84,0 104.75,33.1 104.75,99.31l0 153.66 -63.74 0 0 -153.66c0,-25.69 -14.65,-38.54 -43.97,-38.54 -20.42,0 -36.4,1.48 -47.93,4.45l0 187.75z"/>
     <path id="2" class="fil6" d="M3438.19 1594.55c0,15.81 -1.82,29.65 -5.44,41.5l-146.74 0 0 2.47c0,12.85 5.27,23.14 15.81,30.88 10.54,7.75 25.53,11.62 44.96,11.62 27.34,0 51.88,-4.78 73.62,-14.33l9.88 60.77c-23.72,9.55 -51.71,14.33 -83.99,14.33 -42.5,0 -74.2,-10.46 -95.12,-31.38 -20.91,-20.91 -31.37,-53.11 -31.37,-96.59 0,-41.17 9.3,-73.29 27.91,-96.35 18.62,-23.06 46.86,-34.58 84.74,-34.58 70.49,0 105.74,37.22 105.74,111.66zm-152.18 -13.34l0 2.47 90.91 0 0 -2.47c0,-13.51 -4.04,-23.96 -12.11,-31.37 -8.07,-7.42 -19.51,-11.12 -34.34,-11.12 -29.64,0 -44.46,14.16 -44.46,42.49z"/>
     <path id="3" class="fil6" d="M3737.81 1578.25c0,34.25 6.02,59.78 18.04,76.58 12.02,16.8 32.69,25.2 62.01,25.2 13.83,0 27.91,-1.9 42.24,-5.68 14.33,-3.79 25.61,-8.49 33.85,-14.09l9.38 61.27c-23.38,13.51 -52.53,20.26 -87.45,20.26 -49.08,0 -85.72,-13.01 -109.93,-39.03 -24.21,-26.03 -36.32,-66.38 -36.32,-121.06 0,-55 12.11,-97.41 36.32,-127.22 24.21,-29.81 60.69,-44.72 109.44,-44.72 31.29,0 60.61,7.08 87.94,21.25l-9.88 61.26c-21.74,-13.83 -47.92,-20.75 -78.56,-20.75 -27.01,0 -46.61,8.57 -58.79,25.69 -12.19,17.13 -18.29,44.14 -18.29,81.04z"/>
     <path id="4" class="fil6" d="M4134.76 1681.02c20.75,0 34.75,-5.6 42,-16.8 7.25,-11.2 10.87,-28.5 10.87,-51.88 0,-23.39 -3.62,-40.68 -10.87,-51.88 -7.25,-11.2 -21.25,-16.8 -42,-16.8 -20.75,0 -34.91,5.76 -42.49,17.29 -7.58,11.53 -11.36,28.66 -11.36,51.39 0,23.06 3.78,40.35 11.36,51.88 7.25,11.2 21.41,16.8 42.49,16.8zm0 60.77c-79.05,0 -118.58,-43.15 -118.58,-129.45 0,-40.52 10.38,-72.22 31.13,-95.11 20.75,-22.9 49.9,-34.34 87.45,-34.34 78.4,0 117.59,43.15 117.59,129.45 0,40.84 -10.21,72.63 -30.63,95.36 -20.42,22.73 -49.41,34.09 -86.96,34.09z"/>
     <path id="5" class="fil6" d="M4519.35 1390l64.23 0 0 335.98c-24.7,10.54 -56.49,15.81 -95.36,15.81 -41.17,0 -72.3,-11.36 -93.38,-34.09 -21.08,-22.73 -31.62,-55.51 -31.62,-98.33 0,-37.55 10.21,-68.02 30.63,-91.4 20.75,-23.39 48.92,-35.08 84.49,-35.08 16.47,0 30.14,1.97 41.01,5.93l0 -98.82zm-33.6 291.02c12.52,0 23.72,-1.32 33.6,-3.96l0 -126.98c-7.57,-4.28 -19.6,-6.42 -36.07,-6.42 -20.75,0 -35.16,5.19 -43.23,15.56 -8.07,10.38 -12.1,28.08 -12.1,53.12 0,24.7 4.44,42.32 13.34,52.87 8.89,10.54 23.71,15.81 44.46,15.81z"/>
     <path id="6" class="fil6" d="M4778.44 1735.86l-64.23 0 0 -247.04 64.23 0 0 247.04zm-32.11 -282.62c-10.54,0 -19.6,-3.79 -27.18,-11.36 -7.57,-7.58 -11.36,-16.64 -11.36,-27.18 0,-10.54 3.79,-19.6 11.36,-27.17 7.58,-7.58 16.64,-11.37 27.18,-11.37 10.54,0 19.6,3.79 27.17,11.37 7.58,7.57 11.37,16.63 11.37,27.17 0,10.54 -3.79,19.6 -11.37,27.18 -7.57,7.57 -16.63,11.36 -27.17,11.36z"/>
     <path id="7" class="fil6" d="M4973.3 1735.86l-64.23 0 0 -237.16c27.67,-10.54 65.55,-15.81 113.64,-15.81 70.82,0 106.23,32.44 106.23,97.33l0 155.64 -63.74 0 0 -153.66c0,-25.69 -14.65,-38.54 -43.97,-38.54 -18.45,0 -34.42,1.48 -47.93,4.45l0 187.75z"/>
     <path id="8" class="fil6" d="M5465.11 1498.7l0 247.04c0,32.94 -10.54,58.47 -31.62,76.59 -21.08,18.11 -50.07,27.17 -86.96,27.17 -32.94,0 -62.09,-5.1 -87.45,-15.32l9.88 -60.28c21.08,9.89 46.77,14.83 77.08,14.83 36.56,0 54.84,-14.33 54.84,-42.99l0 -9.88c-10.87,3.95 -24.54,5.93 -41.01,5.93 -36.56,0 -64.89,-11.28 -84.98,-33.85 -20.09,-22.56 -30.14,-54.26 -30.14,-95.11 0,-41.83 10.95,-73.95 32.86,-96.35 21.9,-22.39 54.1,-33.59 96.59,-33.59 37.88,0 68.19,5.27 90.91,15.81zm-155.63 113.64c0,25.03 4.2,42.74 12.59,53.11 8.4,10.38 23.64,15.57 45.71,15.57 15.81,0 26.84,-2.15 33.1,-6.43l0 -126.48c-8.89,-2.97 -19.76,-4.45 -32.61,-4.45 -22.4,0 -37.8,5.02 -46.2,15.07 -8.39,10.05 -12.59,27.91 -12.59,53.61z"/>
     <path id="9" class="fil6" d="M5769.66 1578.25c0,34.25 6.02,59.78 18.04,76.58 12.02,16.8 32.69,25.2 62.01,25.2 13.83,0 27.91,-1.9 42.24,-5.68 14.33,-3.79 25.61,-8.49 33.85,-14.09l9.38 61.27c-23.38,13.51 -52.53,20.26 -87.45,20.26 -49.08,0 -85.72,-13.01 -109.93,-39.03 -24.21,-26.03 -36.32,-66.38 -36.32,-121.06 0,-55 12.11,-97.41 36.32,-127.22 24.21,-29.81 60.69,-44.72 109.44,-44.72 31.29,0 60.61,7.08 87.94,21.25l-9.88 61.26c-21.74,-13.83 -47.92,-20.75 -78.56,-20.75 -27.01,0 -46.61,8.57 -58.79,25.69 -12.19,17.13 -18.29,44.14 -18.29,81.04z"/>
     <path id="10" class="fil6" d="M6054.95 1661.25l0 -271.25 64.23 0 0 256.92c-0.99,11.86 0.33,20.51 3.95,25.94 3.62,5.44 7.99,7.74 13.09,6.92 5.11,-0.82 9.97,-1.73 14.58,-2.72l9.39 58.8c-8.57,3.29 -19.11,4.94 -31.62,4.94 -23.06,0 -41.1,-6.67 -54.11,-20.01 -13.01,-13.34 -19.51,-33.19 -19.51,-59.54z"/>
     <path id="11" class="fil6" d="M6417.8 1488.82l64.23 0 0 237.16c-28.66,10.54 -67.03,15.81 -115.12,15.81 -33.6,0 -59.46,-8.07 -77.57,-24.21 -18.12,-16.14 -27.18,-40.52 -27.18,-73.13l0 -155.63 63.74 0 0 153.66c0,25.69 14.16,38.54 42.49,38.54 19.1,0 35.57,-1.49 49.41,-4.45l0 -187.75z"/>
     <path id="12" class="fil6" d="M6612.66 1725.98l0 -335.98 64.23 0 0 98.82c10.87,-3.96 24.54,-5.93 41.01,-5.93 36.57,0 64.89,11.28 84.99,33.84 20.09,22.56 30.14,54.43 30.14,95.61 0,40.18 -10.71,71.81 -32.12,94.86 -21.41,23.06 -52.37,34.59 -92.89,34.59 -38.87,0 -70.65,-5.27 -95.36,-15.81zm155.64 -113.64c0,-25.04 -4.36,-42.74 -13.09,-53.12 -8.73,-10.37 -24.46,-15.56 -47.19,-15.56 -14.49,0 -24.87,2.14 -31.13,6.42l0 126.98c9.88,2.64 21.08,3.96 33.6,3.96 21.74,0 36.81,-5.03 45.21,-15.07 8.4,-10.05 12.6,-27.92 12.6,-53.61z"/>
     <path class="fil7" d="M2612.71 704c0,96.41 16.91,168.25 50.75,215.52 33.83,47.28 92,70.92 174.5,70.92 38.93,0 78.56,-5.33 118.88,-15.99 40.33,-10.66 72.08,-23.87 95.25,-39.63l26.42 172.42c-65.82,38 -147.85,57.01 -246.11,57.01 -138.12,0 -241.25,-36.62 -309.38,-109.85 -68.13,-73.23 -102.2,-186.79 -102.2,-340.66 0,-154.81 34.07,-274.16 102.2,-358.05 68.13,-83.89 170.8,-125.83 307.99,-125.83 88.06,0 170.56,19.93 247.5,59.79l-27.81 172.41c-61.18,-38.93 -134.87,-58.4 -221.08,-58.4 -76.01,0 -131.17,24.11 -165.47,72.31 -34.29,48.2 -51.44,124.21 -51.44,228.03z"/>
     <polygon id="1" class="fil7" points="3431.69,1147.56 3245.37,1147.56 3245.37,243.76 3431.69,243.76 "/>
     <path id="2" class="fil7" d="M3634.7 1147.56l0 -903.8 353.18 0c232.67,0 349,101.04 349,303.12 0,201.15 -116.33,301.73 -349,301.73l-166.86 0 0 298.95 -186.32 0zm353.18 -729.99l-166.86 0 0 257.23 166.86 0c58.4,0 100.11,-10.19 125.14,-30.59 25.03,-20.39 37.54,-52.83 37.54,-97.33 0,-45.42 -12.51,-78.33 -37.54,-98.72 -25.03,-20.39 -66.74,-30.59 -125.14,-30.59z"/>
     <polygon id="3" class="fil7" points="5000.13,758.23 4670.59,758.23 4670.59,1147.56 4484.27,1147.56 4484.27,243.76 4670.59,243.76 4670.59,584.42 5000.13,584.42 5000.13,243.76 5186.45,243.76 5186.45,1147.56 5000.13,1147.56 "/>
     <polygon id="4" class="fil7" points="5969.29,772.14 5564.66,772.14 5564.66,973.75 6024.91,973.75 6024.91,1147.56 5378.34,1147.56 5378.34,243.76 6024.91,243.76 6024.91,417.57 5564.66,417.57 5564.66,598.33 5969.29,598.33 "/>
     <path id="5" class="fil7" d="M6891.16 532.98c0,63.03 -16.22,117.72 -48.66,164.07 -32.45,46.35 -80.19,80.18 -143.22,101.5l230.82 349.01 -214.13 0 -214.13 -326.76 -126.54 0 0 326.76 -186.32 0 0 -903.8 353.18 0c232.67,0 349,96.41 349,289.22zm-349 -115.41l-166.86 0 0 229.42 166.86 0c108.45,0 162.68,-38 162.68,-114.01 0,-39.86 -12.51,-69.06 -37.54,-87.6 -25.03,-18.54 -66.74,-27.81 -125.14,-27.81z"/>
    </g>
    <rect class="fil8" x="2355.76" y="1945.35" width="4630.03" height="511.9"/>
    <polygon class="fil9" points="2531.62,2339.27 2531.62,2047.46 2585.95,2047.46 2585.95,2289.6 2684.12,2289.6 2684.12,2339.27 "/>
    <polygon id="1" class="fil9" points="2758.62,2339.27 2758.62,2047.46 2908.47,2047.46 2908.47,2095.97 2812.56,2095.97 2812.56,2163.49 2901.81,2163.49 2901.81,2209.66 2812.56,2209.66 2812.56,2289.99 2910.74,2289.99 2910.74,2339.27 "/>
    <path id="2" class="fil9" d="M3045.12 2222.08l46.24 0 -23.28 -122.36 -22.96 122.36zm-78 117.19l65.71 -291.81 72.89 0 66.29 291.81 -58.53 0 -14.36 -73.34 -62.47 0 -14.04 73.34 -55.49 0z"/>
    <path id="3" class="fil9" d="M3290.74 2170.86l31.24 0c15.84,0 26.77,-3.17 32.92,-9.51 6.14,-6.27 9.18,-17.59 9.18,-33.89 0,-14.55 -3.36,-24.7 -10.02,-30.52 -6.73,-5.82 -18.89,-8.73 -36.61,-8.73l-26.71 0 0 82.65zm-52.39 168.41l0 -291.81 97.34 0c29.42,0 50.7,5.95 63.64,17.92 13,11.96 19.46,31.43 19.46,58.46 0,18.95 -3.49,33.89 -10.47,44.82 -6.92,10.93 -17.21,17.33 -30.72,19.27 25.8,6.8 39.32,28.59 40.42,65.32 0,1.69 0,2.91 0,3.82l1.55 38.61c0.52,10.99 1.87,19.79 4.14,26.45 2.26,6.6 5.82,12.35 10.6,17.14l-64.54 0c-1.49,-4.92 -2.65,-10.67 -3.43,-17.33 -0.71,-6.66 -1.23,-16.04 -1.48,-28.14l-0.78 -30.52 0 -7.76c0,-16.88 -3.62,-28.52 -10.8,-34.86 -7.18,-6.27 -21.86,-9.44 -43.98,-9.44l-18.56 0 0 128.05 -52.39 0z"/>
    <polygon id="4" class="fil9" points="3500.02,2339.27 3500.02,2047.46 3555.97,2047.46 3631.89,2251.51 3630.41,2047.46 3681.63,2047.46 3681.63,2339.27 3626.27,2339.27 3549.76,2134.84 3551.25,2339.27 "/>
    <polygon id="5" class="fil9" points="3768.29,2339.27 3768.29,2286.88 3817.18,2286.88 3817.18,2339.27 "/>
    <polygon id="6" class="fil9" points="3963.08,2339.27 3963.08,2047.46 4017.41,2047.46 4017.41,2339.27 "/>
    <polygon id="7" class="fil9" points="4104.77,2339.27 4104.77,2047.46 4160.72,2047.46 4236.64,2251.51 4235.16,2047.46 4286.38,2047.46 4286.38,2339.27 4231.02,2339.27 4154.51,2134.84 4156,2339.27 "/>
    <path id="8" class="fil9" d="M4368.32 2236.83l54.39 0 0 18.75c0,17.92 2.26,30.21 6.72,36.67 4.47,6.53 12.23,9.77 23.22,9.77 11.51,0 20.24,-2.91 26.26,-8.73 6.01,-5.82 8.99,-14.42 8.99,-25.74 0,-8.73 -2.07,-16.24 -6.27,-22.51 -4.14,-6.21 -13.2,-14.29 -27.1,-24.12l-27.81 -19.73c-24.06,-16.68 -39.32,-30.46 -45.86,-41.32 -6.53,-10.87 -9.76,-24.52 -9.76,-40.94 0,-24.51 7.24,-43.72 21.79,-57.63 14.55,-13.9 34.6,-20.82 60.08,-20.82 27.1,0 47.8,7.37 62.22,22.18 14.42,14.75 21.6,35.96 21.6,63.64 0,2.78 0,4.92 -0.06,6.4 -0.07,1.56 -0.2,2.85 -0.33,4.01l-51.61 0 0 -7.76c0,-15.84 -2.58,-27.16 -7.76,-34.02 -5.17,-6.79 -13.71,-10.21 -25.54,-10.21 -8.73,0 -15.52,2.58 -20.5,7.69 -4.98,5.11 -7.51,12.23 -7.51,21.34 0,12.29 11.19,25.87 33.5,40.81l0.59 0.33 29.94 20.3c21.34,14.17 35.76,27.49 43.33,40.1 7.57,12.55 11.38,28.52 11.38,47.99 0,26.51 -7.56,47.02 -22.76,61.37 -15.13,14.43 -36.8,21.6 -64.93,21.6 -29.3,0 -51.1,-7.56 -65.45,-22.7 -14.3,-15.13 -21.47,-38.28 -21.47,-69.33 0,-3.23 0.25,-8.66 0.71,-16.23l0 -1.16z"/>
    <path id="9" class="fil9" d="M4676.54 2175.13l22.7 0c16.95,0 28.85,-3.3 35.7,-9.96 6.8,-6.6 10.22,-17.92 10.22,-33.95 0,-16.17 -3.1,-27.36 -9.37,-33.63 -6.28,-6.28 -18.18,-9.38 -35.77,-9.38l-23.48 0 0 86.92zm-52.45 164.14l0 -291.81 94.36 0c28.78,0 49.48,6.47 62.09,19.34 12.61,12.87 18.95,33.95 18.95,63.25 0,28.78 -6.73,50.25 -20.18,64.29 -13.45,14.1 -34.02,21.15 -61.63,21.15l-39.65 0 0 123.78 -53.94 0z"/>
    <polygon id="10" class="fil9" points="4873.27,2339.27 4873.27,2047.46 4927.6,2047.46 4927.6,2339.27 "/>
    <path id="11" class="fil9" d="M5067.35 2170.86l31.24 0c15.84,0 26.77,-3.17 32.92,-9.51 6.14,-6.27 9.18,-17.59 9.18,-33.89 0,-14.55 -3.36,-24.7 -10.02,-30.52 -6.73,-5.82 -18.89,-8.73 -36.61,-8.73l-26.71 0 0 82.65zm-52.39 168.41l0 -291.81 97.34 0c29.42,0 50.7,5.95 63.64,17.92 13,11.96 19.46,31.43 19.46,58.46 0,18.95 -3.49,33.89 -10.47,44.82 -6.92,10.93 -17.21,17.33 -30.72,19.27 25.8,6.8 39.32,28.59 40.42,65.32 0,1.69 0,2.91 0,3.82l1.55 38.61c0.52,10.99 1.87,19.79 4.14,26.45 2.26,6.6 5.82,12.35 10.6,17.14l-64.54 0c-1.49,-4.92 -2.65,-10.67 -3.43,-17.33 -0.71,-6.66 -1.23,-16.04 -1.48,-28.14l-0.78 -30.52 0 -7.76c0,-16.88 -3.62,-28.52 -10.8,-34.86 -7.18,-6.27 -21.86,-9.44 -43.98,-9.44l-18.56 0 0 128.05 -52.39 0z"/>
    <polygon id="12" class="fil9" points="5276.62,2339.27 5276.62,2047.46 5426.47,2047.46 5426.47,2095.97 5330.56,2095.97 5330.56,2163.49 5419.81,2163.49 5419.81,2209.66 5330.56,2209.66 5330.56,2289.99 5428.74,2289.99 5428.74,2339.27 "/>
    <polygon id="13" class="fil9" points="5505.69,2339.27 5505.69,2286.88 5554.58,2286.88 5554.58,2339.27 "/>
    <path id="14" class="fil9" d="M5844.51 2339.27l-4.01 -32.14c-5.49,13.97 -13.13,23.99 -22.83,30.07 -9.63,6.02 -22.89,9.05 -39.84,9.05 -30.59,0 -52.06,-11.57 -64.48,-34.66 -12.48,-23.09 -18.69,-65.51 -18.69,-127.15 0,-28.78 1.49,-51.87 4.47,-69.2 2.97,-17.4 7.63,-30.78 13.9,-40.29 7.57,-11.58 17.66,-20.18 30.14,-25.74 12.48,-5.56 28.07,-8.34 46.63,-8.34 31.3,0 54.39,7.37 69.26,22.18 14.81,14.81 22.25,37.77 22.25,69.01l0 7.37 -50.83 0 0 -3.04c0,-17.4 -3.24,-30.59 -9.77,-39.52 -6.47,-8.86 -16.17,-13.32 -29.04,-13.32 -15.84,0 -26.58,6.08 -32.4,18.17 -5.82,12.16 -8.73,44.31 -8.73,96.43 0,41.2 2.78,68.75 8.34,82.66 5.57,13.9 15.59,20.82 30.08,20.82 14.42,0 24.64,-4.92 30.78,-14.81 6.15,-9.83 9.19,-26.52 9.19,-50.06l0 -10.02 -37.64 0 0 -46.57 90.02 0 0 159.1 -36.8 0z"/>
    <path id="15" class="fil9" d="M6019.06 2170.86l31.24 0c15.84,0 26.77,-3.17 32.92,-9.51 6.14,-6.27 9.18,-17.59 9.18,-33.89 0,-14.55 -3.36,-24.7 -10.02,-30.52 -6.73,-5.82 -18.89,-8.73 -36.61,-8.73l-26.71 0 0 82.65zm-52.39 168.41l0 -291.81 97.34 0c29.42,0 50.7,5.95 63.64,17.92 13,11.96 19.46,31.43 19.46,58.46 0,18.95 -3.49,33.89 -10.47,44.82 -6.92,10.93 -17.21,17.33 -30.72,19.27 25.8,6.8 39.32,28.59 40.42,65.32 0,1.69 0,2.91 0,3.82l1.55 38.61c0.52,10.99 1.87,19.79 4.14,26.45 2.26,6.6 5.82,12.35 10.6,17.14l-64.54 0c-1.49,-4.92 -2.65,-10.67 -3.43,-17.33 -0.71,-6.66 -1.23,-16.04 -1.48,-28.14l-0.78 -30.52 0 -7.76c0,-16.88 -3.62,-28.52 -10.8,-34.86 -7.18,-6.27 -21.86,-9.44 -43.98,-9.44l-18.56 0 0 128.05 -52.39 0z"/>
    <path id="16" class="fil9" d="M6278 2193.43c0,48.05 2.78,78.26 8.41,90.67 5.63,12.49 16.04,18.69 31.17,18.69 14.88,0 25.1,-6.08 30.59,-18.3 5.5,-12.16 8.22,-42.55 8.22,-91.06 0,-48.5 -2.78,-78.9 -8.35,-91.32 -5.56,-12.35 -15.84,-18.56 -30.84,-18.56 -15.01,0 -25.29,6.21 -30.85,18.56 -5.57,12.42 -8.35,42.82 -8.35,91.32zm-55.49 -0.06c0,-30.92 1.43,-55.69 4.34,-74.18 2.91,-18.5 7.5,-32.4 13.64,-41.78 8.48,-13.26 18.56,-22.7 30.33,-28.39 11.71,-5.7 27.17,-8.54 46.38,-8.54 19.2,0 34.66,2.84 46.37,8.54 11.77,5.69 21.92,15.13 30.52,28.39 6.15,9.63 10.67,23.6 13.52,42.1 2.84,18.43 4.27,43.01 4.27,73.86 0,30.72 -1.43,55.29 -4.34,73.79 -2.91,18.5 -7.43,32.53 -13.45,42.17 -8.6,13.25 -18.75,22.7 -30.52,28.39 -11.71,5.69 -27.17,8.53 -46.37,8.53 -19.21,0 -34.67,-2.84 -46.38,-8.53 -11.77,-5.69 -21.85,-15.14 -30.33,-28.39 -6.14,-9.38 -10.73,-23.29 -13.64,-41.78 -2.91,-18.5 -4.34,-43.27 -4.34,-74.18z"/>
    <polygon id="17" class="fil9" points="6532.55,2339.27 6475.89,2047.46 6532.16,2047.46 6567.8,2268.58 6605.89,2047.46 6650.9,2047.46 6692.87,2272.98 6723.92,2047.46 6779.73,2047.46 6726.57,2339.27 6662.15,2339.27 6628.39,2154.89 6597.35,2339.27 "/>
   </g>
  </g>
 </g>
</svg>
