<svg width="1500" height="897" viewBox="0 0 1500 897" fill="none" xmlns="http://www.w3.org/2000/svg">
<path d="M901.516 505.336C896.877 498.624 892.298 491.286 879.942 468.375C871.79 453.254 867.715 445.692 864.244 438.606C858.458 426.797 851.073 410.541 843.642 390.403C844.548 389.567 845.454 388.733 846.364 387.897L844.461 387.312C844.475 386.941 844.583 385.32 845.909 383.993C847.326 382.575 849.089 382.54 849.429 382.54C849.429 381.892 849.418 380.972 849.359 379.865C849.25 377.747 849.194 376.69 848.925 376.018C848.05 373.829 844.814 373.14 843.278 372.916C843.292 374.078 842.684 375.135 841.729 375.587C840.48 376.179 838.818 375.66 838.003 374.271C837.681 373.402 837.363 372.531 837.041 371.662L838.811 369.043C838.944 369.015 839.129 368.97 839.339 368.889C839.664 368.77 840.172 368.578 840.441 368.2C840.536 368.067 840.655 367.836 840.588 366.789C840.56 366.344 840.497 365.728 840.34 365C840.207 364.636 840.021 364.072 839.888 363.361C839.553 361.544 839.941 360.76 839.609 359.745C839.392 359.073 838.825 358.19 837.226 357.41C836.708 356.496 835.746 355.074 834.102 353.821C832.916 352.914 831.765 352.392 830.915 352.088C830.317 351.062 829.719 350.033 829.12 349.007C829.848 348.667 830.925 348.051 831.944 346.969C832.622 346.245 833.077 345.523 833.378 344.953C833.161 342.464 832.783 340.401 832.444 338.882C831.212 333.35 829.802 331.824 829.008 331.124C828.389 330.577 827.798 330.224 827.385 330.01C827.857 329.195 828.508 328.001 829.204 326.502C829.806 325.196 830.11 324.531 830.212 323.824C830.492 321.856 829.659 320.221 829.246 319.434C828.428 317.876 827.689 317.508 826.552 316.153C825.636 315.068 824.481 313.366 823.635 310.783C823.684 309.512 823.722 307.583 823.607 305.226C823.446 301.897 823.117 300.496 823.827 300.069C824.761 299.513 826.696 301.109 828.141 302.303C830.142 303.955 831.51 305.664 832.402 306.949C832.314 304.673 831.971 301.645 830.932 298.228C829.939 294.961 828.617 292.356 827.473 290.459C828.193 290.448 829.145 290.508 830.226 290.778C831.527 291.1 832.538 291.607 833.231 292.024C830.534 285.897 826.888 281.927 824.653 281.794C823.135 281.703 821.291 282 821.291 282C820.332 282.158 819.552 282.368 819.013 282.533C819.167 281.304 819.321 280.078 819.475 278.849L818.282 277.785C818.73 277.523 819.468 276.994 819.703 276.115C819.825 275.646 819.755 275.254 819.717 275.037C819.5 273.811 819.251 272.372 818.968 270.776C818.356 267.562 817.31 262.38 815.949 257.129C815.704 256.187 815.347 254.85 814.315 253.47C812.751 251.38 810.712 250.613 808.088 249.556C805.94 248.691 802.756 247.375 798.695 245.554L797.022 242.354L794.766 242.361L785.481 235.629L784.141 226.369V225.301C784.414 225.301 784.691 225.301 784.967 225.301C785.058 226.775 785.149 228.245 785.24 229.719C785.226 229.989 785.415 230.227 785.677 230.272C785.932 230.314 786.188 230.164 786.268 229.912C786.303 229.964 786.429 230.129 786.625 230.15C786.884 230.178 787.178 229.943 787.255 229.565C787.286 229.59 787.493 229.761 787.773 229.709C787.969 229.674 788.087 229.551 788.122 229.509C787.811 227.443 787.496 225.381 787.181 223.319C787.353 222.85 787.584 222.181 787.829 221.362C788.654 218.593 788.486 217.865 788.357 217.49C788.231 217.133 787.962 216.583 787.307 216.027V213.772H788.483L787.307 212.585L789.189 211.864L787.307 210.327H788.248L787.307 207.596V206.644L786.076 205.341L788.444 203.433H786.076L786.772 200.709L784.519 201.784L782.962 197.517V200.366L778.918 195.868L779.52 198.003C779.128 197.513 778.523 196.872 777.659 196.295C776.483 195.51 775.357 195.195 774.643 195.055V196.596L770.011 194.12L771.446 196.848C770.525 196.519 769.437 196.197 768.199 195.959C766.642 195.661 765.243 195.57 764.085 195.57C764.799 196.081 765.512 196.592 766.226 197.107C765.309 197.552 764.022 198.049 762.427 198.294C761.444 198.444 760.559 198.469 759.82 198.437C760.181 199.029 760.538 199.621 760.898 200.216L757.816 201.294L759.6 202.12L754.156 206.178L757.952 206.164L754.996 208.79L756.42 208.783C755.909 209.273 755.395 209.76 754.884 210.25C755.416 210.53 755.944 210.814 756.476 211.097C756.329 211.615 756.112 212.221 755.787 212.865C755.269 213.894 754.66 214.665 754.156 215.204C755.076 214.885 755.997 214.567 756.917 214.245L755.146 217.101H756.808L756.109 220.305C756.777 220.613 757.441 220.925 758.11 221.233C758.022 221.824 757.858 223.529 758.83 225.283C760.23 227.808 762.853 228.389 763.259 228.473C763.347 230.612 763.434 232.748 763.522 234.887L760.922 237.866L753.177 229.817C753.555 229.607 754.436 229.05 755.052 227.944C755.689 226.803 755.678 225.728 755.654 225.297C756.283 224.622 756.913 223.946 757.543 223.27L754.324 219.125C754.051 218.967 753.362 218.614 752.463 218.698C750.966 218.834 750.161 220.046 750.056 220.21C749.031 221.005 748.003 221.803 746.978 222.598L746.502 222.363L748.629 219.741C748.744 219.629 749.269 219.1 749.29 218.267C749.301 217.711 749.08 217.301 748.975 217.126C747.37 216.041 745.764 214.955 744.158 213.866C743.896 212.785 743.633 211.699 743.371 210.614C743.21 210.449 742.881 210.162 742.384 210.008C741.545 209.749 740.827 210.061 740.639 210.152C740.576 209.518 740.362 208.314 739.582 207.985C739.509 207.953 739.355 207.901 738.4 207.869C737.808 207.848 737.322 207.852 736.993 207.859C736.874 207.442 736.755 207.025 736.64 206.609C736.507 206.388 736.357 206.234 736.224 206.126C735.251 205.327 733.796 205.839 733.621 205.902C732.596 206.343 731.567 206.78 730.542 207.221L718.983 195.741C719.253 195.258 719.165 194.67 718.795 194.334C718.504 194.064 718.07 193.984 717.675 194.117C715.73 192.493 713.785 190.865 711.84 189.237C711.598 189.163 709.692 188.599 708.159 189.72C706.62 190.847 706.088 193.214 707.113 195.311C708.74 196.771 710.37 198.231 711.997 199.687C711.868 200.023 711.962 200.405 712.232 200.639C712.497 200.867 712.875 200.913 713.187 200.751C717.252 204.834 721.313 208.916 725.375 212.998C724.602 213.828 723.5 215.207 722.685 217.164C721.747 219.419 721.607 221.429 721.618 222.626C721.034 222.924 720.404 223.305 719.76 223.799C717.721 225.371 716.626 227.289 716.059 228.543C715.579 228.336 714.873 228.095 713.991 228.004C713.176 227.916 712.483 227.986 711.987 228.074C709.828 231.347 707.666 234.624 705.504 237.898C705.466 238.528 705.424 239.162 705.385 239.795C702.352 242.757 699.315 245.719 696.282 248.684C695.869 249.076 695.268 249.735 694.802 250.68C694.327 251.636 694.208 252.445 693.952 254.899C693.802 256.362 693.683 257.637 693.592 258.669C693.13 261.722 692.665 264.772 692.203 267.821C692.466 268.437 692.889 269.236 693.578 270.044C694.739 271.403 696.058 272.085 696.832 272.411C699.928 272.509 703.027 272.604 706.127 272.698C705.294 274.067 704.462 275.436 703.632 276.805L727.124 306.168C726.802 306.473 724.644 308.584 724.861 311.756C724.997 313.769 726.019 315.152 726.449 315.673C726.662 316.178 727.142 317.105 728.135 317.827C730.119 319.273 732.449 318.66 732.785 318.565C732.855 319.416 732.928 320.263 732.998 321.111L734.548 322.767C733.978 322.56 733.425 322.91 733.344 323.323C733.264 323.726 733.624 324.248 734.212 324.293C734.215 325.448 734.219 326.6 734.226 327.756C735.307 328.617 736.392 329.478 737.476 330.336C737.504 331.771 737.532 333.203 737.56 334.635C737.553 334.8 737.535 335.608 738.148 336.284C738.651 336.837 739.274 336.97 739.47 337.002C739.474 337.716 739.474 338.427 739.477 339.141L739.491 342.229L740.208 343.65L740.096 345.551L740.695 346.14C739.642 353.149 738.347 360.48 736.759 368.088C735.478 374.218 734.1 380.1 732.655 385.726C731.329 389.724 730.059 393.953 728.877 398.407C726.739 406.466 725.214 414.095 724.13 421.153C722.163 428.701 720.348 437.055 718.903 446.144C717.574 454.515 716.737 462.385 716.244 469.643C716.986 470.259 718.081 471.04 719.54 471.67C721.156 472.363 722.608 472.612 723.615 472.703C723.437 473.13 722.954 474.432 723.556 475.545C723.808 476.015 724.312 476.561 726.372 477.159C727.59 477.513 729.444 477.912 731.826 477.898C731.595 479.876 731.364 481.858 731.137 483.839C730.472 485.331 729.699 486.283 729.111 486.882C728.601 487.4 728.037 487.848 727.929 488.618C727.827 489.354 728.202 489.963 728.366 490.239C729.563 492.196 732.617 492.365 733.068 492.382C732.795 493.73 732.526 495.078 732.253 496.422L734.034 497.01C733.362 501.418 732.687 505.826 732.012 510.234C732.449 511.585 732.109 513.003 731.161 513.808C730.371 514.477 729.43 514.495 729.118 514.488C729.041 515.121 728.964 515.755 728.887 516.389L716.006 530.456C714.026 532.259 712.183 533.285 710.811 533.897C708.264 535.032 706.232 535.238 705.525 536.838C705.112 537.777 705.336 538.795 705.595 539.524C707.834 540.175 710.874 540.819 714.512 540.914C718.515 541.015 721.852 540.413 724.235 539.793C725.84 539.268 727.922 538.386 730.063 536.849C731.133 536.082 732.025 535.287 732.757 534.549C733.645 534.041 734.975 533.306 736.636 532.497C739.348 531.177 740.191 530.995 740.95 530.102C741.615 529.325 742.423 527.767 741.856 524.536C741.804 521.21 741.751 517.884 741.699 514.558L743.119 513.129C742.857 512.401 742.584 511.403 742.496 510.192C742.381 508.63 742.622 507.338 742.853 506.477C743.234 505.175 743.609 503.851 743.98 502.507C744.406 500.96 744.809 499.426 745.194 497.917C745.648 497.714 746.1 497.511 746.554 497.308C746.53 496.202 746.509 495.099 746.484 493.992L750.035 491.724C750.301 491.577 751.365 490.95 751.819 489.606C752.376 487.96 751.561 486.57 751.442 486.371C751.368 485.534 751.358 484.316 751.687 482.901C752.057 481.305 752.708 480.104 753.194 479.358C754.419 478.633 756.451 477.66 759.121 477.355C764.004 476.799 767.716 478.868 768.979 479.652C770.781 480.496 773.947 481.693 778.054 481.826C782.581 481.97 786.093 480.748 787.969 479.936C788.924 479.495 790.124 479.047 791.551 478.745C794.133 478.199 796.354 478.367 797.834 478.609C798.187 480.184 798.544 481.763 798.901 483.339L797.264 489.165L804.166 494.483V497.332C804.495 497.452 804.82 497.571 805.149 497.69C805.58 502.476 806.006 507.265 806.437 512.051C806.311 512.156 805.401 512.954 805.415 514.278C805.426 515.566 806.307 516.336 806.437 516.448C806.262 516.525 806.01 516.658 805.747 516.872C804.775 517.674 804.278 519.137 804.586 523.688C804.694 525.302 804.911 527.41 805.373 529.871C806.171 529.959 807.182 530.158 808.287 530.599C810.299 531.398 811.642 532.613 812.387 533.407C814.126 534.93 816.292 536.614 818.908 538.235C821.501 539.846 823.95 541.029 826.07 541.908C831.307 542.24 835.54 542.013 838.486 541.729C842.652 541.33 844.104 540.833 844.457 539.818C845.07 538.046 842.054 535.567 841.592 535.196L832.671 530.361C831.709 529.535 830.282 528.247 828.7 526.517C826.451 524.056 825.664 522.687 824.03 520.804C822.697 519.263 820.644 517.215 817.593 515.177C817.6 514.148 817.488 512.804 817.03 511.305C816.823 510.633 816.579 510.038 816.33 509.52C816.201 505.374 816.071 501.226 815.942 497.08C816.302 496.776 816.659 496.471 817.019 496.167C816.886 494.759 816.753 493.348 816.62 491.941C818.349 490.537 820.077 489.133 821.809 487.733C821.921 487.039 822.019 485.909 821.732 484.571C821.417 483.118 820.791 482.064 820.378 481.473C820.371 479.89 820.364 478.304 820.357 476.722L822.253 475.409C822.165 473.966 822.078 472.521 821.991 471.078C823.614 469.569 825.237 468.06 826.864 466.551C825.961 460.039 825.062 453.527 824.16 447.015L835.624 464.787L837.758 464.776L842.131 460.127C840.578 458.233 839.021 456.339 837.467 454.448C837.314 454.448 837.16 454.448 837.006 454.448C837.02 454.406 837.342 453.412 836.684 452.659C836.222 452.137 835.592 452.085 835.456 452.078C830.838 444.81 826.22 437.545 821.602 430.277L820.262 420.782L839.825 446.48L839.472 447.905L844.457 453.587L848.372 447.632L845.51 443.724L843.726 442.426L836.796 430.813L844.552 440.997L846.805 441.106L849.516 436.106L848.799 434.804L823.519 404.495L827.675 404.6L814.665 354.528L819.528 353.915L821.091 359.251C820.077 362.574 820.255 363.666 820.672 363.991C820.749 364.051 821.035 364.247 821.364 364.601C821.707 364.965 821.928 365.322 822.064 365.57C821.854 366.04 821.063 367.916 821.833 368.98C822.064 369.296 822.603 369.775 822.729 369.887C823.173 370.283 823.575 370.57 823.866 370.763C822.841 371.991 822.935 372.895 822.984 373.182C823.086 373.749 823.614 374.365 824.663 375.576C825.08 376.06 825.433 376.445 825.667 376.693C825.276 377.593 824.411 379.806 825.255 380.614C825.485 380.832 825.741 380.856 827.693 381.266C828.347 381.399 828.875 381.514 829.201 381.584C829.932 382.803 829.918 384.256 829.173 385.246C828.557 386.066 827.654 386.29 827.347 386.353C826.958 386.381 826.57 386.405 826.182 386.433C826.045 387.011 825.587 389.301 826.881 391.646C828.512 394.608 831.597 395.238 832.031 395.319C832.192 394.825 832.755 393.309 834.326 392.308C835.236 391.73 836.117 391.559 836.645 391.499C844.839 413.44 855.376 437.657 869.013 463.152C878.549 480.979 888.366 497.112 897.993 511.578C899.578 513.707 902.111 516.613 905.854 519.284C909.762 522.074 913.495 523.541 916.084 524.336C912.585 520.212 907.32 513.728 901.516 505.336ZM743.129 299.849C742.892 300.861 742.493 301.634 742.188 302.135C741.398 301.403 740.607 300.675 739.816 299.943C739.523 299.275 739.141 298.889 738.833 298.658C737.319 297.528 734.642 297.962 732.193 299.789L710.759 272.618H742.188C741.996 278.191 742.087 284.22 742.608 290.634C742.797 292.945 743.031 295.189 743.304 297.363C743.357 297.951 743.367 298.826 743.129 299.849ZM739.54 241.819L729.993 248.919L726.036 248.24L723.549 250.473L719.043 251.114L720.841 249.094L722.503 248.67L727.953 240.947C728.111 240.562 728.289 240.019 728.363 239.347C728.454 238.496 728.331 237.789 728.216 237.334C727.726 236.504 726.991 235.457 725.914 234.428C725.207 233.752 724.511 233.234 723.899 232.839C725.095 231.54 726.292 230.241 727.488 228.938L727.831 227.689C728.097 227.699 728.492 227.738 728.94 227.892C729.489 228.081 729.846 228.35 729.937 228.413C731.025 229.18 733.995 228.886 735.394 228.77C736.545 228.672 738.246 228.564 740.387 228.543C739.802 229.166 739.285 229.621 738.91 229.926C738.354 230.384 738.004 230.605 737.906 231.046C737.808 231.484 738.015 231.9 738.183 232.159L736.524 233.693C736.451 233.773 735.821 234.491 736.017 235.443C736.14 236.053 736.531 236.417 736.675 236.539C737.137 237.047 737.602 237.555 738.067 238.062C738.309 238.367 739.201 239.438 740.152 239.302C740.429 239.263 740.758 239.113 741.121 238.951C741.566 238.752 741.915 238.545 742.16 238.391C742.542 238.416 743.101 238.409 743.756 238.248C744.774 237.996 745.445 237.506 745.764 237.267C746.684 236.578 747.209 235.769 747.488 235.247C749.441 237.439 751.389 239.627 753.341 241.819H739.54Z" fill="black" fill-opacity="0.9"/>
<path d="M1210.05 304.533C1209.3 303.426 1208.56 302.317 1207.81 301.209C1206.21 301.509 1204.61 301.811 1203.01 302.111C1199.82 299.546 1197.1 299.059 1195.31 299.058C1195.18 299.058 1195.05 299.059 1194.91 299.065C1194.88 298.74 1194.81 298.239 1194.65 297.645C1194.38 296.627 1194.03 296.049 1193.58 295.071C1193.33 294.53 1193 293.727 1192.66 292.699C1193.89 291.786 1195.11 290.872 1196.34 289.959C1196.55 289.727 1196.95 289.233 1197.14 288.487C1197.35 287.682 1197.22 287.011 1197.14 286.705L1201.17 284.088H1198.59C1199.78 282.311 1201 280.267 1202.16 277.952C1204.1 274.063 1205.35 270.422 1206.17 267.328C1204.62 268.563 1203.07 269.795 1201.53 271.03C1201.71 266.876 1201.89 262.721 1202.07 258.567C1201.14 259.91 1200.2 261.255 1199.27 262.597C1198.63 258.218 1197.99 253.84 1197.35 249.461L1193.93 254.125C1193.94 252.592 1193.95 251.058 1193.96 249.525C1193.11 250.726 1192.25 251.924 1191.4 253.124C1190.68 249.892 1189.96 246.659 1189.24 243.427C1187.33 245.41 1185.42 247.392 1183.51 249.375C1182.19 250.456 1180.88 251.535 1179.57 252.615L1179.64 246.194C1178.1 247.649 1176.55 249.104 1175.01 250.56L1175.22 246.808C1173.34 248.431 1171.02 250.8 1169.01 254.072C1168.07 255.591 1167.35 257.054 1166.8 258.381C1166.51 257.101 1166.22 255.821 1165.92 254.539C1165.02 256.676 1163.57 260.973 1164.2 266.375C1164.57 269.537 1165.54 272.057 1166.37 273.774C1165.46 272.917 1164.52 271.953 1163.56 270.876C1162.23 269.37 1161.11 267.898 1160.17 266.532C1161.21 270.591 1162.26 274.651 1163.3 278.71C1163.14 280.998 1163.15 283.625 1163.52 286.495C1163.64 287.374 1163.78 288.217 1163.94 289.02C1164.37 288.025 1164.8 287.028 1165.24 286.033L1166.82 290.88C1167.18 291.25 1167.62 291.649 1168.14 292.036C1169.14 292.775 1170.12 293.22 1170.88 293.491C1171.17 294.167 1171.65 295.067 1172.45 295.962C1172.91 296.469 1173.37 296.866 1173.77 297.17C1173.98 298.668 1174.19 300.167 1174.4 301.667C1173.35 301.722 1171.75 301.931 1169.95 302.694C1168.02 303.517 1166.69 304.634 1165.92 305.389C1165.63 305.382 1165.31 305.397 1164.96 305.444C1163.63 305.629 1162.63 306.223 1162.03 306.669C1160.59 307.017 1158.84 307.566 1156.93 308.458C1155.08 309.326 1153.57 310.293 1152.39 311.155C1150.76 311.97 1149.13 312.785 1147.5 313.601C1147.08 314.674 1146.55 316.49 1146.66 318.761C1146.84 322.281 1148.48 324.748 1149.22 325.728C1149.12 326.273 1149.04 327.046 1149.17 327.952C1149.25 328.508 1149.39 328.983 1149.53 329.366C1149.4 330.236 1149.18 331.674 1148.89 333.463C1148.36 336.787 1148.25 337.383 1148.25 338.319C1148.26 339.573 1148.49 341.458 1149.64 343.774C1148.55 343.352 1147.01 342.906 1145.14 342.83C1141.47 342.683 1138.68 344.047 1137.41 344.78C1136.96 344.49 1136.28 344.117 1135.39 343.929C1133.63 343.559 1132.61 344.218 1130.94 344.25C1129.99 344.267 1128.64 344.085 1126.99 343.153V339.614L1126.42 339.01L1126.67 338.251C1126.59 337.692 1126.4 336.897 1125.95 336.029C1125.59 335.322 1125.18 334.789 1124.84 334.416C1124.56 334.166 1124.08 333.803 1123.42 333.714C1122.24 333.556 1120.99 334.321 1120.29 335.647C1119.99 335.429 1119.34 335.026 1118.42 334.897C1117.49 334.766 1116.75 334.979 1116.4 335.108C1115.14 336.342 1113.88 337.577 1112.62 338.813C1111.42 339.28 1110.86 340.393 1111.13 341.2C1111.35 341.871 1112.09 342.15 1112.23 342.201V342.909L1111.12 343.924C1111.16 344.201 1111.26 344.653 1111.53 345.135C1111.85 345.69 1112.26 346.024 1112.5 346.193H1112.8L1113.56 347.048C1113.62 347.369 1113.78 347.929 1114.22 348.461C1115.09 349.505 1116.35 349.6 1116.6 349.614C1116.59 349.767 1116.59 350.181 1116.86 350.573C1117.34 351.262 1118.22 351.228 1118.28 351.224C1119.07 351.742 1119.87 352.263 1120.66 352.781C1120.73 353.163 1120.99 354.333 1122.03 355.303C1123 356.196 1124.07 356.401 1124.47 356.456C1126.85 356.756 1128.23 357.588 1129.06 358.316C1129.73 358.91 1130.37 359.732 1131.66 360.118C1132.44 360.353 1133.25 360.361 1133.53 360.363C1134.35 360.367 1135.02 360.239 1135.5 360.118C1136.2 360.6 1137.32 361.263 1138.79 361.707C1140.96 362.361 1141.83 361.913 1145.82 361.933C1149.68 361.952 1150.45 362.378 1152.95 361.905C1154.32 361.645 1155.41 361.265 1156.13 360.982L1156.79 361.706L1156.03 362.448L1155.99 364.773L1156.7 365.124L1156.1 367.048L1157.47 368.003L1153 376.31C1152.57 377.924 1151.96 380.374 1151.41 383.394C1150.16 390.332 1150.15 395.304 1149.96 400.132C1149.79 404.494 1149.39 410.773 1148.36 418.538C1147.59 421.651 1146.92 425.615 1146.89 430.222C1146.88 433.042 1147.1 435.591 1147.43 437.802C1146.96 441.18 1146.63 444.849 1146.51 448.775C1146.46 450.442 1146.45 452.061 1146.48 453.627C1146.16 455.815 1145.95 458.546 1146.16 461.667C1146.4 465.497 1147.18 468.705 1147.96 471.113C1148.04 472.061 1148.14 473.538 1148.23 475.358C1148.37 478.322 1148.31 479.078 1148.6 480.259C1148.89 481.414 1149.55 483.078 1151.25 484.899L1152.73 488.382L1152.49 492.579L1154.62 494.188L1152 494.602C1151.68 495.062 1151.33 495.686 1151.09 496.477C1150.51 498.378 1150.92 500.036 1151.16 500.772L1152.13 501.982L1152.08 504.054C1152 504.183 1151.74 504.601 1151.79 505.167C1151.86 505.988 1152.51 506.424 1152.6 506.478C1152.22 507.307 1151.72 508.261 1151.04 509.264C1150.45 510.145 1149.84 510.886 1149.28 511.495C1148.05 512.669 1146.63 513.89 1145 515.102C1142.02 517.326 1139.13 518.929 1136.63 520.089C1136.11 520.323 1133.63 521.487 1132.8 524.147C1132.53 525.021 1132.51 525.821 1132.56 526.423L1132.67 528.698C1135.51 529.243 1139.74 529.723 1144.8 529.055C1150.13 528.352 1154.28 526.651 1156.92 525.317C1161.21 523.614 1163.54 523.05 1164.9 522.898C1165.26 522.858 1166.35 522.759 1167.42 522.041C1168.17 521.542 1168.64 520.921 1168.93 520.469L1168.87 518.598C1169.34 517.536 1169.95 515.755 1169.97 513.487C1169.99 510.318 1168.84 507.957 1168.22 506.873L1168.92 503.331L1168.61 503.029L1168.81 502.016L1170.98 500.947L1171.87 497.101C1171.46 496.742 1170.84 496.29 1170 495.947C1169.49 495.74 1169.02 495.618 1168.63 495.548C1168.67 495.261 1168.7 494.974 1168.73 494.688L1170.7 493.719L1170.69 491.848C1171.93 491.389 1173.67 490.644 1175.58 489.453C1177.14 488.489 1178.09 487.898 1178.96 486.863C1179.71 485.968 1180.45 484.696 1181.16 480.282C1181.48 478.269 1181.81 475.553 1181.89 472.292C1181.48 471.474 1180.88 470.139 1180.46 468.405C1179.97 466.437 1180.07 465.414 1179.68 463.252C1179.48 462.168 1179.12 460.554 1178.4 458.607C1179.02 456.674 1179.62 454.193 1179.89 451.271C1180.2 447.77 1179.93 444.772 1179.55 442.527C1180.11 439.406 1180.67 436.288 1181.23 433.168L1183.98 437.807C1184.63 440.546 1185.53 443.615 1186.79 446.895C1187.8 449.499 1188.88 451.838 1189.95 453.908C1190.14 455.865 1190.49 458.119 1191.09 460.576C1191.71 463.091 1192.48 465.29 1193.24 467.14C1193.08 468.69 1193.02 470.739 1193.36 473.105C1193.68 475.299 1194.25 477.126 1194.8 478.508L1193.87 485.944C1193.7 486.439 1193.42 487.522 1193.73 488.825C1194.2 490.826 1195.7 491.865 1196.06 492.101C1198.41 493.557 1200.76 495.014 1203.11 496.471L1205.22 494.693C1205.27 494.644 1205.47 494.458 1205.78 494.439C1206.15 494.416 1206.4 494.651 1206.44 494.689L1207.32 499.337L1210.06 499.325L1210.66 501.699L1207.54 503.733L1208.31 506.814L1210.13 507.615L1210.23 508.525C1210.18 508.745 1210.14 509.024 1210.19 509.334C1210.37 510.473 1211.58 510.996 1211.71 511.047C1211.58 511.282 1211.44 511.52 1211.31 511.755L1212.33 513.37C1212.13 515.204 1212.07 517.542 1212.51 520.193C1212.71 521.403 1212.98 522.501 1213.28 523.477L1214.19 524.991C1213.97 526.854 1213.85 528.977 1213.96 531.311C1214.01 532.247 1214.09 533.142 1214.19 533.989V535.656C1214.81 536.175 1218.79 539.426 1224.35 538.6C1228.94 537.918 1231.62 534.908 1232.27 534.122V531.19C1232.26 530.43 1232.17 529.433 1231.85 528.31C1231.41 526.795 1230.74 525.661 1230.22 524.93C1230.04 522.867 1229.62 520.256 1228.67 517.354C1227.86 514.898 1226.88 512.855 1225.97 511.248C1225.98 509.951 1225.99 508.654 1226 507.355L1225.15 507.915L1225.9 506.952L1225.89 505.386L1225.33 504.478L1226.75 503.41L1226.07 499.268L1222.69 499.686L1222.22 497.008L1224.44 496.14L1223.72 491.493C1223.95 491.417 1224.45 491.218 1224.88 490.73C1225.22 490.342 1225.36 489.945 1225.43 489.717C1226.72 489.638 1228.9 489.284 1230.76 487.738C1231.53 487.106 1232.17 486.162 1233.45 484.278C1234.13 483.275 1234.46 482.668 1234.6 481.847C1234.77 480.848 1234.56 479.996 1234.39 479.471C1233.61 477.98 1232.34 475.607 1230.62 472.763C1227.8 468.095 1226.37 466.437 1224.27 462.728C1223.19 460.831 1221.67 457.939 1220.19 454.15C1220.09 451.605 1220 449.062 1219.9 446.517L1212.8 426.021C1212.55 424.682 1212.35 423.193 1212.22 421.575C1212.12 420.183 1212.09 418.88 1212.11 417.684C1210.93 412.195 1209.74 406.706 1208.56 401.218C1208.08 399.298 1207.69 397.116 1207.47 394.702C1207.38 393.644 1207.32 392.628 1207.31 391.661C1207.25 388.07 1206.69 382.481 1203.96 376.365C1202.47 373.025 1200.71 370.36 1199.13 368.347L1199.28 366.881C1199.36 366.75 1199.56 366.378 1199.52 365.869C1199.49 365.371 1199.26 365.033 1199.17 364.909C1199.2 363.544 1199.22 362.18 1199.25 360.815L1199.25 360.057C1199.74 359.905 1200.04 359.47 1200 359.043C1199.97 358.612 1199.6 358.369 1199.55 358.336C1199.61 357.949 1199.68 357.562 1199.74 357.172C1199.87 357.119 1200.23 356.954 1200.45 356.563C1200.7 356.105 1200.65 355.522 1200.34 355.047C1200.92 355.095 1201.38 354.648 1201.38 354.189C1201.37 353.835 1201.1 353.492 1200.69 353.378C1201.03 353.089 1201.36 352.802 1201.7 352.514C1201.75 352.514 1202.54 352.485 1202.96 351.801C1203.25 351.325 1203.25 350.719 1202.95 350.235C1203.48 349.646 1204.18 348.966 1205.07 348.305C1205.81 347.756 1206.52 347.344 1207.14 347.033C1207.47 348.432 1208.07 350.261 1209.23 352.181C1209.78 353.087 1210.36 353.858 1210.91 354.5C1210.87 355.218 1210.78 358.899 1213.56 361.82C1215.33 363.673 1217.39 364.307 1218.33 364.532C1220.21 364.946 1223.32 365.358 1226.97 364.549C1228.88 364.127 1230.46 363.477 1231.67 362.862C1232.19 362.881 1234.26 362.896 1236.01 361.379C1237.03 360.492 1237.5 359.465 1237.72 358.895C1238.31 358.686 1240.47 357.848 1241.75 355.543C1242.57 354.065 1242.65 352.662 1242.65 351.95C1243.22 351.121 1243.79 350.293 1244.35 349.465L1246.72 346.928C1246.93 346.799 1247.34 346.503 1247.63 345.963C1247.85 345.557 1247.91 345.179 1247.93 344.951C1247.66 344.767 1247.39 344.583 1247.12 344.398C1247.36 344.144 1247.62 343.825 1247.87 343.436C1248.37 342.653 1248.6 341.901 1248.72 341.36C1248.23 340.788 1247.74 340.218 1247.25 339.647C1245.92 338.534 1244.92 337.586 1244.26 336.929C1243.37 336.057 1242.57 335.197 1241.26 334.817C1240.6 334.623 1240.17 334.658 1239.8 334.823C1239.19 335.1 1238.93 335.683 1238.84 335.888L1236.41 334.483C1236.3 334.413 1235.99 334.221 1235.55 334.234C1235.1 334.247 1234.79 334.464 1234.69 334.54C1233.79 335.875 1232.88 337.21 1231.98 338.543C1231.93 338.999 1232.06 339.29 1232.14 339.423C1232.51 340.061 1233.45 340.361 1234.46 340.101C1234.27 340.444 1234.06 340.904 1233.91 341.468C1233.7 342.241 1233.69 342.917 1233.71 343.39C1233.52 343.538 1233.06 343.926 1232.81 344.607C1232.51 345.407 1232.7 346.102 1232.76 346.326C1231.79 346.315 1230.81 346.305 1229.83 346.294C1229.3 345.977 1228.44 345.547 1227.3 345.337C1226.25 345.143 1225.36 345.207 1224.77 345.297C1224.89 344.824 1225 344.353 1225.12 343.88C1225.36 342.636 1225.56 340.932 1225.4 338.925C1225.22 336.555 1224.6 334.654 1224.07 333.37C1224.42 332.53 1224.77 331.494 1225.02 330.282C1225.18 329.473 1225.27 328.723 1225.31 328.056C1225.77 327.519 1226.3 326.778 1226.77 325.826C1227.13 325.078 1227.37 324.381 1227.52 323.802C1227.7 323.044 1227.87 322.252 1228.01 321.424C1228.49 318.746 1228.63 316.274 1228.59 314.091C1226.46 312.625 1224.01 311.1 1221.24 309.621C1218.44 308.122 1215.77 306.924 1213.34 305.961C1212.99 305.659 1212.63 305.357 1212.28 305.055L1210.06 304.531L1210.05 304.533Z" fill="black" fill-opacity="0.9"/>
<path d="M412.188 303.569C413.537 301.329 415.622 298.398 418.749 295.587C428.351 286.955 444.93 282.005 459.475 288.614C476.687 296.433 480.151 315.486 480.867 319.421C485.391 344.302 467.188 365.765 459.475 368.077C458.839 368.27 455.938 369.03 452.512 371.012C449.364 372.832 446.849 374.287 445.47 376.874C443.006 381.488 446.746 385.093 445.817 392.541C445.322 396.511 443.76 399.552 442.666 401.338C430.859 383.569 422.84 375.508 418.611 377.16C416.767 377.879 415.646 380.445 415.24 384.856C415.419 386.483 415.491 388.74 415.016 391.358C414.428 394.602 413.241 397.086 412.326 398.665C412.281 400.784 412.233 402.907 412.188 405.026C412.89 405.955 413.692 406.939 414.614 407.943C415.739 409.172 416.847 410.224 417.885 411.126C418.677 412.213 419.843 414.095 420.479 416.699C421.033 418.969 420.975 420.913 420.837 422.179C423.036 427.924 425.237 433.666 427.436 439.412C428.523 439.862 429.72 440.309 431.02 440.715C432.586 441.207 434.058 441.572 435.407 441.84L438.427 448.274C438.482 448.48 438.582 448.969 438.372 449.502C437.956 450.558 436.731 450.758 436.669 450.765C436.57 451.683 436.473 452.602 436.374 453.52L436.105 453.754C438.231 457.876 440.351 462.09 442.453 466.404C445.917 473.505 449.154 480.482 452.182 487.317C448.827 480.661 445.219 473.842 441.331 466.899C439.016 462.768 436.694 458.743 434.364 454.831C433.952 454.563 433.539 454.294 433.126 454.026C432.765 454.029 432.407 454.033 432.046 454.04L431.719 455.467L431.918 456.138C434.733 462.042 437.547 467.942 440.364 473.845C443.309 480.024 446.258 486.199 449.202 492.378C445.762 486.987 442.27 481.142 438.823 474.836C435.283 468.365 432.176 462.114 429.441 456.173L428.826 455.873C428.093 456.028 427.36 456.183 426.631 456.341C428.781 461.457 431.223 466.82 434.003 472.366C437.148 478.648 440.364 484.448 443.547 489.767C440.423 484.951 437.265 479.763 434.137 474.203C430.604 467.928 427.498 461.856 424.759 456.073C424.102 456.038 423.442 456.007 422.784 455.973L420.07 453.193L418.106 448.773L416.716 446.688L416.63 443.385L414.717 441.909L414.803 439.301L407.678 428.269C406.385 427.058 404.909 425.42 403.588 423.28C403.037 422.389 402.583 421.522 402.205 420.71C401.778 419.203 401.176 417.518 400.313 415.746C399.969 415.037 399.611 414.377 399.249 413.761C398.582 412.312 397.918 410.864 397.251 409.416L392.386 414.975L391.168 420.535L392.211 422.534L390.821 425.922L396.033 430.439C396.25 431.475 396.628 433.013 397.295 434.808C398.434 437.881 398.919 437.674 399.246 439.212C399.439 440.127 399.435 440.977 397.364 448.174C396.755 450.293 396.869 449.908 396.294 451.549C395.389 454.133 394.55 455.959 394.099 456.954C393.208 458.928 391.956 461.832 390.432 465.792C390.301 469.18 390.171 472.569 390.04 475.958L385.347 492.375L374.142 507.491V511.227L371.624 514.093V516.353L370.32 518.177L369.278 525.388L369.887 534.945L371.624 539.462L368.844 545.716L364.761 546.759L355.988 543.37L350.6 538.853L351.729 534.855L356.16 530.772L355.29 528.773L354.161 531.033L352.162 528.253L353.38 525.474L357.897 515.136L359.115 514.788L361.633 504.103L361.547 502.713L363.367 500.453C363.016 495.265 363.065 490.95 363.192 487.858C363.715 475.005 366.044 470.818 366.759 469.614C368.469 466.734 370.499 464.78 371.885 463.621C372.426 462.276 373.004 460.476 373.32 458.302C373.63 456.18 373.599 454.332 373.471 452.911C372.388 452.392 371.28 451.824 370.152 451.205C366.993 449.468 364.231 447.613 361.847 445.793C361.045 445.511 359.955 445.222 358.647 445.14C357.811 445.088 357.065 445.129 356.442 445.208C353.435 447.163 350.136 449.547 346.727 452.443C343.111 455.516 340.08 458.564 337.572 461.361V462.836C338.023 463.459 338.563 464.422 338.456 465.534C338.315 466.999 337.159 467.532 334.531 470.395C333.537 471.478 332.577 472.535 331.565 474.076C330.709 475.383 330.131 476.563 329.752 477.43C329.491 479.023 329.229 480.616 328.971 482.209C328.115 483.265 327.258 484.321 326.398 485.377C324.244 485.48 322.091 485.584 319.937 485.683C317.825 484.844 315.709 484.005 313.597 483.165C313.514 482.546 313.47 481.72 313.586 480.76C313.693 479.866 313.91 479.123 314.12 478.562C316.696 475.407 319.273 472.249 321.85 469.094L320.113 468.052L317.766 464.749L320.199 460.057C320.36 457.817 320.522 455.581 320.684 453.341C322.669 448.917 325.414 443.791 329.226 438.455C331.593 435.142 333.991 432.276 336.272 429.827C339.137 425.079 342.007 420.328 344.872 415.581C345.801 413.936 346.933 411.487 347.556 408.346C348.385 404.159 347.924 400.65 347.48 398.551C346.661 397.471 345.781 396.167 344.938 394.633C344.078 393.068 343.438 391.592 342.963 390.298C342.53 390.738 341.976 391.396 341.494 392.29C340.985 393.236 340.741 394.103 340.617 394.729C339.719 395.104 338.821 395.483 337.923 395.858C336.378 397.777 334.276 400.01 331.5 402.143C326.505 405.982 321.54 407.806 318.203 408.714C312.31 410.702 310.796 412.701 310.556 414.201C310.463 414.779 310.532 415.471 310.036 416.272C309.231 417.583 307.944 417.542 305.939 418.543C305.271 418.877 303.238 419.912 301.783 421.835C300.355 423.72 300.792 424.739 299.437 426.266C298.27 427.584 296.763 428.158 295.7 428.437C295.363 428.293 294.937 428.045 294.871 427.663C294.734 426.834 296.464 426.211 297.665 424.925C298.432 424.102 299.271 422.702 299.433 420.187C298.016 419.114 296.602 418.037 295.184 416.964C295.325 415.925 295.47 414.886 295.611 413.847C294.679 414.064 293.299 414.487 291.827 415.378C289.216 416.957 287.327 419.403 286.515 418.942C286.405 418.88 285.844 418.498 285.909 418.154C285.909 418.154 285.92 418.123 285.93 418.089C286.873 415.127 290.017 413.52 291.885 412.605C294.833 411.16 296.041 411.37 297.421 409.801C298.353 408.738 298.762 407.548 298.958 406.684C298.714 406.306 298.308 405.786 297.665 405.387C296.626 404.747 295.958 405.036 295.178 404.376C294.816 404.073 294.589 403.564 294.152 402.563C293.881 401.94 293.533 401.077 293.196 400.01C293.096 399.528 293.344 399.067 293.739 398.909C294.039 398.792 294.39 398.861 294.658 399.078C296.048 400.148 297.438 401.221 298.828 402.291L302.564 402.377C303.596 402.828 304.628 403.282 305.66 403.732C307.79 402.642 310.514 400.98 313.308 398.496C316.167 395.951 318.166 393.37 319.504 391.344C320.98 389.896 322.459 388.447 323.935 386.999L333.492 383.001C333.554 382.213 333.702 381.212 334.049 380.094C334.417 378.918 334.896 377.968 335.315 377.266C335.735 373.424 336.155 369.581 336.574 365.738C336.791 364.541 337.008 363.347 337.228 362.15C337.228 362.119 337.183 361.61 336.808 361.42C336.43 361.231 335.845 361.431 335.58 361.974C332.456 363.887 328.596 366.677 324.754 370.651C321.909 373.592 319.745 376.489 318.121 379C318.757 367.919 316.734 360.172 314.646 355.025C313.576 352.386 312.245 349.823 311.457 345.667C310.225 339.172 311.216 333.475 312.3 329.57C313.318 327.32 312.544 324.678 310.559 323.385C308.729 322.194 306.245 322.401 304.569 323.925C304.8 321.664 305.034 319.408 305.264 317.147C302.553 309.758 298.924 305.196 295.993 302.344C292.986 299.42 290.32 297.909 287.595 293.54C286.147 291.218 284.017 287.798 284.241 283.787C284.575 277.828 289.924 273.765 292.064 272.142C306.558 261.14 339.929 262.306 356.937 282.029C361.375 287.176 363.739 292.474 365.029 296.124C364.066 294.885 362.624 293.286 360.591 291.782C359.225 290.767 352.255 285.597 348.674 288.125C346.073 289.959 346.661 294.858 346.785 295.776C351.591 298.962 356.397 302.148 361.207 305.333C369.501 310.332 377.796 315.334 386.09 320.333C391.017 320.901 429.046 324.988 434.268 311.801C435.427 308.877 435.242 304.339 432.778 301.652C429.008 297.541 420.211 297.51 412.192 303.562L412.188 303.569Z" fill="black" fill-opacity="0.9"/>
<path d="M1039.96 306.851C1037.81 303.272 1036.73 301.482 1035.48 299.832C1032.54 295.979 1024.78 287.214 1013.83 276.127C1013.43 275.948 1013.03 275.767 1012.64 275.587L1011.29 273.659C1012.78 273.218 1016 272.046 1018.86 269.022C1022.07 265.62 1022.96 261.853 1023.23 260.332C1022.51 258.368 1021.8 256.406 1021.08 254.442C1020.25 253.191 1018.81 251.369 1016.55 249.754C1013.61 247.656 1010.73 246.937 1009.1 246.659C1009.37 246.81 1012.08 248.421 1012.24 251.356C1012.31 252.536 1011.94 253.484 1011.66 254.033C1011.81 254.378 1012.05 254.845 1012.46 255.319C1012.96 255.902 1013.49 256.253 1013.85 256.454C1014.08 256.419 1016.01 256.159 1017.47 257.58C1018.58 258.657 1018.7 260.007 1018.72 260.35C1018.66 260.722 1018.53 261.293 1018.3 261.958C1017.2 265.085 1014.83 266.998 1012.3 268.983C1011.59 269.541 1010.57 270.289 1009.3 271.09C1009.04 271.191 1008.63 271.307 1008.15 271.273C1007.21 271.204 1007 270.642 1005.98 270.39C1005.2 270.2 1004.08 270.222 1003.8 270.765C1003.68 270.993 1003.73 271.264 1003.8 271.458C1002.3 271.051 1001.03 271.316 1000.67 272.014C1000.6 272.154 1000.53 272.375 1000.58 272.709C1000.35 272.668 999.41 272.531 998.502 273.114C997.881 273.515 997.584 274.057 997.466 274.307C997.173 274.215 995.792 273.81 994.418 274.553C993.697 274.943 993.273 275.487 993.062 275.811C992.56 275.645 991.877 275.352 991.175 274.828C990.115 274.038 989.527 273.114 989.232 272.556V271.068L992.855 273.284L990.751 267.594H997.442L990.63 262.044C990.768 261.827 990.925 261.616 991.106 261.416C992.581 259.77 994.832 259.607 995.775 259.596C992.631 258.502 989.489 257.406 986.347 256.311L989.894 250.947L981.968 252.265L980.695 243.499C980.179 244.794 979.382 246.422 978.137 248.117C977.23 249.353 976.3 250.337 975.473 251.102C974.9 250.118 974.224 249.069 973.429 247.988C972.201 246.319 970.95 244.927 969.794 243.788C968.962 246.319 968.129 248.849 967.298 251.38L957.867 247.55L960.567 253.983L951.602 255.108C952.78 256.557 953.958 258.006 955.136 259.456C953.342 260.834 951.546 262.212 949.752 263.591L954.415 264.711C954.107 265.428 953.799 266.143 953.491 266.86C954.412 266.918 955.334 266.976 956.256 267.034L956.116 269.016L939.748 265.462L940.231 261.991C940.664 261.263 940.569 260.347 940.024 259.762C939.404 259.098 938.327 258.999 937.545 259.574C937.315 259.716 937.082 259.859 936.852 260.003C935.807 258.963 934.567 258.497 933.677 258.894C933.509 258.969 933.32 259.09 933.132 259.292C931.375 258.304 929.755 258.006 929.071 258.683C928.974 258.777 928.887 258.9 928.821 259.062C928.013 258.261 926.997 258.004 926.34 258.377C926.202 258.457 925.976 258.622 925.797 258.976C925.552 259.318 925.304 259.66 925.058 260.003C924.565 259.507 923.768 258.734 922.719 257.847C921.345 256.68 920.775 256.363 919.937 255.528C919.323 254.918 918.477 253.94 917.695 252.465C917.818 250.919 918.104 249.717 918.326 248.944C918.91 246.894 920.376 243.164 922.207 240.157C922.403 239.832 922.851 239.113 922.892 238.122C922.905 237.84 922.911 236.853 922.088 235.548C917.075 227.588 909.823 227.134 909.823 227.134C908.557 227.054 906.13 227.082 903.229 228.336C903.63 228.319 905.932 228.245 907.358 229.914C907.724 230.343 907.952 230.795 908.096 231.191C908.245 231.331 908.609 231.631 909.141 231.682C909.843 231.754 910.551 231.362 910.969 230.685C911.348 231.411 911.975 232.449 912.963 233.502C914.477 235.12 915.311 235.137 916.045 236.265C917.208 238.051 916.657 240.344 916.315 241.766C915.994 243.097 915.692 243.319 913.416 247.871C911.999 250.701 911.589 251.668 911.997 252.635C912.244 253.227 912.673 253.518 914.383 254.558C915.664 255.338 917.075 256.18 918.604 257.07C919.433 257.651 920.424 258.467 921.389 259.587C921.987 260.278 922.459 260.953 922.834 261.562C922.276 262.473 921.718 263.384 921.16 264.295L919.377 264.747C918.643 265.785 917.701 266.948 916.517 268.128C914.889 269.746 913.274 270.924 911.921 271.764C910.64 273.274 909.356 274.781 908.073 276.289C907.168 277.053 906.057 278.143 905.014 279.62C904.198 280.775 903.63 281.875 903.229 282.799C902.197 283.928 901.166 285.054 900.132 286.182C899.811 286.68 899.34 287.46 898.853 288.465C898.42 289.363 898.394 289.579 898.067 290.203C897.1 292.058 896.389 291.978 896.223 292.833C895.892 294.543 898.293 297.095 900.475 297.775C900.854 297.894 901.607 298.077 902.46 298.661C903.128 299.119 903.578 299.632 903.854 299.994C906.339 301.734 908.822 303.476 911.307 305.218C913.267 306.351 915.227 307.484 917.187 308.617C917.732 308.809 918.55 309.157 919.403 309.795C920.327 310.488 920.857 311.199 920.994 311.376C921.763 312.36 923.859 314.038 929.491 317.091C930.356 318.838 931.222 320.587 932.088 322.333C932.469 327.005 933.016 331.954 933.781 337.144C934.554 342.386 935.469 347.329 936.464 351.952C936.671 352.39 937.039 353.339 936.871 354.528C936.796 355.06 936.634 355.497 936.479 355.818C935.921 357.517 935.383 359.548 935.017 361.868C934.692 363.92 934.564 365.792 934.543 367.422C934.732 367.889 935.051 368.518 935.59 369.151C936.479 370.194 937.502 370.695 938.075 370.926C938.385 374.426 938.697 377.927 939.007 381.429L940.743 382.067C940.517 382.441 940.3 382.855 940.106 383.307C939.033 385.805 939.214 388.217 939.486 389.703C938.801 391.489 938.129 393.565 937.577 395.904C936.97 398.48 936.638 400.842 936.464 402.897C935.015 407.249 933.636 412.299 932.607 417.976C931.237 425.538 930.826 432.345 930.852 438.055C930.735 437.956 930.619 437.857 930.503 437.758L930.565 441.178C930.298 441.341 930.063 441.522 929.857 441.712C927.259 444.122 928.368 448.957 928.618 449.956C928.058 450.494 927.281 451.326 926.546 452.469C925.272 454.455 924.867 456.223 924.533 457.554C924.04 459.539 923.258 462.363 921.989 466.039C921.289 467.878 920.374 470.689 919.84 474.223C919.519 476.351 919.48 477.792 919.323 481.461C919.222 483.858 919.058 487.444 918.819 491.919C919.306 492.197 920.394 492.914 921.009 494.291C921.076 494.439 921.246 494.846 921.41 495.774C921.563 496.636 921.707 497.917 921.574 499.541C920.906 500.073 920.241 500.605 919.573 501.137C919.444 501.43 918.479 503.7 919.657 505.498C919.84 505.776 920.122 506.116 920.559 506.433L920.628 511.487L919.543 512.383L919.558 516.299L919.515 518.032L920.215 519.566C919.836 520.003 919.343 520.679 918.983 521.603C918.768 522.161 918.653 522.671 918.593 523.091C918.414 523.95 918.236 524.812 918.057 525.671L916.528 527.312L912.197 535.009L910.364 535.315L908.641 538.492L908.648 539.93L907.612 541.173C907.45 541.522 907.287 541.955 907.17 542.463C906.951 543.434 906.998 544.272 907.08 544.843C907.067 546.04 907.355 546.915 907.666 547.524C909.223 550.589 913.857 552.043 919.246 551.188C920.82 550.055 922.803 548.366 924.677 545.963C927.427 542.437 928.717 538.944 929.351 536.678C929.814 536.743 930.274 536.808 930.737 536.87C931.343 536.228 932.008 535.436 932.661 534.484C933.309 533.541 933.806 532.643 934.188 531.852C934.209 530.778 934.231 529.703 934.252 528.628C934.11 528.564 933.97 528.499 933.828 528.434L933.246 519.219C933.841 518.805 934.132 518.112 933.983 517.481C933.841 516.874 933.35 516.561 933.236 516.492C933.58 515.831 933.925 515.17 934.269 514.507L934.084 505.141C934.493 504.566 935.146 503.461 935.262 501.966C935.301 501.441 935.269 500.971 935.206 500.577C934.659 500.002 934.112 499.425 933.565 498.85L934.541 495.178L938.004 493.431L938.331 488.424C938.493 486.82 938.857 484.156 939.789 480.985C941.34 475.718 943.229 473.258 946.274 466.291C947.03 464.56 948.132 461.921 949.317 458.598C949.394 457.375 949.472 456.152 949.549 454.931C952.694 450.294 954.789 446.312 956.097 443.605C959.073 437.447 959.837 434.015 963.365 426.134C965.185 422.064 966.832 418.844 967.888 416.848C969.021 415.063 970.554 414.429 971.25 414.854C971.965 415.291 971.773 416.833 971.753 416.984C971.293 416.997 971.075 417.139 970.961 417.283C970.207 418.246 972.688 421.224 972.91 421.487C972.871 421.78 972.811 422.54 973.216 423.369C973.588 424.134 974.159 424.543 974.409 424.702C974.685 427.362 974.958 430.02 975.234 432.679C975.077 433.011 974.803 433.704 974.844 434.613C974.883 435.451 975.171 436.076 975.348 436.394C975.71 436.459 976.074 436.524 976.438 436.588L976.815 443.971C976.737 444.139 976.627 444.395 976.519 444.716C975.888 446.598 976.121 448.388 976.582 450.225C977.719 454.737 980.461 460.418 980.745 461.004C980.519 462.29 980.34 463.735 980.267 465.318C980.148 467.809 980.321 470.019 980.588 471.858C980.868 475.474 981.145 479.09 981.423 482.708L982.748 491.82L983.168 497.816L987.533 499.285L988.048 504.09L986.913 505.483C986.937 507.036 986.958 508.589 986.982 510.141C987.296 510.454 987.611 510.766 987.925 511.078C987.848 512.086 987.768 513.094 987.69 514.102C988.009 515.306 988.328 516.512 988.647 517.716C988.308 518.013 988.106 518.317 987.979 518.573C987.014 520.511 988.81 522.887 988.914 523.018C988.95 523.927 988.987 524.833 989.024 525.742C989.187 525.895 989.635 526.356 989.723 527.078C989.758 527.379 989.721 527.638 989.676 527.823C989.631 529.21 989.588 530.597 989.543 531.986L989.995 533.37L990.111 537.93C990.436 538.49 990.83 539.093 991.309 539.709C992.267 540.951 993.275 541.886 994.143 542.573C994.358 542.556 994.573 542.539 994.787 542.521C995.534 543.897 996.578 545.554 998.028 547.266C999.417 548.907 1000.81 550.171 1002.01 551.114C1002.92 551.629 1006.27 553.371 1010.65 552.585C1015.18 551.775 1017.75 548.819 1018.4 548.028V544.806C1018.36 544.32 1018.22 543.432 1017.68 542.48C1017.15 541.552 1016.48 540.988 1016.09 540.704C1014.99 539.287 1013.9 537.872 1012.8 536.455L1011.86 536.459L1004.24 526.18C1004.05 525.971 1003.79 525.626 1003.59 525.141C1003.37 524.59 1003.34 524.101 1003.34 523.804C1003.09 523.475 1002.84 523.145 1002.59 522.816L1002.99 522.615L1002.62 518.256L1001.93 517.466L1001.2 510.234C1002.62 507.983 1002.61 505.69 1001.53 504.731C1001.32 504.544 1000.85 504.215 999.942 504.193C999.902 502.474 999.863 500.758 999.822 499.039L1002.99 497.937C1003.21 494.433 1003.41 489.214 1003.18 482.87C1002.97 477.055 1002.54 474.027 1002.24 469.543C1001.89 464.428 1001.71 457.136 1002.5 448.084C1003.82 448.03 1005.14 447.974 1006.46 447.921L1005.18 424.088L1001.91 424.25L1001.81 422.467C1002.21 422.142 1002.52 421.795 1002.76 421.45C1005.24 417.927 1002.13 412.256 1001.76 411.612C1001.75 408.326 1001.74 405.04 1001.73 401.751C1001.95 400.513 1001.52 399.365 1000.67 398.882C1000.22 398.622 999.744 398.611 999.434 398.639C999.225 395.996 999.016 393.354 998.81 390.711C998.631 389.004 998.226 386.803 997.298 384.375C996.669 382.728 995.939 381.341 995.25 380.219C995.678 379.904 996.107 379.588 996.535 379.273L995.474 374.124L995.168 372.093C996.283 371.243 997.599 369.991 998.672 368.214C999.518 366.812 1000.25 365.606 1000.14 363.996C999.994 361.663 998.207 360.147 997.698 359.742C997.375 359.458 996.755 358.827 996.402 357.815C995.95 356.516 996.223 355.394 996.342 354.991C995.911 350.664 995.482 346.338 995.052 342.011C994.834 340.79 994.662 339.431 994.591 337.949C994.436 334.749 994.787 331.967 995.252 329.77C995.975 328.611 996.697 327.453 997.421 326.294C1001.05 325.555 1004.03 324.808 1006.18 324.226C1009.94 323.219 1013.24 322.165 1017.17 320.914C1018.6 320.46 1019.78 320.074 1020.59 319.811C1025.61 319.314 1029.65 318.267 1032.52 317.337C1037.26 315.801 1041.63 314.333 1042.05 311.57C1042.17 310.805 1041.96 310.161 1039.96 306.851ZM956.116 292.686C955.149 293.13 954.819 295.124 955.534 297.657C954.873 297.579 953.958 297.556 952.911 297.782C952.388 297.896 951.931 298.051 951.548 298.211C950.495 297.539 949.689 297.013 949.25 296.724C946.864 295.163 945.884 294.463 944.491 294.506C944.116 294.519 943.814 294.582 943.64 294.625V293.886C942.753 293.97 941.833 294.082 940.881 294.228C938.643 294.573 936.6 295.051 934.769 295.585C934.704 295.366 934.36 294.265 933.32 293.789C932.148 293.253 930.563 293.724 929.613 295.04C928.819 294.116 927.718 293.031 926.247 292.03C923.387 290.085 920.564 289.441 918.869 289.2C919.495 288.551 920.174 287.765 920.839 286.826C921.77 285.515 922.422 284.259 922.885 283.197C923.071 282.803 923.333 282.343 923.706 281.867C924.382 281.005 925.132 280.465 925.668 280.146C927.673 278.718 929.374 277.505 930.916 276.45C931.586 275.991 932.671 275.261 932.941 273.995C933.044 273.51 932.999 273.084 932.943 272.795C934.142 272.875 934.931 272.931 935.439 272.97C936.255 273.028 936.735 273.067 937.308 272.823C937.496 272.744 937.918 272.539 938.267 272.132C939.15 271.109 938.824 269.679 938.777 269.492C938.779 269.457 938.835 268.824 939.408 268.527C939.996 268.221 940.56 268.566 940.582 268.581L955.478 273.373C955.565 273.836 955.651 274.297 955.735 274.76C955.737 275.311 955.737 275.862 955.737 276.411C955.203 277.107 954.462 278.283 954.143 279.887C953.424 283.51 955.444 286.37 955.86 286.934C955.694 287.259 955.528 287.656 955.403 288.123C955.108 289.228 955.192 290.193 955.3 290.798C955.384 290.684 955.709 290.268 956.29 290.154C956.607 290.091 956.872 290.143 957.023 290.186C957.135 291.045 957.249 291.905 957.363 292.764C956.702 292.497 956.316 292.596 956.116 292.686ZM1009.96 300.806C1007.48 301.407 1005.65 302.475 1004.55 303.246C1004.49 303.093 1003.67 301.099 1001.54 300.646C999.955 300.308 998.286 300.959 997.291 302.307C995.388 301.818 992.689 301.342 989.452 301.467C986.605 301.577 984.234 302.117 982.492 302.653C982.179 302.389 981.723 302.057 981.111 301.798C980.717 301.633 980.353 301.536 980.051 301.478C979.771 301.124 979.575 300.778 979.438 300.463C978.434 298.2 979.563 295.826 979.875 295.217C980.278 294.894 980.564 294.909 980.676 294.926C981.298 295.023 981.843 296.007 981.785 297.403C981.858 295.437 981.932 293.47 982.005 291.504C982.894 290.858 984.363 289.615 985.528 287.587C986.586 285.75 986.954 284.04 987.098 282.984C987.062 282.879 986.891 282.42 986.403 282.175C985.733 281.834 985.074 282.205 985.024 282.233C985.311 281.554 985.599 280.876 985.886 280.197C986.271 280.417 986.519 280.385 986.642 280.348C987.249 280.169 987.637 279.063 987.423 277.581C987.391 277.458 987.395 277.361 987.441 277.288C987.744 276.803 989.803 277.409 993.622 279.103C993.546 279.646 993.507 280.536 993.843 281.535C993.975 281.925 994.563 283.51 996.059 284.317C996.654 284.638 996.708 284.468 997.679 284.897C998.922 285.442 999.245 285.898 999.839 286.142C1000.58 286.443 1001.78 286.437 1003.8 285.063C1003.46 285.67 1003.09 286.57 1003.34 287.477C1003.62 288.448 1004.48 288.976 1004.85 289.219C1006.74 290.442 1007.89 292.521 1009.45 294.134C1010.8 295.538 1012.68 297.601 1014.89 300.401C1013.68 300.312 1011.95 300.325 1009.96 300.806Z" fill="black" fill-opacity="0.9"/>
<path d="M705.36 526.294C625.57 527.505 481.661 529.773 385.628 531.588C227.186 534.462 205.813 535.067 150.53 539.151C91.5416 543.538 89.5468 543.84 75.0135 549.134C60.4802 554.428 37.3979 569.402 27.424 579.536C24.5743 582.561 22.8645 587.855 23.1495 593.905C23.4345 602.829 23.4345 603.132 26.8541 599.199L30.2737 594.964L37.1129 602.678C40.8175 606.913 44.807 610.695 45.6619 610.997C46.8018 611.3 47.3717 604.342 47.3717 595.418C47.0867 584.074 48.2266 578.175 51.0763 575.452L55.0658 571.671L58.4854 577.116C69.8841 594.51 97.2409 613.115 120.608 619.467C131.152 622.341 132.292 622.341 143.121 620.224C154.234 617.804 154.519 617.804 171.902 622.946C181.591 625.82 206.953 631.87 228.326 636.559L267.081 645.181L317.235 642.004L367.675 638.828L387.337 647.601C422.673 663.483 436.637 667.566 495.91 679.818C550.338 691.162 556.038 691.918 602.202 695.7L650.647 699.481L676.864 712.943C691.112 720.354 705.645 727.161 709.065 728.068C715.049 729.732 715.334 729.581 715.334 721.867C715.334 714.455 716.474 713.094 731.292 703.263C740.126 697.364 747.536 692.523 747.821 692.221C748.391 692.07 774.038 687.078 805.384 681.331L861.807 670.591L899.993 675.28C935.614 679.516 942.453 679.818 994.317 679.818H1050.17L1149.91 658.642L1249.65 637.467L1315.19 610.241C1377.31 584.528 1382.44 582.107 1413.5 561.991C1431.46 550.344 1446.56 540.966 1446.84 541.269C1447.13 541.42 1446.27 550.193 1444.56 560.932C1442.86 571.52 1442.29 580.595 1442.86 581.049C1444.28 581.805 1457.67 563.654 1461.09 555.94L1463.66 550.798L1468.79 560.478L1474.2 570.158L1476.77 563.352C1481.04 551.857 1475.63 534.311 1465.65 528.563C1464.8 528.11 1367.34 527.353 1248.79 526.748C1130.25 526.294 992.037 525.387 941.883 525.084C891.729 524.631 785.436 525.236 705.36 526.294ZM1204.05 527.807C1312.34 528.261 1415.21 529.017 1432.88 529.471C1461.09 530.227 1465.37 530.681 1467.93 533.403C1474.2 539.605 1478.19 558.36 1473.63 560.781C1471.35 561.991 1470.5 561.688 1470.5 559.571C1470.21 557.907 1468.5 554.428 1466.51 552.008L1462.8 547.47L1459.38 554.277C1457.39 558.058 1453.4 564.411 1450.55 568.646L1445.13 576.209L1446.27 567.89C1447.13 563.352 1448.27 554.882 1449.41 549.285L1451.12 539L1460.81 542.327C1466.22 543.991 1470.5 544.899 1470.5 544.143C1470.5 543.538 1461.66 540.664 1451.12 537.941L1432.03 532.798L1402.39 534.462C1365.34 536.58 1292.68 536.58 1241.95 534.614C1208.04 533.252 1195.22 533.403 1146.49 536.126C1111.15 538.092 1074.96 541.269 1049.89 544.445C1011.7 549.285 952.712 554.277 933.334 554.277C928.775 554.277 913.386 551.857 899.423 548.983L874.061 543.689H824.477C783.441 543.689 769.193 543.084 738.417 539.907C704.791 536.429 699.091 536.277 674.869 537.639C656.061 538.849 638.108 538.849 612.746 537.639C582.825 536.277 565.727 536.429 504.459 539C464.563 540.664 401.586 543.084 364.825 544.445C324.645 545.958 283.324 548.378 260.812 550.647L223.766 554.428L177.602 551.857C141.411 549.89 125.168 549.739 102.085 550.949C85.8422 551.705 72.4488 552.31 71.8789 552.008C71.3089 551.857 75.2985 550.193 80.7128 548.378C88.4069 545.958 104.65 544.143 151.1 540.664C205.813 536.58 227.471 535.975 385.628 533.101C677.149 527.807 846.704 525.689 929.06 526.446C972.09 526.748 1096.05 527.353 1204.05 527.807Z" fill="black" fill-opacity="0.9"/>
<path d="M660.987 537.539C660.306 537.357 659.631 537.169 658.95 536.981C659.002 536.838 659.495 535.216 658.457 533.892C657.782 533.029 656.855 532.795 656.563 532.737C654.643 531.952 652.632 531.043 650.543 529.992C647.339 528.383 644.485 526.689 641.975 525.041C638.874 519.408 635.495 512.017 632.984 503.004C629.605 490.869 629.034 480.201 629.241 472.492C628.067 469.449 626.926 466.217 625.856 462.811C624.26 457.723 623.008 452.85 622.035 448.256C623.177 447.516 624.396 446.439 625.337 444.875C627.938 440.572 626.323 436.063 626.024 435.238C624.759 431.695 622.178 429.788 621.205 429.145C617.391 421.326 613.583 412.702 609.983 403.299C605.669 392.021 602.329 381.36 599.715 371.555C599.929 371.71 600.149 371.873 600.383 372.035C602.893 381.463 606.078 391.651 610.126 402.384C613.226 410.586 616.482 418.192 619.765 425.193C621.075 425.167 622.385 425.141 623.695 425.109C624.591 424.778 626.504 424.207 628.917 424.57C630.189 424.765 631.259 425.167 632.102 425.602C630.474 424.415 628.58 422.74 626.841 420.443C625.187 418.25 624.15 416.135 623.494 414.473C623.248 413.487 622.774 411.917 621.814 410.152C620.79 408.27 620.063 407.738 618.143 404.96C616.839 403.079 616.898 402.923 615.464 400.756C614.595 399.445 613.265 397.511 611.455 395.233C610.781 394.091 609.873 392.469 608.887 390.477C605.909 384.423 604.223 378.868 604.521 378.745C604.787 378.634 606.312 382.898 609.989 388.368C611.176 390.133 612.37 391.749 613.551 393.228C614.219 394.137 615.205 395.506 616.34 397.206C620.932 404.104 623.001 408.964 625.375 413.468C627.179 416.881 629.929 421.547 634.042 426.874C634.301 427.218 634.567 427.562 634.839 427.906C636.176 429.463 637.512 431.027 638.848 432.591C639.425 433.175 640.308 433.35 641.066 433.026C641.812 432.701 642.292 431.948 642.279 431.131C642.558 430.469 643.084 429.457 644.037 428.464C645.146 427.322 646.321 426.744 647.021 426.459C648.565 426.348 649.771 426.271 650.569 426.225C651.406 426.173 652.055 426.141 652.119 425.888C652.191 425.576 651.341 425.122 651.114 425.005C650.394 424.622 649.084 424.129 647.021 424.356C645.588 423.143 643.415 421.209 641.008 418.613C634.042 411.099 634.152 407.803 627.639 399.6C624.033 395.058 622.152 393.903 619.356 390.938C617.631 389.114 616.489 387.635 615.516 386.35C613.778 384.066 611.598 380.847 609.496 376.655C610.573 377.012 611.592 377.291 612.539 377.518C609.062 372.658 604.333 364.832 601.401 354.255C597.931 341.75 598.534 331.056 599.384 324.73C600.026 322.66 601.187 319.798 603.36 316.858C604.696 315.048 606.085 313.653 607.298 312.595C611.579 310.246 615.211 308.981 617.598 308.28C623.209 306.625 632.751 304.886 638.939 301.181C639.373 300.921 639.964 300.551 640.424 299.85C642.351 296.976 639.672 292.323 637.453 287.619C635.845 284.192 633.743 279.183 631.875 272.596C630.675 273.907 629.475 275.218 628.275 276.535L623.683 277.515L611.228 263.09C610.748 261.967 609.711 259.982 607.648 258.223C606.149 256.951 604.651 256.27 603.626 255.893C599.929 254.252 596.238 252.603 592.547 250.962C590.75 249.359 588.954 247.75 587.157 246.147C585.237 246.225 583.31 246.296 581.39 246.367L572.231 248.334V250.631C570.402 250.533 567.496 250.644 564.337 251.974C557.448 254.881 554.77 261.292 554.205 262.759C548.062 264.232 542.763 267.84 541.732 272.473C540.22 279.241 547.576 289.28 561.087 290.96C561.327 291.707 561.866 293.011 563.04 294.27C564.078 295.386 565.18 295.996 565.875 296.307C565.68 298.708 565.485 301.109 565.291 303.51C562.469 304.789 559.647 306.073 556.826 307.352C555.068 307.845 552.577 308.818 550.248 310.869C543.995 316.352 544.3 324.723 544.372 326.04C543.885 330.505 542.899 335.878 540.94 341.75C539.786 345.203 538.475 348.278 537.159 350.958C534.661 353.152 531.593 355.494 527.915 357.694C526.125 358.765 524.387 359.68 522.739 360.465C523.939 361.12 525.146 361.776 526.346 362.431L529.297 365.384L519.788 383.417L516.843 389.977L514.877 396.531C514.741 398.212 515.176 399.399 515.474 400.016C516.752 402.728 519.995 404.526 521.429 403.747C521.941 403.468 522.194 402.877 522.551 402.981C523.057 403.124 522.81 404.383 523.446 404.766C523.777 404.973 524.374 404.947 525.515 404.201C526.605 405.226 528.175 405.486 529.407 404.876C530.919 404.13 531.677 402.177 530.977 400.399C530.503 399.652 530.023 398.731 529.66 397.628C529.563 397.336 529.479 397.044 529.407 396.765C529.277 393.488 529.154 390.211 529.024 386.934C532.689 381.1 536.354 375.266 540.019 369.433L543.995 374.475C543.288 375.266 542.581 376.065 541.874 376.863C544.437 376.24 547.005 375.623 549.567 375L551.423 377.395L546.382 385.883L545.591 393.046C545.195 393.695 544.8 394.338 544.404 394.987C543.918 397.44 543.425 399.886 542.938 402.339L537.898 413.487C536.335 419.781 534.772 426.076 533.208 432.377C532.391 432.928 530.004 434.706 529.024 437.99C528.862 438.541 527.604 443.019 530.348 446.516C532.086 448.729 534.538 449.411 535.751 449.748C537.678 450.287 539.358 450.228 540.415 450.111C538.164 456.568 535.907 463.025 533.649 469.481C533.857 477.19 533.286 487.858 529.907 499.993C527.396 509.006 524.017 516.397 520.916 522.03C518.406 523.678 515.552 525.372 512.348 526.981C510.259 528.032 508.248 528.941 506.328 529.726C506.036 529.784 505.109 530.018 504.434 530.881C503.396 532.205 503.889 533.827 503.941 533.97C503.26 534.158 502.585 534.346 501.904 534.528C501.878 535.845 501.846 537.169 501.813 538.486H521.189C527.76 537.117 534.33 535.754 540.901 534.385C540.856 533.438 540.804 532.49 540.752 531.536C539.539 531.556 538.32 531.569 537.107 531.582C537.418 530.777 537.911 529.187 537.697 527.169C537.528 525.56 536.971 524.333 536.575 523.62C536.328 522.718 536.108 521.653 535.998 520.459C535.783 518.208 536.017 516.287 536.309 514.866C541.349 501.771 546.389 488.676 551.429 475.587C551.533 470.98 551.935 465.886 552.824 460.429C553.193 458.171 553.621 456.016 554.082 453.959C559.07 454.602 563.98 452.506 566.77 448.509C570.402 443.311 568.625 437.51 568.411 436.841C568.742 434.22 569.248 431.313 570.013 428.191C570.791 424.992 571.712 422.111 572.653 419.587C573.645 410.21 574.943 403.468 575.676 403.351C576.714 403.182 577.531 403.617 577.531 403.617C578.076 403.909 578.406 404.337 578.588 404.623C582.889 417.218 587.189 429.814 591.49 442.415C591.866 451.085 596.18 456.769 600.188 456.899C600.629 456.912 601.92 456.886 603.607 455.711H603.613C606.227 463.343 608.848 470.967 611.468 478.598C616.508 491.687 621.548 504.782 626.588 517.877C626.88 519.298 627.114 521.219 626.9 523.47C626.79 524.664 626.569 525.729 626.323 526.631C625.927 527.344 625.369 528.571 625.2 530.18C624.986 532.198 625.479 533.788 625.791 534.593C624.578 534.58 623.358 534.567 622.145 534.547C622.093 535.501 622.041 536.449 621.996 537.396C628.567 538.765 635.138 540.128 641.709 541.497H661.077C661.045 540.18 661.013 538.856 660.987 537.539ZM552.324 358.907C550.962 361.536 549.418 363.56 548.114 365.02C549.626 362.061 551.17 358.577 552.525 354.599C553.647 351.315 554.458 348.233 555.048 345.449C555.107 347.058 555.172 348.674 555.23 350.29C554.841 352.503 554.05 355.579 552.324 358.907ZM595.129 294.718C594.247 294.867 592.897 295.204 591.438 296.035C590.063 296.82 589.116 297.748 588.545 298.403H584.458V300.253H579.587C579.282 300.091 578.51 299.63 578.004 298.669C577.446 297.618 577.557 296.625 577.609 296.294C578.445 296.002 579.665 295.464 580.904 294.452C582.512 293.134 583.375 291.648 583.803 290.759C584.718 290.863 595.771 291.947 601.343 284.367C602.251 283.135 605.436 278.806 603.821 274.024C602.504 270.117 598.463 267.314 593.546 266.912C592.8 264.537 592.054 262.168 591.308 259.793C592.677 260.287 594.513 261.195 596.05 262.96C596.608 263.596 596.75 263.914 597.12 264.316C598.164 265.439 600.273 266.432 605.008 265.724C607.213 268.378 609.594 271.616 611.858 275.477C613.466 278.216 614.764 280.837 615.808 283.251C614.978 283.783 614.024 284.471 613.045 285.36C612.13 286.184 611.391 287.002 610.807 287.729C614.271 289.358 617.741 290.98 621.211 292.609C617.527 293.258 613.525 293.809 609.224 294.185C604.152 294.633 599.429 294.769 595.129 294.718Z" fill="black" fill-opacity="0.9"/>
</svg>
