<svg width="1103" height="660" viewBox="0 0 1103 660" fill="none" xmlns="http://www.w3.org/2000/svg">
<path d="M662.915 371.59C659.504 366.655 656.136 361.259 647.05 344.412C641.056 333.293 638.06 327.732 635.508 322.522C631.253 313.838 625.822 301.885 620.358 287.077C621.024 286.461 621.691 285.849 622.36 285.233L620.96 284.803C620.97 284.531 621.05 283.339 622.025 282.363C623.067 281.32 624.364 281.294 624.613 281.294C624.613 280.818 624.605 280.141 624.562 279.328C624.482 277.77 624.441 276.993 624.243 276.498C623.6 274.889 621.22 274.382 620.091 274.217C620.101 275.072 619.653 275.85 618.951 276.182C618.033 276.617 616.811 276.236 616.211 275.214C615.975 274.575 615.741 273.934 615.504 273.296L616.806 271.37C616.903 271.349 617.04 271.316 617.194 271.257C617.433 271.169 617.806 271.028 618.004 270.75C618.074 270.652 618.161 270.482 618.112 269.712C618.092 269.385 618.046 268.932 617.93 268.397C617.832 268.129 617.696 267.714 617.598 267.192C617.351 265.856 617.636 265.279 617.392 264.532C617.233 264.038 616.816 263.389 615.64 262.815C615.26 262.143 614.552 261.098 613.343 260.176C612.471 259.51 611.625 259.126 610.999 258.902C610.56 258.148 610.12 257.391 609.68 256.636C610.215 256.387 611.007 255.934 611.756 255.138C612.255 254.605 612.589 254.075 612.81 253.655C612.651 251.825 612.373 250.309 612.124 249.191C611.218 245.124 610.181 244.001 609.597 243.486C609.142 243.085 608.707 242.825 608.404 242.668C608.751 242.068 609.23 241.19 609.742 240.088C610.184 239.128 610.408 238.639 610.482 238.119C610.688 236.672 610.076 235.469 609.772 234.89C609.17 233.745 608.628 233.474 607.792 232.478C607.118 231.68 606.269 230.429 605.646 228.529C605.682 227.594 605.71 226.176 605.626 224.443C605.507 221.995 605.265 220.965 605.788 220.651C606.474 220.242 607.897 221.416 608.959 222.293C610.431 223.509 611.437 224.765 612.093 225.71C612.028 224.036 611.776 221.809 611.012 219.297C610.282 216.895 609.309 214.979 608.468 213.584C608.998 213.576 609.698 213.62 610.493 213.818C611.45 214.055 612.193 214.429 612.702 214.735C610.719 210.23 608.039 207.31 606.395 207.212C605.278 207.145 603.923 207.364 603.923 207.364C603.218 207.48 602.644 207.635 602.248 207.756C602.361 206.852 602.474 205.951 602.587 205.047L601.71 204.265C602.039 204.072 602.582 203.683 602.755 203.037C602.845 202.692 602.793 202.403 602.765 202.244C602.605 201.343 602.423 200.285 602.214 199.111C601.764 196.747 600.995 192.937 599.994 189.075C599.814 188.383 599.552 187.4 598.793 186.385C597.643 184.848 596.143 184.284 594.214 183.507C592.634 182.871 590.293 181.903 587.307 180.564L586.077 178.211L584.418 178.216L577.59 173.266L576.605 166.456V165.671C576.806 165.671 577.009 165.671 577.212 165.671C577.279 166.755 577.346 167.836 577.413 168.92C577.403 169.118 577.542 169.293 577.735 169.327C577.922 169.358 578.11 169.247 578.169 169.062C578.195 169.1 578.288 169.221 578.432 169.237C578.622 169.257 578.838 169.085 578.895 168.807C578.918 168.825 579.07 168.951 579.275 168.912C579.419 168.887 579.507 168.797 579.533 168.766C579.304 167.247 579.072 165.73 578.841 164.214C578.967 163.869 579.137 163.377 579.317 162.775C579.924 160.739 579.8 160.203 579.705 159.928C579.612 159.665 579.414 159.261 578.933 158.852V157.194H579.798L578.933 156.321L580.317 155.791L578.933 154.66H579.625L578.933 152.652V151.952L578.028 150.994L579.769 149.591H578.028L578.54 147.588L576.883 148.379L575.738 145.24V147.336L572.764 144.028L573.207 145.598C572.919 145.238 572.474 144.767 571.838 144.342C570.974 143.765 570.146 143.534 569.621 143.431V144.563L566.215 142.743L567.27 144.749C566.593 144.507 565.793 144.27 564.882 144.095C563.738 143.876 562.709 143.809 561.857 143.809C562.382 144.185 562.907 144.561 563.431 144.939C562.757 145.266 561.811 145.632 560.638 145.812C559.915 145.923 559.264 145.941 558.721 145.918C558.986 146.353 559.249 146.788 559.514 147.225L557.247 148.018L558.559 148.626L554.556 151.61L557.347 151.599L555.174 153.53L556.221 153.525C555.845 153.885 555.467 154.243 555.091 154.604C555.482 154.81 555.871 155.018 556.262 155.227C556.154 155.608 555.994 156.053 555.755 156.527C555.374 157.284 554.927 157.85 554.556 158.247C555.233 158.012 555.909 157.778 556.586 157.541L555.284 159.642H556.506L555.992 161.998C556.483 162.224 556.972 162.453 557.463 162.68C557.399 163.115 557.278 164.369 557.993 165.658C559.022 167.515 560.952 167.942 561.25 168.004C561.314 169.577 561.379 171.147 561.443 172.72L559.532 174.911L553.836 168.992C554.114 168.838 554.762 168.428 555.215 167.615C555.683 166.776 555.675 165.985 555.657 165.669C556.12 165.172 556.583 164.675 557.047 164.178L554.68 161.13C554.479 161.014 553.972 160.754 553.311 160.816C552.21 160.916 551.619 161.807 551.541 161.928C550.788 162.512 550.031 163.099 549.278 163.684L548.928 163.511L550.492 161.583C550.577 161.501 550.963 161.112 550.978 160.499C550.986 160.09 550.824 159.789 550.746 159.66C549.566 158.862 548.385 158.064 547.204 157.263C547.011 156.468 546.818 155.67 546.625 154.871C546.507 154.75 546.265 154.539 545.9 154.426C545.282 154.236 544.755 154.465 544.616 154.532C544.57 154.066 544.413 153.18 543.839 152.938C543.785 152.915 543.672 152.876 542.97 152.853C542.535 152.838 542.177 152.84 541.936 152.845C541.848 152.539 541.761 152.233 541.676 151.926C541.578 151.764 541.467 151.651 541.37 151.571C540.655 150.984 539.584 151.36 539.456 151.406C538.702 151.731 537.946 152.052 537.192 152.377L528.692 143.935C528.891 143.58 528.826 143.147 528.554 142.9C528.34 142.702 528.021 142.643 527.73 142.741C526.3 141.546 524.87 140.349 523.439 139.152C523.262 139.098 521.86 138.683 520.733 139.507C519.601 140.336 519.21 142.077 519.964 143.619C521.16 144.692 522.359 145.766 523.555 146.837C523.46 147.084 523.529 147.364 523.728 147.537C523.923 147.704 524.201 147.738 524.43 147.619C527.419 150.621 530.406 153.623 533.392 156.625C532.824 157.235 532.014 158.249 531.414 159.688C530.725 161.346 530.622 162.824 530.63 163.704C530.2 163.923 529.737 164.204 529.264 164.567C527.764 165.723 526.959 167.134 526.542 168.055C526.189 167.903 525.67 167.726 525.022 167.659C524.422 167.594 523.913 167.646 523.547 167.71C521.96 170.117 520.37 172.527 518.781 174.934C518.752 175.397 518.721 175.863 518.693 176.329C516.463 178.507 514.23 180.685 512 182.866C511.696 183.154 511.254 183.638 510.911 184.333C510.562 185.036 510.474 185.631 510.286 187.436C510.176 188.512 510.088 189.449 510.021 190.208C509.682 192.453 509.34 194.695 509 196.938C509.193 197.391 509.504 197.978 510.011 198.573C510.865 199.571 511.835 200.073 512.403 200.313C514.68 200.385 516.959 200.454 519.239 200.524C518.626 201.531 518.014 202.537 517.404 203.544L534.679 225.136C534.442 225.36 532.855 226.912 533.014 229.244C533.115 230.725 533.866 231.742 534.182 232.125C534.339 232.496 534.692 233.178 535.422 233.709C536.881 234.772 538.594 234.321 538.841 234.252C538.892 234.877 538.946 235.5 538.998 236.123L540.137 237.341C539.718 237.189 539.312 237.447 539.253 237.75C539.193 238.046 539.458 238.43 539.891 238.464C539.893 239.313 539.896 240.16 539.901 241.01C540.696 241.643 541.493 242.276 542.291 242.907C542.311 243.963 542.332 245.015 542.352 246.068C542.347 246.189 542.334 246.784 542.785 247.281C543.155 247.688 543.613 247.786 543.757 247.809C543.76 248.334 543.76 248.857 543.762 249.382L543.772 251.652L544.3 252.698L544.217 254.096L544.657 254.528C543.883 259.682 542.931 265.073 541.763 270.667C540.822 275.175 539.808 279.5 538.746 283.637C537.771 286.577 536.837 289.687 535.967 292.962C534.396 298.888 533.274 304.498 532.477 309.688C531.031 315.238 529.696 321.381 528.633 328.064C527.656 334.22 527.041 340.007 526.678 345.344C527.224 345.797 528.029 346.371 529.101 346.835C530.29 347.344 531.358 347.527 532.098 347.594C531.967 347.908 531.612 348.866 532.055 349.684C532.24 350.029 532.61 350.431 534.126 350.871C535.021 351.131 536.384 351.425 538.136 351.414C537.966 352.869 537.797 354.326 537.629 355.783C537.141 356.88 536.572 357.58 536.14 358.02C535.764 358.402 535.35 358.731 535.27 359.297C535.196 359.838 535.471 360.286 535.592 360.489C536.472 361.929 538.717 362.052 539.049 362.065C538.849 363.056 538.651 364.047 538.45 365.036L539.759 365.468C539.265 368.71 538.769 371.951 538.272 375.192C538.594 376.186 538.344 377.228 537.647 377.821C537.066 378.312 536.374 378.325 536.145 378.32C536.088 378.786 536.032 379.252 535.975 379.718L526.503 390.062C525.047 391.388 523.692 392.142 522.683 392.593C520.81 393.427 519.316 393.579 518.796 394.755C518.493 395.445 518.657 396.194 518.848 396.73C520.494 397.209 522.729 397.682 525.405 397.752C528.348 397.826 530.802 397.384 532.554 396.928C533.735 396.542 535.265 395.893 536.84 394.763C537.627 394.199 538.283 393.615 538.82 393.072C539.474 392.698 540.451 392.158 541.673 391.563C543.667 390.592 544.287 390.458 544.845 389.802C545.334 389.23 545.928 388.085 545.511 385.709C545.473 383.263 545.434 380.817 545.396 378.371L546.44 377.321C546.247 376.786 546.047 376.052 545.982 375.161C545.897 374.013 546.075 373.063 546.245 372.43C546.525 371.472 546.8 370.499 547.073 369.51C547.387 368.372 547.683 367.245 547.966 366.135C548.3 365.986 548.632 365.837 548.966 365.687C548.948 364.874 548.933 364.063 548.915 363.249L551.526 361.581C551.721 361.473 552.503 361.012 552.838 360.023C553.247 358.813 552.648 357.791 552.56 357.645C552.506 357.029 552.498 356.133 552.74 355.093C553.013 353.919 553.491 353.036 553.849 352.488C554.749 351.955 556.244 351.239 558.207 351.015C561.798 350.606 564.527 352.128 565.456 352.704C566.781 353.325 569.109 354.205 572.129 354.303C575.458 354.409 578.041 353.51 579.419 352.913C580.122 352.588 581.004 352.259 582.054 352.038C583.952 351.636 585.586 351.759 586.674 351.937C586.934 353.096 587.196 354.257 587.459 355.415L586.255 359.699L591.33 363.61V365.705C591.572 365.793 591.811 365.88 592.053 365.968C592.369 369.487 592.683 373.009 593 376.528C592.907 376.605 592.238 377.192 592.249 378.165C592.256 379.113 592.905 379.679 593 379.762C592.871 379.818 592.686 379.916 592.493 380.073C591.778 380.663 591.412 381.739 591.639 385.086C591.719 386.272 591.878 387.822 592.218 389.632C592.804 389.696 593.548 389.843 594.361 390.168C595.84 390.755 596.828 391.648 597.376 392.232C598.654 393.352 600.246 394.59 602.171 395.782C604.077 396.967 605.878 397.837 607.437 398.483C611.288 398.728 614.4 398.56 616.566 398.352C619.63 398.058 620.698 397.693 620.958 396.946C621.408 395.643 619.19 393.821 618.851 393.548L612.291 389.992C611.583 389.385 610.534 388.438 609.371 387.166C607.717 385.356 607.138 384.349 605.937 382.964C604.957 381.831 603.447 380.325 601.203 378.827C601.209 378.07 601.126 377.082 600.789 375.98C600.637 375.486 600.457 375.048 600.275 374.667C600.18 371.619 600.084 368.568 599.989 365.52C600.254 365.296 600.517 365.072 600.782 364.848C600.684 363.813 600.586 362.775 600.488 361.741C601.759 360.708 603.03 359.676 604.303 358.646C604.386 358.136 604.458 357.305 604.247 356.321C604.015 355.253 603.555 354.478 603.251 354.043C603.246 352.879 603.241 351.713 603.236 350.549L604.63 349.584C604.566 348.523 604.501 347.46 604.437 346.399C605.631 345.29 606.824 344.18 608.021 343.071C607.357 338.282 606.696 333.494 606.032 328.705L614.462 341.773L616.031 341.765L619.247 338.347C618.105 336.954 616.96 335.561 615.818 334.171C615.705 334.171 615.591 334.171 615.478 334.171C615.488 334.14 615.725 333.409 615.241 332.855C614.902 332.472 614.439 332.433 614.339 332.428C610.943 327.083 607.547 321.742 604.151 316.397L603.166 309.415L617.552 328.311L617.292 329.359L620.958 333.538L623.836 329.158L621.732 326.285L620.42 325.33L615.324 316.791L621.027 324.28L622.684 324.36L624.677 320.683L624.15 319.726L605.561 297.439L608.617 297.516L599.05 260.696L602.626 260.246L603.776 264.169C603.03 266.612 603.161 267.416 603.467 267.655C603.524 267.699 603.735 267.843 603.977 268.103C604.229 268.371 604.391 268.633 604.491 268.816C604.337 269.161 603.755 270.541 604.321 271.324C604.491 271.555 604.887 271.908 604.98 271.99C605.307 272.281 605.602 272.492 605.816 272.634C605.062 273.538 605.132 274.202 605.168 274.413C605.242 274.83 605.631 275.283 606.402 276.174C606.709 276.529 606.968 276.812 607.141 276.995C606.853 277.657 606.217 279.284 606.837 279.879C607.007 280.038 607.195 280.056 608.63 280.357C609.111 280.455 609.5 280.54 609.739 280.592C610.277 281.488 610.266 282.556 609.718 283.285C609.266 283.887 608.602 284.052 608.376 284.098C608.09 284.119 607.804 284.137 607.519 284.157C607.419 284.582 607.082 286.266 608.033 287.991C609.232 290.169 611.501 290.632 611.82 290.691C611.938 290.328 612.353 289.213 613.508 288.477C614.176 288.052 614.825 287.926 615.213 287.882C621.238 304.016 628.986 321.824 639.014 340.571C646.027 353.68 653.245 365.543 660.324 376.181C661.49 377.746 663.352 379.883 666.105 381.847C668.978 383.899 671.723 384.977 673.627 385.562C671.054 382.529 667.183 377.761 662.915 371.59ZM546.448 220.489C546.273 221.233 545.98 221.802 545.756 222.17C545.174 221.632 544.593 221.096 544.012 220.558C543.796 220.067 543.515 219.783 543.289 219.613C542.175 218.782 540.207 219.101 538.406 220.445L522.645 200.465H545.756C545.614 204.563 545.681 208.996 546.065 213.713C546.203 215.412 546.376 217.062 546.576 218.661C546.615 219.093 546.623 219.737 546.448 220.489ZM543.808 177.817L536.788 183.038L533.879 182.539L532.05 184.181L528.736 184.653L530.058 183.167L531.28 182.856L535.288 177.176C535.404 176.893 535.535 176.494 535.589 176C535.656 175.374 535.566 174.854 535.481 174.52C535.121 173.909 534.581 173.14 533.789 172.383C533.269 171.886 532.757 171.505 532.307 171.214C533.187 170.259 534.066 169.304 534.946 168.346L535.198 167.427C535.394 167.435 535.684 167.463 536.014 167.576C536.418 167.715 536.68 167.914 536.747 167.96C537.547 168.524 539.731 168.307 540.76 168.223C541.606 168.15 542.857 168.071 544.431 168.055C544.001 168.513 543.621 168.848 543.345 169.072C542.936 169.409 542.679 169.572 542.607 169.896C542.535 170.218 542.687 170.524 542.81 170.715L541.591 171.842C541.537 171.901 541.074 172.429 541.218 173.129C541.308 173.577 541.596 173.845 541.702 173.935C542.041 174.308 542.383 174.682 542.725 175.055C542.903 175.279 543.559 176.067 544.259 175.966C544.462 175.938 544.704 175.827 544.971 175.709C545.298 175.562 545.555 175.41 545.735 175.297C546.016 175.315 546.427 175.31 546.908 175.192C547.657 175.006 548.151 174.646 548.385 174.471C549.061 173.964 549.447 173.369 549.653 172.985C551.089 174.597 552.521 176.206 553.957 177.817H543.808Z" fill="black" fill-opacity="0.5"/>
<path d="M889.79 223.933C889.241 223.119 888.693 222.303 888.145 221.489C886.968 221.71 885.791 221.932 884.613 222.153C882.271 220.266 880.267 219.908 878.955 219.907C878.855 219.907 878.758 219.908 878.66 219.913C878.636 219.674 878.585 219.305 878.467 218.868C878.265 218.119 878.008 217.695 877.68 216.976C877.498 216.578 877.249 215.987 877.004 215.231C877.906 214.56 878.808 213.888 879.71 213.216C879.867 213.046 880.156 212.683 880.299 212.134C880.454 211.542 880.357 211.049 880.298 210.824L883.262 208.9H881.366C882.241 207.592 883.139 206.09 883.988 204.387C885.414 201.527 886.332 198.85 886.937 196.575C885.799 197.483 884.661 198.389 883.523 199.297C883.657 196.243 883.791 193.187 883.925 190.133C883.238 191.12 882.551 192.109 881.864 193.097C881.393 189.876 880.922 186.657 880.45 183.437L877.937 186.867C877.945 185.74 877.952 184.611 877.96 183.484C877.332 184.367 876.703 185.248 876.075 186.131C875.546 183.754 875.016 181.377 874.486 179C873.081 180.458 871.677 181.916 870.272 183.374C869.306 184.169 868.341 184.962 867.375 185.756L867.43 181.035C866.295 182.104 865.158 183.174 864.023 184.245L864.182 181.486C862.793 182.68 861.093 184.421 859.61 186.828C858.921 187.945 858.394 189.02 857.987 189.996C857.772 189.055 857.558 188.114 857.343 187.171C856.681 188.742 855.612 191.902 856.077 195.874C856.349 198.199 857.059 200.053 857.672 201.315C857.004 200.685 856.309 199.976 855.606 199.184C854.626 198.077 853.8 196.994 853.111 195.99C853.879 198.974 854.648 201.96 855.416 204.945C855.295 206.627 855.302 208.559 855.577 210.669C855.661 211.316 855.764 211.936 855.881 212.526C856.201 211.795 856.519 211.061 856.839 210.33L858.005 213.894C858.268 214.166 858.589 214.459 858.975 214.744C859.711 215.287 860.426 215.614 860.986 215.814C861.201 216.311 861.555 216.973 862.145 217.631C862.478 218.004 862.815 218.295 863.115 218.519C863.269 219.621 863.421 220.723 863.575 221.826C862.805 221.866 861.625 222.02 860.307 222.581C858.887 223.186 857.908 224.007 857.341 224.563C857.124 224.557 856.888 224.569 856.634 224.604C855.655 224.739 854.923 225.176 854.482 225.504C853.423 225.76 852.133 226.163 850.732 226.82C849.368 227.458 848.256 228.169 847.395 228.803C846.195 229.402 844.995 230.001 843.796 230.602C843.49 231.391 843.093 232.726 843.178 234.396C843.31 236.984 844.516 238.798 845.057 239.518C844.984 239.919 844.93 240.488 845.026 241.154C845.085 241.563 845.187 241.912 845.29 242.194C845.192 242.834 845.027 243.891 844.818 245.206C844.428 247.65 844.343 248.089 844.349 248.777C844.356 249.699 844.523 251.086 845.368 252.788C844.569 252.478 843.437 252.15 842.057 252.094C839.358 251.987 837.31 252.989 836.376 253.528C836.048 253.315 835.544 253.041 834.887 252.903C833.6 252.63 832.844 253.115 831.617 253.139C830.917 253.151 829.927 253.017 828.715 252.332V249.73L828.294 249.286L828.479 248.727C828.416 248.317 828.278 247.731 827.952 247.093C827.687 246.574 827.381 246.181 827.13 245.908C826.93 245.723 826.575 245.456 826.086 245.391C825.222 245.275 824.3 245.838 823.788 246.812C823.564 246.652 823.088 246.356 822.411 246.261C821.726 246.164 821.185 246.321 820.925 246.416C819.999 247.324 819.073 248.231 818.147 249.14C817.267 249.484 816.851 250.302 817.048 250.896C817.211 251.389 817.755 251.594 817.859 251.632V252.153L817.047 252.898C817.073 253.102 817.143 253.435 817.347 253.789C817.582 254.197 817.88 254.443 818.056 254.567H818.278L818.838 255.196C818.885 255.432 819.002 255.844 819.326 256.235C819.963 257.003 820.893 257.073 821.076 257.082C821.069 257.196 821.066 257.5 821.264 257.788C821.615 258.295 822.264 258.27 822.307 258.267C822.891 258.648 823.475 259.031 824.059 259.412C824.109 259.693 824.299 260.553 825.07 261.266C825.778 261.923 826.565 262.074 826.857 262.114C828.613 262.335 829.627 262.947 830.234 263.481C830.73 263.918 831.202 264.523 832.146 264.807C832.721 264.98 833.318 264.985 833.521 264.987C834.122 264.99 834.621 264.896 834.97 264.807C835.486 265.161 836.306 265.649 837.391 265.976C838.987 266.456 839.624 266.126 842.558 266.142C845.396 266.156 845.962 266.469 847.8 266.121C848.809 265.929 849.614 265.65 850.139 265.442L850.625 265.974L850.069 266.52L850.038 268.23L850.559 268.488L850.119 269.903L851.126 270.605L847.841 276.713C847.522 277.9 847.073 279.702 846.673 281.922C845.752 287.024 845.744 290.68 845.606 294.23C845.48 297.438 845.187 302.055 844.431 307.765C843.863 310.054 843.371 312.969 843.349 316.357C843.336 318.43 843.501 320.305 843.743 321.93C843.4 324.415 843.155 327.113 843.068 329.999C843.032 331.225 843.025 332.415 843.044 333.567C842.811 335.176 842.659 337.184 842.807 339.479C842.989 342.296 843.561 344.654 844.135 346.425C844.191 347.122 844.269 348.209 844.333 349.546C844.437 351.726 844.391 352.282 844.607 353.151C844.819 354 845.303 355.223 846.554 356.563L847.642 359.124L847.467 362.21L849.033 363.393L847.101 363.697C846.871 364.035 846.614 364.495 846.438 365.076C846.012 366.474 846.314 367.693 846.487 368.235L847.196 369.124L847.166 370.648C847.101 370.743 846.91 371.05 846.946 371.466C846.999 372.07 847.483 372.391 847.545 372.43C847.269 373.04 846.899 373.741 846.402 374.479C845.965 375.127 845.518 375.671 845.107 376.119C844.198 376.983 843.152 377.88 841.958 378.771C839.764 380.407 837.64 381.585 835.802 382.439C835.417 382.611 833.598 383.467 832.988 385.423C832.788 386.066 832.773 386.653 832.809 387.096L832.89 388.769C834.977 389.17 838.092 389.523 841.813 389.032C845.733 388.515 848.779 387.264 850.722 386.283C853.876 385.031 855.591 384.616 856.591 384.504C856.856 384.475 857.653 384.402 858.444 383.874C858.994 383.507 859.343 383.05 859.554 382.718L859.512 381.342C859.852 380.562 860.303 379.252 860.315 377.584C860.333 375.254 859.488 373.518 859.033 372.72L859.543 370.116L859.319 369.894L859.465 369.149L861.06 368.363L861.717 365.535C861.413 365.271 860.955 364.939 860.339 364.686C859.966 364.534 859.623 364.445 859.335 364.393C859.359 364.182 859.382 363.971 859.406 363.76L860.853 363.048L860.847 361.672C861.762 361.334 863.037 360.787 864.446 359.911C865.588 359.202 866.288 358.768 866.929 358.007C867.482 357.349 868.023 356.413 868.546 353.168C868.785 351.687 869.027 349.69 869.081 347.292C868.78 346.69 868.341 345.709 868.03 344.434C867.675 342.987 867.745 342.234 867.457 340.645C867.313 339.848 867.046 338.66 866.514 337.229C866.97 335.807 867.415 333.984 867.609 331.834C867.842 329.26 867.64 327.055 867.361 325.405C867.773 323.11 868.186 320.817 868.598 318.523L870.619 321.934C871.095 323.948 871.758 326.205 872.688 328.617C873.427 330.531 874.223 332.252 875.014 333.774C875.152 335.212 875.405 336.87 875.85 338.677C876.307 340.526 876.87 342.143 877.43 343.504C877.312 344.643 877.269 346.15 877.52 347.89C877.755 349.503 878.175 350.847 878.576 351.863L877.89 357.331C877.769 357.695 877.562 358.491 877.787 359.449C878.132 360.921 879.241 361.685 879.506 361.858C881.232 362.929 882.958 364 884.686 365.072L886.242 363.764C886.277 363.728 886.42 363.591 886.649 363.577C886.925 363.561 887.105 363.734 887.134 363.762L887.779 367.179L889.794 367.171L890.24 368.916L887.941 370.412L888.508 372.677L889.849 373.266L889.926 373.935C889.882 374.097 889.853 374.303 889.891 374.53C890.028 375.368 890.919 375.752 891.011 375.79C890.913 375.963 890.814 376.138 890.716 376.311L891.465 377.498C891.317 378.847 891.275 380.566 891.596 382.516C891.743 383.405 891.942 384.212 892.163 384.93L892.836 386.043C892.67 387.413 892.585 388.974 892.668 390.691C892.702 391.379 892.761 392.037 892.836 392.66V393.886C893.287 394.267 896.217 396.658 900.309 396.051C903.684 395.549 905.649 393.336 906.132 392.758V390.601C906.124 390.043 906.056 389.31 905.818 388.484C905.498 387.37 905.001 386.536 904.619 385.998C904.489 384.482 904.181 382.562 903.482 380.428C902.89 378.622 902.165 377.119 901.495 375.938C901.503 374.984 901.511 374.03 901.521 373.075L900.891 373.487L901.446 372.779L901.441 371.627L901.029 370.959L902.067 370.174L901.573 367.129L899.084 367.436L898.742 365.467L900.375 364.829L899.841 361.411C900.013 361.355 900.379 361.209 900.694 360.85C900.944 360.565 901.052 360.273 901.101 360.106C902.049 360.047 903.651 359.787 905.021 358.65C905.582 358.185 906.053 357.491 906.995 356.106C907.497 355.368 907.743 354.922 907.843 354.318C907.966 353.584 907.817 352.957 907.688 352.571C907.118 351.475 906.181 349.729 904.919 347.639C902.845 344.206 901.793 342.987 900.243 340.26C899.45 338.864 898.336 336.737 897.245 333.951C897.175 332.08 897.107 330.21 897.037 328.339L891.811 313.267C891.631 312.283 891.48 311.188 891.389 309.998C891.312 308.975 891.29 308.017 891.304 307.137C890.434 303.101 889.563 299.065 888.693 295.029C888.345 293.617 888.052 292.012 887.894 290.237C887.824 289.46 887.786 288.712 887.774 288.002C887.735 285.361 887.321 281.251 885.314 276.754C884.218 274.297 882.919 272.338 881.76 270.858L881.868 269.78C881.926 269.683 882.073 269.41 882.051 269.035C882.028 268.669 881.857 268.421 881.788 268.33C881.809 267.326 881.83 266.323 881.851 265.319L881.848 264.762C882.206 264.65 882.431 264.33 882.403 264.016C882.375 263.699 882.102 263.52 882.066 263.497C882.115 263.212 882.162 262.927 882.211 262.641C882.308 262.602 882.572 262.48 882.729 262.192C882.914 261.856 882.88 261.427 882.651 261.078C883.08 261.113 883.418 260.785 883.414 260.447C883.411 260.187 883.206 259.934 882.907 259.85C883.154 259.638 883.401 259.427 883.648 259.215C883.686 259.215 884.267 259.194 884.576 258.691C884.789 258.341 884.788 257.895 884.571 257.539C884.96 257.106 885.471 256.606 886.127 256.12C886.672 255.717 887.193 255.414 887.648 255.185C887.89 256.214 888.332 257.559 889.187 258.971C889.591 259.637 890.016 260.204 890.42 260.676C890.396 261.204 890.325 263.91 892.374 266.058C893.675 267.421 895.189 267.887 895.876 268.052C897.259 268.357 899.545 268.66 902.233 268.065C903.637 267.755 904.796 267.277 905.686 266.825C906.074 266.839 907.592 266.85 908.878 265.734C909.629 265.082 909.978 264.326 910.135 263.907C910.573 263.754 912.158 263.138 913.1 261.442C913.702 260.356 913.764 259.324 913.759 258.8C914.178 258.191 914.597 257.582 915.016 256.974L916.756 255.108C916.908 255.013 917.208 254.795 917.422 254.398C917.582 254.1 917.629 253.822 917.643 253.654C917.444 253.519 917.245 253.383 917.046 253.248C917.225 253.06 917.418 252.826 917.601 252.54C917.967 251.964 918.14 251.411 918.226 251.013C917.866 250.593 917.504 250.174 917.144 249.754C916.169 248.935 915.433 248.238 914.943 247.755C914.294 247.114 913.702 246.481 912.744 246.202C912.258 246.06 911.935 246.085 911.665 246.206C911.216 246.41 911.023 246.839 910.962 246.99L909.174 245.956C909.096 245.905 908.865 245.764 908.541 245.773C908.209 245.783 907.984 245.942 907.91 245.998C907.245 246.98 906.579 247.962 905.915 248.942C905.88 249.277 905.977 249.491 906.033 249.589C906.303 250.058 906.994 250.279 907.74 250.087C907.6 250.34 907.445 250.678 907.335 251.093C907.183 251.661 907.171 252.158 907.191 252.506C907.046 252.615 906.709 252.9 906.525 253.401C906.308 253.989 906.442 254.5 906.493 254.665C905.775 254.657 905.057 254.65 904.338 254.641C903.948 254.408 903.314 254.093 902.475 253.938C901.703 253.795 901.049 253.843 900.616 253.908C900.701 253.56 900.786 253.214 900.872 252.866C901.05 251.952 901.197 250.699 901.081 249.223C900.943 247.48 900.489 246.082 900.099 245.138C900.358 244.521 900.616 243.758 900.796 242.867C900.916 242.272 900.982 241.721 901.013 241.231C901.348 240.835 901.742 240.291 902.084 239.591C902.353 239.041 902.524 238.528 902.635 238.102C902.77 237.545 902.894 236.963 903 236.354C903.346 234.385 903.451 232.566 903.425 230.962C901.859 229.884 900.059 228.762 898.021 227.674C895.957 226.573 893.999 225.691 892.212 224.983C891.951 224.761 891.69 224.539 891.428 224.317L889.796 223.932L889.79 223.933Z" fill="black" fill-opacity="0.5"/>
<path d="M303.096 223.224C304.088 221.577 305.621 219.422 307.92 217.355C314.981 211.008 327.172 207.368 337.868 212.227C350.524 217.977 353.071 231.987 353.598 234.881C356.924 253.176 343.539 268.96 337.868 270.66C337.399 270.801 335.267 271.36 332.747 272.817C330.433 274.156 328.583 275.226 327.569 277.128C325.758 280.521 328.507 283.172 327.824 288.649C327.46 291.568 326.312 293.804 325.507 295.117C316.825 282.051 310.928 276.124 307.819 277.338C306.463 277.867 305.638 279.754 305.34 282.997C305.471 284.194 305.525 285.853 305.175 287.778C304.743 290.164 303.87 291.99 303.197 293.152C303.164 294.71 303.129 296.271 303.096 297.829C303.612 298.512 304.202 299.236 304.88 299.974C305.707 300.877 306.521 301.652 307.285 302.314C307.867 303.114 308.725 304.498 309.193 306.413C309.6 308.082 309.557 309.512 309.456 310.442C311.072 314.667 312.691 318.889 314.308 323.114C315.107 323.445 315.988 323.774 316.944 324.073C318.095 324.435 319.178 324.703 320.169 324.9L322.39 329.631C322.431 329.782 322.504 330.142 322.35 330.534C322.044 331.31 321.143 331.457 321.098 331.462C321.024 332.138 320.954 332.813 320.88 333.489L320.683 333.661C322.246 336.691 323.805 339.79 325.35 342.962C327.898 348.184 330.278 353.314 332.504 358.341C330.038 353.446 327.384 348.432 324.526 343.327C322.823 340.289 321.115 337.329 319.403 334.452C319.099 334.255 318.796 334.058 318.492 333.86C318.226 333.863 317.963 333.865 317.698 333.871L317.457 334.92L317.604 335.414C319.674 339.755 321.743 344.093 323.815 348.434C325.98 352.978 328.148 357.519 330.314 362.062C327.784 358.098 325.216 353.8 322.681 349.163C320.078 344.404 317.794 339.808 315.783 335.439L315.33 335.219C314.791 335.333 314.252 335.447 313.716 335.563C315.297 339.325 317.093 343.269 319.137 347.347C321.449 351.966 323.815 356.231 326.155 360.142C323.858 356.6 321.535 352.786 319.236 348.697C316.638 344.083 314.353 339.618 312.34 335.366C311.857 335.34 311.371 335.318 310.888 335.292L308.892 333.248L307.447 329.997L306.425 328.464L306.362 326.036L304.955 324.951L305.019 323.033L299.78 314.92C298.828 314.03 297.743 312.826 296.772 311.252C296.367 310.597 296.033 309.959 295.755 309.362C295.441 308.254 294.998 307.015 294.363 305.712C294.11 305.191 293.847 304.705 293.582 304.252C293.091 303.187 292.603 302.122 292.112 301.057L288.535 305.145L287.639 309.233L288.406 310.703L287.384 313.195L291.216 316.516C291.376 317.278 291.654 318.409 292.145 319.729C292.982 321.988 293.339 321.837 293.579 322.967C293.721 323.64 293.718 324.265 292.195 329.557C291.748 331.116 291.831 330.832 291.409 332.039C290.743 333.939 290.126 335.282 289.795 336.013C289.139 337.465 288.219 339.6 287.098 342.512C287.002 345.004 286.906 347.496 286.809 349.988L283.359 362.06L275.119 373.175V375.923L273.268 378.03V379.692L272.309 381.033L271.542 386.335L271.99 393.363L273.268 396.684L271.224 401.283L268.221 402.05L261.77 399.558L257.808 396.237L258.638 393.297L261.896 390.294L261.256 388.824L260.427 390.486L258.957 388.442L259.852 386.398L263.174 378.796L264.07 378.541L265.921 370.684L265.858 369.661L267.196 367.999C266.938 364.185 266.974 361.012 267.067 358.738C267.452 349.287 269.164 346.208 269.691 345.323C270.948 343.205 272.44 341.768 273.46 340.916C273.857 339.927 274.282 338.604 274.515 337.005C274.743 335.444 274.72 334.086 274.626 333.041C273.829 332.659 273.015 332.241 272.185 331.786C269.863 330.508 267.831 329.145 266.078 327.807C265.489 327.599 264.687 327.387 263.725 327.326C263.111 327.288 262.562 327.318 262.104 327.377C259.893 328.814 257.467 330.567 254.96 332.697C252.301 334.956 250.072 337.197 248.228 339.254V340.339C248.56 340.797 248.957 341.505 248.878 342.322C248.775 343.4 247.925 343.792 245.992 345.897C245.261 346.694 244.555 347.471 243.811 348.604C243.181 349.565 242.756 350.433 242.478 351.07C242.286 352.242 242.094 353.413 241.904 354.584C241.274 355.361 240.644 356.137 240.012 356.914C238.428 356.99 236.844 357.066 235.261 357.139C233.707 356.522 232.152 355.905 230.598 355.287C230.538 354.832 230.505 354.225 230.591 353.519C230.669 352.861 230.829 352.315 230.983 351.903C232.878 349.583 234.772 347.261 236.667 344.941L235.39 344.174L233.664 341.746L235.453 338.295C235.572 336.648 235.691 335.004 235.81 333.357C237.269 330.104 239.288 326.334 242.091 322.411C243.831 319.975 245.595 317.867 247.272 316.066C249.379 312.575 251.489 309.081 253.596 305.59C254.279 304.381 255.112 302.58 255.57 300.27C256.179 297.192 255.84 294.611 255.514 293.068C254.912 292.274 254.264 291.315 253.644 290.187C253.012 289.036 252.541 287.95 252.192 286.999C251.874 287.323 251.466 287.806 251.112 288.464C250.738 289.16 250.558 289.797 250.467 290.258C249.807 290.533 249.146 290.812 248.486 291.087C247.35 292.499 245.805 294.141 243.763 295.709C240.09 298.532 236.44 299.873 233.986 300.541C229.652 302.003 228.539 303.473 228.362 304.576C228.294 305.001 228.344 305.509 227.98 306.099C227.388 307.063 226.442 307.032 224.967 307.769C224.476 308.014 222.981 308.775 221.911 310.19C220.861 311.576 221.183 312.325 220.186 313.448C219.328 314.417 218.22 314.839 217.439 315.044C217.191 314.938 216.877 314.756 216.829 314.475C216.728 313.865 218 313.407 218.883 312.461C219.447 311.857 220.064 310.827 220.183 308.978C219.141 308.188 218.101 307.397 217.059 306.607C217.163 305.843 217.269 305.079 217.373 304.315C216.687 304.475 215.673 304.786 214.59 305.441C212.67 306.602 211.281 308.401 210.684 308.062C210.603 308.016 210.191 307.736 210.239 307.483C210.239 307.483 210.246 307.46 210.254 307.435C210.947 305.256 213.259 304.075 214.633 303.402C216.801 302.34 217.689 302.494 218.703 301.34C219.389 300.559 219.69 299.683 219.834 299.048C219.655 298.77 219.356 298.388 218.883 298.095C218.119 297.624 217.628 297.837 217.054 297.351C216.788 297.128 216.621 296.754 216.3 296.018C216.1 295.56 215.845 294.925 215.597 294.141C215.524 293.787 215.706 293.448 215.997 293.331C216.217 293.245 216.475 293.296 216.672 293.455C217.694 294.242 218.716 295.031 219.738 295.818L222.485 295.881C223.244 296.213 224.003 296.547 224.762 296.878C226.328 296.076 228.332 294.854 230.386 293.028C232.488 291.156 233.958 289.258 234.942 287.768C236.027 286.703 237.115 285.638 238.2 284.573L245.228 281.634C245.273 281.054 245.382 280.318 245.638 279.496C245.908 278.631 246.26 277.933 246.569 277.417C246.877 274.591 247.186 271.765 247.495 268.939C247.654 268.059 247.813 267.181 247.975 266.301C247.975 266.278 247.942 265.904 247.667 265.765C247.388 265.625 246.958 265.772 246.763 266.172C244.466 267.578 241.628 269.63 238.802 272.552C236.71 274.715 235.119 276.845 233.925 278.692C234.393 270.543 232.905 264.846 231.37 261.062C230.583 259.121 229.604 257.237 229.025 254.181C228.119 249.405 228.848 245.215 229.645 242.344C230.393 240.69 229.824 238.747 228.365 237.796C227.019 236.92 225.192 237.072 223.96 238.193C224.13 236.531 224.302 234.871 224.471 233.209C222.478 227.775 219.809 224.421 217.654 222.324C215.443 220.173 213.482 219.063 211.478 215.85C210.413 214.142 208.848 211.628 209.012 208.678C209.257 204.297 213.191 201.309 214.765 200.115C225.422 192.025 249.961 192.882 262.468 207.385C265.732 211.17 267.47 215.066 268.418 217.75C267.71 216.839 266.65 215.663 265.155 214.557C264.15 213.811 259.025 210.009 256.392 211.868C254.479 213.216 254.912 216.819 255.003 217.494C258.537 219.837 262.071 222.179 265.608 224.522C271.707 228.198 277.806 231.876 283.905 235.552C287.528 235.969 315.492 238.974 319.332 229.278C320.185 227.128 320.048 223.791 318.237 221.815C315.464 218.792 308.995 218.769 303.099 223.219L303.096 223.224Z" fill="black" fill-opacity="0.5"/>
<path d="M764.72 225.638C763.136 223.006 762.344 221.69 761.419 220.477C759.262 217.643 753.558 211.198 745.501 203.045C745.209 202.914 744.916 202.781 744.625 202.648L743.635 201.231C744.734 200.906 747.097 200.044 749.198 197.821C751.56 195.319 752.214 192.549 752.416 191.431C751.889 189.987 751.36 188.544 750.833 187.1C750.221 186.18 749.167 184.84 747.502 183.652C745.344 182.11 743.22 181.581 742.028 181.376C742.222 181.487 744.218 182.672 744.337 184.83C744.386 185.698 744.112 186.395 743.907 186.799C744.015 187.052 744.196 187.396 744.495 187.744C744.861 188.173 745.252 188.432 745.518 188.579C745.686 188.554 747.108 188.362 748.182 189.407C748.996 190.199 749.084 191.192 749.1 191.444C749.051 191.718 748.961 192.137 748.79 192.627C747.984 194.926 746.235 196.332 744.375 197.793C743.852 198.203 743.109 198.752 742.17 199.341C741.977 199.416 741.679 199.501 741.323 199.476C740.634 199.425 740.484 199.012 739.728 198.827C739.153 198.687 738.333 198.703 738.124 199.102C738.037 199.27 738.077 199.47 738.127 199.612C737.022 199.313 736.094 199.508 735.829 200.021C735.777 200.124 735.726 200.287 735.761 200.532C735.592 200.502 734.9 200.401 734.231 200.83C733.775 201.124 733.557 201.524 733.47 201.707C733.254 201.639 732.239 201.341 731.229 201.888C730.698 202.174 730.386 202.575 730.231 202.813C729.862 202.691 729.36 202.475 728.844 202.091C728.065 201.509 727.632 200.83 727.415 200.42V199.325L730.079 200.955L728.532 196.771H733.452L728.443 192.69C728.545 192.53 728.66 192.375 728.793 192.228C729.878 191.018 731.533 190.897 732.227 190.889C729.914 190.085 727.604 189.279 725.293 188.474L727.902 184.53L722.074 185.499L721.138 179.053C720.758 180.005 720.172 181.202 719.257 182.449C718.59 183.358 717.906 184.081 717.298 184.644C716.876 183.92 716.379 183.149 715.795 182.354C714.892 181.126 713.972 180.103 713.121 179.265C712.51 181.126 711.897 182.987 711.286 184.848L704.351 182.032L706.337 186.762L699.744 187.589C700.611 188.655 701.477 189.721 702.343 190.786C701.024 191.8 699.703 192.814 698.384 193.827L701.813 194.651C701.586 195.178 701.36 195.704 701.133 196.231C701.811 196.274 702.489 196.317 703.167 196.359L703.064 197.816L691.028 195.203L691.383 192.65C691.701 192.115 691.631 191.442 691.231 191.011C690.775 190.524 689.983 190.451 689.408 190.874C689.239 190.978 689.068 191.083 688.898 191.189C688.13 190.424 687.218 190.082 686.564 190.373C686.44 190.429 686.301 190.517 686.163 190.666C684.871 189.939 683.68 189.721 683.176 190.218C683.105 190.288 683.042 190.378 682.993 190.497C682.399 189.908 681.651 189.719 681.168 189.993C681.067 190.052 680.901 190.174 680.769 190.433C680.589 190.685 680.407 190.937 680.226 191.189C679.863 190.824 679.277 190.256 678.506 189.603C677.496 188.745 677.076 188.512 676.46 187.898C676.009 187.45 675.386 186.731 674.812 185.646C674.902 184.509 675.113 183.625 675.276 183.057C675.705 181.549 676.783 178.806 678.129 176.595C678.273 176.356 678.603 175.827 678.633 175.099C678.642 174.891 678.647 174.166 678.042 173.206C674.356 167.353 669.023 167.019 669.023 167.019C668.092 166.961 666.307 166.981 664.174 167.903C664.469 167.89 666.162 167.836 667.21 169.064C667.479 169.379 667.647 169.711 667.753 170.003C667.863 170.106 668.13 170.326 668.521 170.364C669.038 170.416 669.559 170.128 669.866 169.631C670.145 170.164 670.605 170.928 671.332 171.702C672.446 172.891 673.059 172.904 673.599 173.734C674.454 175.047 674.048 176.733 673.796 177.778C673.561 178.757 673.339 178.92 671.665 182.268C670.623 184.349 670.322 185.06 670.621 185.771C670.803 186.207 671.119 186.42 672.376 187.185C673.318 187.759 674.356 188.378 675.48 189.032C676.09 189.459 676.818 190.06 677.528 190.883C677.968 191.391 678.315 191.887 678.59 192.335C678.18 193.005 677.77 193.675 677.36 194.345L676.048 194.677C675.508 195.441 674.816 196.296 673.945 197.164C672.748 198.353 671.56 199.219 670.566 199.837C669.624 200.947 668.68 202.056 667.736 203.164C667.071 203.726 666.254 204.528 665.487 205.614C664.887 206.463 664.469 207.272 664.174 207.952C663.416 208.781 662.657 209.61 661.897 210.439C661.661 210.805 661.314 211.379 660.956 212.118C660.638 212.779 660.619 212.937 660.378 213.396C659.667 214.76 659.145 214.701 659.023 215.33C658.779 216.587 660.545 218.464 662.149 218.964C662.428 219.051 662.982 219.186 663.609 219.615C664.1 219.952 664.431 220.329 664.634 220.595C666.461 221.875 668.287 223.156 670.115 224.437C671.556 225.27 672.997 226.103 674.438 226.936C674.839 227.077 675.44 227.334 676.067 227.803C676.747 228.312 677.136 228.835 677.238 228.965C677.803 229.689 679.344 230.922 683.485 233.168C684.122 234.452 684.758 235.738 685.395 237.022C685.675 240.457 686.078 244.097 686.64 247.913C687.208 251.768 687.881 255.402 688.613 258.802C688.765 259.124 689.036 259.822 688.912 260.696C688.857 261.087 688.738 261.409 688.624 261.645C688.214 262.894 687.818 264.388 687.549 266.093C687.31 267.603 687.216 268.979 687.2 270.178C687.34 270.521 687.574 270.984 687.97 271.449C688.624 272.216 689.376 272.585 689.798 272.754C690.026 275.328 690.255 277.903 690.483 280.478L691.76 280.946C691.593 281.222 691.434 281.526 691.291 281.859C690.502 283.696 690.635 285.469 690.835 286.562C690.331 287.875 689.837 289.401 689.432 291.121C688.985 293.015 688.741 294.753 688.613 296.263C687.547 299.464 686.534 303.178 685.777 307.352C684.77 312.912 684.467 317.918 684.486 322.116C684.401 322.043 684.315 321.971 684.23 321.898L684.275 324.413C684.079 324.533 683.906 324.666 683.754 324.805C681.845 326.577 682.66 330.133 682.844 330.867C682.432 331.263 681.86 331.875 681.32 332.716C680.383 334.176 680.085 335.476 679.84 336.455C679.477 337.915 678.902 339.991 677.969 342.694C677.455 344.047 676.782 346.113 676.389 348.712C676.153 350.277 676.124 351.336 676.009 354.035C675.934 355.797 675.814 358.434 675.638 361.725C675.996 361.929 676.796 362.456 677.249 363.468C677.298 363.578 677.423 363.877 677.543 364.559C677.656 365.193 677.762 366.135 677.664 367.329C677.173 367.72 676.683 368.112 676.193 368.503C676.098 368.718 675.388 370.387 676.254 371.71C676.389 371.914 676.596 372.164 676.918 372.397L676.969 376.114L676.17 376.772L676.181 379.652L676.15 380.926L676.664 382.054C676.386 382.375 676.023 382.873 675.759 383.552C675.6 383.962 675.516 384.338 675.472 384.646C675.341 385.278 675.209 385.912 675.078 386.544L673.953 387.75L670.769 393.41L669.421 393.635L668.154 395.971L668.159 397.029L667.397 397.943C667.278 398.199 667.158 398.517 667.072 398.891C666.911 399.605 666.946 400.221 667.006 400.641C666.996 401.522 667.209 402.165 667.437 402.613C668.582 404.866 671.99 405.935 675.952 405.307C677.109 404.474 678.568 403.232 679.946 401.465C681.968 398.872 682.917 396.304 683.382 394.638C683.723 394.685 684.062 394.733 684.402 394.778C684.847 394.307 685.336 393.724 685.816 393.024C686.293 392.33 686.659 391.67 686.939 391.089C686.955 390.298 686.971 389.508 686.987 388.718C686.882 388.67 686.779 388.623 686.675 388.575L686.247 381.799C686.684 381.495 686.898 380.985 686.789 380.521C686.684 380.074 686.323 379.845 686.239 379.794C686.493 379.308 686.746 378.822 686.999 378.334L686.863 371.447C687.164 371.024 687.644 370.211 687.729 369.112C687.758 368.726 687.734 368.381 687.688 368.091C687.286 367.668 686.884 367.244 686.481 366.821L687.199 364.121L689.745 362.836L689.986 359.154C690.105 357.975 690.372 356.016 691.058 353.685C692.198 349.811 693.587 348.002 695.827 342.879C696.382 341.606 697.193 339.666 698.064 337.223C698.121 336.323 698.178 335.424 698.235 334.526C700.547 331.116 702.088 328.188 703.05 326.197C705.238 321.67 705.8 319.145 708.394 313.351C709.732 310.358 710.944 307.99 711.72 306.522C712.553 305.209 713.681 304.744 714.192 305.056C714.718 305.377 714.577 306.511 714.563 306.622C714.224 306.631 714.064 306.736 713.98 306.842C713.426 307.55 715.25 309.74 715.413 309.933C715.385 310.149 715.34 310.708 715.638 311.317C715.912 311.88 716.332 312.18 716.515 312.298C716.718 314.253 716.919 316.208 717.122 318.163C717.006 318.407 716.805 318.917 716.835 319.586C716.864 320.202 717.076 320.661 717.206 320.895C717.472 320.943 717.739 320.99 718.007 321.038L718.284 326.467C718.227 326.59 718.146 326.779 718.067 327.014C717.603 328.399 717.774 329.715 718.113 331.065C718.949 334.383 720.965 338.561 721.174 338.992C721.008 339.937 720.877 341 720.823 342.164C720.736 343.996 720.862 345.621 721.059 346.973C721.265 349.632 721.469 352.291 721.673 354.951L722.647 361.652L722.956 366.061L726.166 367.141L726.544 370.674L725.71 371.699C725.727 372.84 725.743 373.982 725.761 375.124C725.992 375.354 726.223 375.583 726.454 375.813C726.397 376.554 726.339 377.295 726.282 378.036C726.516 378.921 726.75 379.808 726.985 380.694C726.736 380.912 726.587 381.135 726.494 381.324C725.784 382.749 727.105 384.496 727.181 384.593C727.208 385.261 727.235 385.928 727.262 386.596C727.382 386.708 727.712 387.047 727.777 387.578C727.802 387.799 727.775 387.989 727.742 388.126C727.708 389.145 727.677 390.165 727.643 391.187L727.976 392.205L728.062 395.558C728.301 395.969 728.59 396.413 728.942 396.866C729.647 397.779 730.388 398.467 731.026 398.972C731.185 398.959 731.343 398.947 731.5 398.934C732.049 399.946 732.817 401.164 733.883 402.423C734.904 403.629 735.931 404.559 736.808 405.253C737.478 405.631 739.94 406.912 743.168 406.334C746.497 405.739 748.388 403.565 748.861 402.983V400.614C748.833 400.256 748.733 399.604 748.335 398.904C747.947 398.221 747.455 397.806 747.165 397.597C746.359 396.555 745.553 395.515 744.747 394.473L744.055 394.476L738.45 386.917C738.311 386.764 738.118 386.51 737.974 386.154C737.81 385.749 737.787 385.389 737.788 385.171C737.605 384.928 737.421 384.686 737.239 384.444L737.529 384.296L737.263 381.091L736.749 380.51L736.219 375.192C737.259 373.537 737.255 371.851 736.458 371.146C736.303 371.008 735.956 370.766 735.291 370.75C735.261 369.486 735.232 368.224 735.202 366.96L737.532 366.149C737.69 363.573 737.839 359.736 737.671 355.07C737.517 350.794 737.199 348.568 736.977 345.271C736.726 341.51 736.588 336.147 737.172 329.491C738.143 329.452 739.115 329.411 740.086 329.371L739.144 311.846L736.74 311.965L736.661 310.654C736.958 310.415 737.187 310.16 737.365 309.906C739.185 307.316 736.897 303.146 736.631 302.672C736.621 300.256 736.612 297.839 736.602 295.421C736.77 294.51 736.452 293.666 735.829 293.311C735.495 293.12 735.145 293.112 734.917 293.132C734.764 291.189 734.61 289.246 734.458 287.303C734.326 286.047 734.029 284.429 733.346 282.644C732.884 281.433 732.347 280.413 731.84 279.588C732.155 279.356 732.47 279.124 732.786 278.892L732.005 275.106L731.78 273.613C732.6 272.987 733.568 272.067 734.357 270.76C734.979 269.729 735.514 268.843 735.438 267.658C735.329 265.943 734.014 264.828 733.641 264.53C733.403 264.321 732.947 263.857 732.687 263.113C732.355 262.158 732.556 261.333 732.643 261.037C732.326 257.855 732.011 254.674 731.694 251.492C731.534 250.594 731.408 249.595 731.356 248.505C731.242 246.152 731.5 244.106 731.842 242.491C732.374 241.639 732.904 240.787 733.436 239.935C736.103 239.392 738.293 238.842 739.88 238.414C742.639 237.673 745.071 236.899 747.96 235.979C749.01 235.645 749.878 235.361 750.472 235.168C754.165 234.802 757.132 234.033 759.247 233.348C762.734 232.219 765.944 231.139 766.256 229.107C766.343 228.545 766.185 228.072 764.72 225.638ZM703.064 215.222C702.353 215.548 702.11 217.015 702.636 218.877C702.15 218.82 701.477 218.803 700.707 218.969C700.322 219.053 699.987 219.167 699.705 219.284C698.93 218.79 698.338 218.404 698.015 218.191C696.26 217.043 695.54 216.529 694.515 216.56C694.24 216.57 694.018 216.616 693.89 216.647V216.104C693.237 216.166 692.561 216.248 691.861 216.356C690.216 216.609 688.713 216.961 687.367 217.354C687.319 217.192 687.066 216.383 686.301 216.033C685.439 215.639 684.274 215.985 683.575 216.953C682.991 216.274 682.182 215.475 681.1 214.739C678.997 213.309 676.921 212.836 675.675 212.658C676.136 212.181 676.634 211.603 677.124 210.913C677.808 209.949 678.288 209.025 678.628 208.245C678.764 207.955 678.958 207.616 679.232 207.266C679.729 206.632 680.28 206.235 680.674 206.001C682.149 204.951 683.4 204.059 684.534 203.283C685.026 202.946 685.824 202.409 686.022 201.478C686.098 201.121 686.065 200.808 686.024 200.596C686.906 200.654 687.485 200.695 687.859 200.724C688.459 200.767 688.813 200.795 689.234 200.616C689.372 200.558 689.682 200.407 689.939 200.108C690.588 199.356 690.349 198.304 690.314 198.166C690.315 198.141 690.357 197.675 690.778 197.457C691.21 197.232 691.625 197.485 691.641 197.496L702.595 201.02C702.658 201.36 702.722 201.699 702.783 202.04C702.785 202.445 702.785 202.851 702.785 203.254C702.392 203.766 701.848 204.631 701.613 205.81C701.084 208.474 702.57 210.577 702.875 210.992C702.753 211.231 702.631 211.523 702.54 211.866C702.323 212.679 702.384 213.388 702.464 213.833C702.525 213.749 702.764 213.444 703.192 213.36C703.425 213.314 703.62 213.352 703.73 213.383C703.813 214.015 703.897 214.647 703.981 215.279C703.495 215.083 703.211 215.156 703.064 215.222ZM742.655 221.192C740.834 221.634 739.491 222.42 738.678 222.987C738.634 222.874 738.032 221.408 736.466 221.075C735.3 220.827 734.073 221.305 733.341 222.296C731.941 221.937 729.957 221.587 727.577 221.679C725.483 221.759 723.74 222.157 722.459 222.551C722.229 222.356 721.893 222.112 721.444 221.922C721.154 221.801 720.886 221.729 720.664 221.686C720.458 221.427 720.314 221.172 720.213 220.941C719.475 219.276 720.305 217.531 720.535 217.083C720.831 216.845 721.041 216.856 721.124 216.869C721.581 216.94 721.982 217.664 721.939 218.69C721.993 217.244 722.047 215.799 722.101 214.353C722.755 213.878 723.835 212.964 724.692 211.472C725.469 210.121 725.74 208.864 725.846 208.088C725.819 208.01 725.694 207.673 725.335 207.492C724.842 207.242 724.357 207.514 724.321 207.535C724.532 207.036 724.744 206.537 724.954 206.039C725.238 206.2 725.42 206.176 725.51 206.149C725.957 206.018 726.242 205.204 726.085 204.114C726.061 204.024 726.065 203.953 726.098 203.899C726.321 203.543 727.835 203.988 730.643 205.234C730.587 205.633 730.559 206.287 730.806 207.022C730.903 207.309 731.335 208.474 732.436 209.068C732.873 209.304 732.912 209.179 733.626 209.494C734.54 209.895 734.778 210.23 735.215 210.409C735.758 210.631 736.64 210.626 738.129 209.616C737.875 210.063 737.605 210.725 737.791 211.391C737.993 212.105 738.628 212.493 738.903 212.672C740.286 213.572 741.136 215.1 742.281 216.286C743.277 217.319 744.66 218.836 746.281 220.895C745.391 220.83 744.12 220.839 742.655 221.192Z" fill="black" fill-opacity="0.5"/>
<path d="M518.675 387.002C460.002 387.892 354.182 389.56 283.565 390.895C167.057 393.008 151.342 393.453 110.69 396.456C67.3137 399.681 65.8468 399.904 55.16 403.796C44.4732 407.689 27.5 418.7 20.1659 426.152C18.0704 428.377 16.8131 432.269 17.0227 436.718C17.2322 443.281 17.2322 443.503 19.7468 440.611L22.2613 437.497L27.2904 443.169C30.0145 446.284 32.9482 449.064 33.5768 449.287C34.415 449.509 34.8341 444.393 34.8341 437.831C34.6245 429.489 35.4627 425.151 37.5582 423.149L40.4918 420.369L43.0064 424.373C51.3882 437.163 71.5046 450.844 88.6873 455.515C96.4405 457.628 97.2787 457.628 105.241 456.071C113.414 454.292 113.623 454.292 126.406 458.073C133.53 460.186 152.18 464.635 167.896 468.083L196.394 474.423L233.274 472.087L270.363 469.752L284.822 476.202C310.806 487.881 321.074 490.884 364.659 499.893C404.682 508.235 408.873 508.791 442.82 511.571L478.442 514.352L497.721 524.251C508.198 529.701 518.885 534.706 521.399 535.373C525.8 536.596 526.009 536.485 526.009 530.813C526.009 525.363 526.847 524.362 537.744 517.132C544.24 512.795 549.688 509.236 549.897 509.013C550.317 508.902 569.176 505.232 592.226 501.005L633.716 493.108L661.795 496.556C687.988 499.67 693.017 499.893 731.155 499.893H772.226L845.567 484.322L918.908 468.751L967.103 448.73C1012.78 429.823 1016.56 428.043 1039.4 413.25C1052.6 404.686 1063.7 397.79 1063.91 398.013C1064.12 398.124 1063.49 404.575 1062.24 412.472C1060.98 420.257 1060.56 426.931 1060.98 427.264C1062.03 427.821 1071.88 414.474 1074.39 408.802L1076.28 405.02L1080.05 412.138L1084.03 419.256L1085.92 414.251C1089.06 405.798 1085.08 392.897 1077.74 388.67C1077.11 388.337 1005.45 387.78 918.279 387.336C831.108 387.002 729.478 386.335 692.598 386.112C655.718 385.778 577.558 386.223 518.675 387.002ZM885.38 388.114C965.008 388.448 1040.65 389.004 1053.65 389.338C1074.39 389.894 1077.53 390.227 1079.42 392.229C1084.03 396.789 1086.96 410.581 1083.61 412.361C1081.93 413.25 1081.31 413.028 1081.31 411.471C1081.1 410.247 1079.84 407.689 1078.37 405.91L1075.65 402.573L1073.13 407.578C1071.67 410.359 1068.73 415.03 1066.64 418.144L1062.66 423.705L1063.49 417.588C1064.12 414.251 1064.96 408.023 1065.8 403.908L1067.06 396.345L1074.18 398.791C1078.16 400.015 1081.31 400.682 1081.31 400.126C1081.31 399.681 1074.81 397.568 1067.06 395.566L1053.02 391.784L1031.22 393.008C1003.98 394.565 950.549 394.565 913.25 393.119C888.314 392.118 878.884 392.229 843.052 394.231C817.068 395.677 790.456 398.013 772.016 400.349C743.937 403.908 700.561 407.578 686.312 407.578C682.959 407.578 671.644 405.798 661.376 403.685L642.726 399.792H606.265C576.091 399.792 565.613 399.348 542.982 397.012C518.256 394.454 514.065 394.343 496.254 395.344C482.424 396.233 469.222 396.233 450.573 395.344C428.571 394.343 415.998 394.454 370.945 396.345C341.609 397.568 295.299 399.348 268.268 400.349C238.722 401.461 208.338 403.24 191.784 404.909L164.543 407.689L130.596 405.798C103.984 404.353 92.0401 404.241 75.0669 405.131C63.1228 405.687 53.2741 406.132 52.855 405.91C52.4359 405.798 55.3696 404.575 59.3509 403.24C65.0087 401.461 76.9528 400.126 111.109 397.568C151.342 394.565 167.267 394.12 283.565 392.007C497.93 388.114 622.61 386.557 683.169 387.113C714.81 387.336 805.962 387.78 885.38 388.114Z" fill="black" fill-opacity="0.5"/>
<path d="M486.045 395.27C485.544 395.137 485.048 394.998 484.548 394.86C484.586 394.755 484.948 393.562 484.185 392.588C483.689 391.954 483.007 391.782 482.792 391.739C481.38 391.162 479.902 390.494 478.366 389.721C476.01 388.537 473.911 387.292 472.065 386.08C469.785 381.938 467.3 376.503 465.454 369.876C462.969 360.953 462.549 353.108 462.702 347.439C461.839 345.201 460.999 342.825 460.212 340.32C459.039 336.579 458.118 332.996 457.403 329.617C458.242 329.073 459.139 328.281 459.831 327.131C461.743 323.968 460.556 320.651 460.336 320.045C459.406 317.44 457.508 316.037 456.792 315.565C453.988 309.815 451.188 303.473 448.541 296.559C445.369 288.266 442.912 280.426 440.99 273.217C441.147 273.331 441.31 273.45 441.481 273.57C443.327 280.503 445.669 287.994 448.646 295.887C450.926 301.918 453.32 307.51 455.733 312.659C456.697 312.64 457.66 312.621 458.624 312.597C459.282 312.353 460.689 311.934 462.464 312.201C463.398 312.344 464.185 312.64 464.806 312.959C463.608 312.086 462.216 310.855 460.937 309.166C459.721 307.553 458.958 305.998 458.476 304.776C458.295 304.051 457.947 302.896 457.241 301.598C456.487 300.214 455.953 299.823 454.541 297.781C453.582 296.397 453.625 296.283 452.571 294.689C451.932 293.725 450.954 292.303 449.623 290.628C449.127 289.788 448.46 288.596 447.735 287.131C445.545 282.679 444.305 278.594 444.524 278.504C444.72 278.422 445.841 281.557 448.545 285.58C449.418 286.878 450.296 288.066 451.164 289.154C451.655 289.822 452.38 290.829 453.215 292.079C456.592 297.151 458.114 300.725 459.859 304.037C461.185 306.546 463.208 309.977 466.232 313.895C466.422 314.148 466.618 314.401 466.818 314.653C467.801 315.799 468.784 316.949 469.766 318.099C470.191 318.528 470.839 318.657 471.397 318.418C471.946 318.18 472.299 317.626 472.289 317.025C472.494 316.538 472.881 315.794 473.582 315.064C474.398 314.224 475.261 313.799 475.776 313.589C476.911 313.508 477.798 313.451 478.385 313.418C479 313.379 479.477 313.356 479.525 313.169C479.577 312.94 478.953 312.606 478.786 312.52C478.256 312.239 477.293 311.876 475.776 312.043C474.722 311.151 473.124 309.729 471.354 307.82C466.232 302.295 466.313 299.871 461.524 293.84C458.872 290.499 457.489 289.65 455.433 287.469C454.164 286.129 453.325 285.041 452.609 284.096C451.331 282.416 449.728 280.05 448.183 276.967C448.975 277.229 449.724 277.435 450.42 277.602C447.863 274.028 444.386 268.273 442.23 260.495C439.678 251.3 440.122 243.437 440.747 238.784C441.219 237.262 442.073 235.158 443.671 232.996C444.653 231.665 445.674 230.639 446.566 229.862C449.714 228.134 452.385 227.204 454.14 226.688C458.266 225.472 465.283 224.193 469.833 221.468C470.152 221.277 470.586 221.005 470.925 220.49C472.342 218.376 470.372 214.955 468.741 211.496C467.558 208.976 466.012 205.292 464.639 200.449C463.756 201.413 462.874 202.377 461.991 203.346L458.614 204.066L449.456 193.459C449.103 192.633 448.34 191.173 446.824 189.88C445.722 188.945 444.62 188.444 443.866 188.167C441.147 186.96 438.433 185.748 435.719 184.541C434.398 183.362 433.077 182.179 431.756 181C430.344 181.057 428.927 181.11 427.515 181.162L420.781 182.608V184.297C419.436 184.226 417.299 184.307 414.976 185.285C409.91 187.423 407.94 192.137 407.525 193.215C403.008 194.299 399.112 196.952 398.353 200.359C397.242 205.335 402.651 212.717 412.586 213.953C412.763 214.502 413.159 215.461 414.022 216.386C414.785 217.207 415.596 217.656 416.106 217.885C415.963 219.65 415.82 221.416 415.677 223.181C413.602 224.121 411.527 225.066 409.452 226.006C408.16 226.369 406.328 227.084 404.616 228.592C400.018 232.624 400.242 238.78 400.294 239.748C399.937 243.031 399.212 246.982 397.771 251.3C396.922 253.839 395.959 256.101 394.99 258.071C393.154 259.684 390.898 261.407 388.194 263.024C386.877 263.812 385.599 264.484 384.387 265.062C385.27 265.544 386.157 266.026 387.039 266.508L389.21 268.679L382.217 281.939L380.052 286.763L378.606 291.583C378.506 292.818 378.826 293.692 379.045 294.145C379.985 296.139 382.37 297.461 383.424 296.889C383.801 296.683 383.987 296.249 384.249 296.326C384.621 296.431 384.44 297.356 384.907 297.638C385.15 297.79 385.589 297.771 386.429 297.223C387.23 297.977 388.384 298.167 389.291 297.719C390.402 297.17 390.96 295.734 390.445 294.426C390.097 293.878 389.744 293.2 389.477 292.389C389.405 292.174 389.343 291.96 389.291 291.754C389.195 289.345 389.105 286.935 389.009 284.525C391.704 280.236 394.399 275.946 397.094 271.656L400.018 275.364C399.498 275.946 398.978 276.533 398.458 277.12C400.342 276.662 402.231 276.208 404.115 275.75L405.479 277.511L401.773 283.752L401.191 289.02C400.9 289.497 400.609 289.97 400.318 290.447C399.961 292.251 399.598 294.049 399.24 295.853L395.534 304.051C394.385 308.679 393.235 313.308 392.086 317.941C391.485 318.347 389.729 319.654 389.009 322.069C388.89 322.474 387.965 325.767 389.982 328.338C391.26 329.966 393.063 330.467 393.955 330.715C395.372 331.111 396.607 331.068 397.385 330.982C395.73 335.73 394.07 340.477 392.41 345.225C392.563 350.894 392.143 358.739 389.658 367.661C387.812 374.289 385.327 379.724 383.047 383.866C381.201 385.078 379.102 386.323 376.746 387.507C375.21 388.28 373.732 388.948 372.32 389.525C372.105 389.568 371.423 389.74 370.927 390.374C370.164 391.348 370.526 392.541 370.564 392.646C370.064 392.784 369.568 392.922 369.067 393.056C369.048 394.025 369.024 394.998 369 395.967H383.247C388.079 394.96 392.911 393.958 397.743 392.951C397.709 392.254 397.671 391.558 397.633 390.856C396.741 390.871 395.844 390.88 394.952 390.89C395.181 390.298 395.544 389.129 395.386 387.645C395.262 386.462 394.852 385.56 394.561 385.035C394.38 384.372 394.218 383.589 394.137 382.711C393.979 381.055 394.151 379.643 394.366 378.598C398.072 368.969 401.778 359.34 405.484 349.715C405.56 346.327 405.856 342.582 406.509 338.569C406.781 336.908 407.096 335.324 407.435 333.812C411.103 334.284 414.713 332.743 416.764 329.803C419.436 325.981 418.129 321.715 417.971 321.224C418.214 319.296 418.586 317.159 419.149 314.863C419.722 312.511 420.399 310.392 421.091 308.536C421.82 301.641 422.774 296.683 423.313 296.598C424.076 296.473 424.677 296.793 424.677 296.793C425.078 297.008 425.321 297.323 425.455 297.533C428.617 306.795 431.78 316.056 434.942 325.323C435.219 331.698 438.391 335.878 441.338 335.973C441.663 335.983 442.612 335.964 443.852 335.1H443.857C445.779 340.711 447.706 346.318 449.633 351.929C453.339 361.554 457.045 371.183 460.751 380.812C460.966 381.857 461.138 383.269 460.98 384.925C460.899 385.803 460.737 386.586 460.556 387.249C460.265 387.774 459.855 388.676 459.73 389.859C459.573 391.343 459.936 392.512 460.165 393.104C459.273 393.094 458.376 393.085 457.484 393.07C457.446 393.772 457.408 394.468 457.374 395.165C462.206 396.172 467.038 397.174 471.87 398.181H486.112C486.088 397.212 486.064 396.239 486.045 395.27ZM406.142 263.917C405.141 265.849 404.005 267.338 403.047 268.412C404.158 266.236 405.293 263.673 406.29 260.748C407.115 258.334 407.711 256.067 408.145 254.02C408.188 255.204 408.236 256.392 408.279 257.58C407.993 259.207 407.411 261.469 406.142 263.917ZM437.618 216.716C436.969 216.825 435.977 217.074 434.904 217.684C433.893 218.262 433.196 218.944 432.777 219.426H429.772V220.786H426.19C425.965 220.667 425.398 220.328 425.026 219.622C424.615 218.849 424.697 218.119 424.735 217.875C425.35 217.66 426.247 217.264 427.158 216.52C428.341 215.551 428.975 214.459 429.29 213.805C429.962 213.881 438.09 214.678 442.187 209.105C442.855 208.198 445.197 205.016 444.009 201.499C443.041 198.626 440.07 196.565 436.454 196.269C435.906 194.523 435.357 192.781 434.808 191.035C435.815 191.397 437.165 192.065 438.295 193.363C438.705 193.831 438.81 194.065 439.082 194.361C439.85 195.186 441.4 195.916 444.882 195.396C446.504 197.348 448.254 199.729 449.919 202.568C451.102 204.581 452.056 206.509 452.824 208.284C452.213 208.675 451.512 209.181 450.792 209.835C450.119 210.441 449.576 211.042 449.146 211.577C451.693 212.774 454.245 213.967 456.797 215.165C454.088 215.642 451.145 216.048 447.983 216.324C444.253 216.654 440.78 216.754 437.618 216.716Z" fill="black" fill-opacity="0.5"/>
</svg>
