<svg width="1500" height="897" viewBox="0 0 1500 897" fill="none" xmlns="http://www.w3.org/2000/svg">
<g filter="url(#filter0_d_803_651)">
<path d="M917.516 510.336C912.877 503.624 908.298 496.286 895.942 473.375C887.79 458.254 883.715 450.692 880.244 443.606C874.458 431.797 867.073 415.541 859.642 395.403C860.548 394.567 861.454 393.733 862.364 392.897L860.461 392.312C860.475 391.941 860.583 390.32 861.909 388.993C863.326 387.575 865.089 387.54 865.429 387.54C865.429 386.892 865.418 385.972 865.359 384.865C865.25 382.747 865.194 381.69 864.925 381.018C864.05 378.829 860.814 378.14 859.278 377.916C859.292 379.078 858.684 380.135 857.729 380.587C856.48 381.179 854.818 380.66 854.003 379.271C853.681 378.402 853.363 377.531 853.041 376.662L854.811 374.043C854.944 374.015 855.129 373.97 855.339 373.889C855.664 373.77 856.172 373.578 856.441 373.2C856.536 373.067 856.655 372.836 856.588 371.789C856.56 371.344 856.497 370.728 856.34 370C856.207 369.636 856.021 369.072 855.888 368.361C855.553 366.544 855.941 365.76 855.609 364.745C855.392 364.073 854.825 363.19 853.226 362.41C852.708 361.496 851.746 360.074 850.102 358.821C848.916 357.914 847.765 357.392 846.915 357.088C846.317 356.062 845.719 355.033 845.12 354.007C845.848 353.667 846.925 353.051 847.944 351.969C848.622 351.245 849.077 350.523 849.378 349.953C849.161 347.464 848.783 345.401 848.444 343.882C847.212 338.35 845.802 336.824 845.008 336.124C844.389 335.577 843.798 335.224 843.385 335.01C843.857 334.195 844.508 333.001 845.204 331.502C845.806 330.196 846.11 329.531 846.212 328.824C846.492 326.856 845.659 325.221 845.246 324.434C844.428 322.876 843.689 322.508 842.552 321.153C841.636 320.068 840.481 318.366 839.635 315.783C839.684 314.512 839.722 312.583 839.607 310.226C839.446 306.897 839.117 305.496 839.827 305.069C840.761 304.513 842.696 306.109 844.141 307.303C846.142 308.955 847.51 310.664 848.402 311.949C848.314 309.673 847.971 306.645 846.932 303.228C845.939 299.961 844.617 297.356 843.473 295.459C844.193 295.448 845.145 295.508 846.226 295.778C847.527 296.1 848.538 296.607 849.231 297.024C846.534 290.897 842.888 286.927 840.653 286.794C839.135 286.703 837.291 287 837.291 287C836.332 287.158 835.552 287.368 835.013 287.533C835.167 286.304 835.321 285.078 835.475 283.849L834.282 282.785C834.73 282.523 835.468 281.994 835.703 281.115C835.825 280.646 835.755 280.254 835.717 280.037C835.5 278.811 835.251 277.372 834.968 275.776C834.356 272.562 833.31 267.38 831.949 262.129C831.704 261.187 831.347 259.85 830.315 258.47C828.751 256.38 826.712 255.613 824.088 254.556C821.94 253.691 818.756 252.375 814.695 250.554L813.022 247.354L810.766 247.361L801.481 240.629L800.141 231.369V230.301C800.414 230.301 800.691 230.301 800.967 230.301C801.058 231.775 801.149 233.245 801.24 234.719C801.226 234.989 801.415 235.227 801.677 235.272C801.932 235.314 802.188 235.164 802.268 234.912C802.303 234.964 802.429 235.129 802.625 235.15C802.884 235.178 803.178 234.943 803.255 234.565C803.286 234.59 803.493 234.761 803.773 234.709C803.969 234.674 804.087 234.551 804.122 234.509C803.811 232.443 803.496 230.381 803.181 228.319C803.353 227.85 803.584 227.181 803.829 226.362C804.654 223.593 804.486 222.865 804.357 222.49C804.231 222.133 803.962 221.583 803.307 221.027V218.772H804.483L803.307 217.585L805.189 216.864L803.307 215.327H804.248L803.307 212.596V211.644L802.076 210.341L804.444 208.433H802.076L802.772 205.709L800.519 206.784L798.962 202.517V205.366L794.918 200.868L795.52 203.003C795.128 202.513 794.523 201.872 793.659 201.295C792.483 200.51 791.357 200.195 790.643 200.055V201.596L786.011 199.12L787.446 201.848C786.525 201.519 785.437 201.197 784.199 200.959C782.642 200.661 781.243 200.57 780.085 200.57C780.799 201.081 781.512 201.592 782.226 202.107C781.309 202.552 780.022 203.049 778.427 203.294C777.444 203.444 776.559 203.469 775.82 203.437C776.181 204.029 776.538 204.621 776.898 205.216L773.816 206.294L775.6 207.12L770.156 211.178L773.952 211.164L770.996 213.79L772.42 213.783C771.909 214.273 771.395 214.76 770.884 215.25C771.416 215.53 771.944 215.814 772.476 216.097C772.329 216.615 772.112 217.221 771.787 217.865C771.269 218.894 770.66 219.665 770.156 220.204C771.076 219.885 771.997 219.567 772.917 219.245L771.146 222.101H772.808L772.109 225.305C772.777 225.613 773.441 225.925 774.11 226.233C774.022 226.824 773.858 228.529 774.83 230.283C776.23 232.808 778.853 233.389 779.259 233.473C779.347 235.612 779.434 237.748 779.522 239.887L776.922 242.866L769.177 234.817C769.555 234.607 770.436 234.05 771.052 232.944C771.689 231.803 771.678 230.728 771.654 230.297C772.283 229.622 772.913 228.946 773.543 228.27L770.324 224.125C770.051 223.967 769.362 223.614 768.463 223.698C766.966 223.834 766.161 225.046 766.056 225.21C765.031 226.005 764.003 226.803 762.978 227.598L762.502 227.363L764.629 224.741C764.744 224.629 765.269 224.1 765.29 223.267C765.301 222.711 765.08 222.301 764.975 222.126C763.37 221.041 761.764 219.955 760.158 218.866C759.896 217.785 759.633 216.699 759.371 215.614C759.21 215.449 758.881 215.162 758.384 215.008C757.545 214.749 756.827 215.061 756.639 215.152C756.576 214.518 756.362 213.314 755.582 212.985C755.509 212.953 755.355 212.901 754.4 212.869C753.808 212.848 753.322 212.852 752.993 212.859C752.874 212.442 752.755 212.025 752.64 211.609C752.507 211.388 752.357 211.234 752.224 211.126C751.251 210.327 749.796 210.839 749.621 210.902C748.596 211.343 747.567 211.78 746.542 212.221L734.983 200.741C735.253 200.258 735.165 199.67 734.795 199.334C734.504 199.064 734.07 198.984 733.675 199.117C731.73 197.493 729.785 195.865 727.84 194.237C727.598 194.163 725.692 193.599 724.159 194.72C722.62 195.847 722.088 198.214 723.113 200.311C724.74 201.771 726.37 203.231 727.997 204.687C727.868 205.023 727.962 205.405 728.232 205.639C728.497 205.867 728.875 205.913 729.187 205.751C733.252 209.834 737.313 213.916 741.375 217.998C740.602 218.828 739.5 220.207 738.685 222.164C737.747 224.419 737.607 226.429 737.618 227.626C737.034 227.924 736.404 228.305 735.76 228.799C733.721 230.371 732.626 232.289 732.059 233.543C731.579 233.336 730.873 233.095 729.991 233.004C729.176 232.916 728.483 232.986 727.987 233.074C725.828 236.347 723.666 239.624 721.504 242.898C721.466 243.528 721.424 244.162 721.385 244.795C718.352 247.757 715.315 250.719 712.282 253.684C711.869 254.076 711.268 254.735 710.802 255.68C710.327 256.636 710.208 257.445 709.952 259.899C709.802 261.362 709.683 262.637 709.592 263.669C709.13 266.722 708.665 269.772 708.203 272.821C708.466 273.437 708.889 274.236 709.578 275.044C710.739 276.403 712.058 277.085 712.832 277.411C715.928 277.509 719.027 277.604 722.127 277.698C721.294 279.067 720.462 280.436 719.632 281.805L743.124 311.168C742.802 311.473 740.644 313.584 740.861 316.756C740.997 318.769 742.019 320.152 742.449 320.673C742.662 321.178 743.142 322.105 744.135 322.827C746.119 324.273 748.449 323.66 748.785 323.565C748.855 324.416 748.928 325.263 748.998 326.111L750.548 327.767C749.978 327.56 749.425 327.91 749.344 328.323C749.264 328.726 749.624 329.248 750.212 329.293C750.215 330.448 750.219 331.6 750.226 332.756C751.307 333.617 752.392 334.478 753.476 335.336C753.504 336.771 753.532 338.203 753.56 339.635C753.553 339.8 753.535 340.608 754.148 341.284C754.651 341.837 755.274 341.97 755.47 342.002C755.474 342.716 755.474 343.427 755.477 344.141L755.491 347.229L756.208 348.65L756.096 350.551L756.695 351.14C755.642 358.149 754.347 365.48 752.759 373.088C751.478 379.218 750.1 385.1 748.655 390.726C747.329 394.724 746.059 398.953 744.877 403.407C742.739 411.466 741.214 419.095 740.13 426.153C738.163 433.701 736.348 442.055 734.903 451.144C733.574 459.515 732.737 467.385 732.244 474.643C732.986 475.259 734.081 476.04 735.54 476.67C737.156 477.363 738.608 477.612 739.615 477.703C739.437 478.13 738.954 479.432 739.556 480.545C739.808 481.015 740.312 481.561 742.372 482.159C743.59 482.513 745.444 482.912 747.826 482.898C747.595 484.876 747.364 486.858 747.137 488.839C746.472 490.331 745.699 491.283 745.111 491.882C744.601 492.4 744.037 492.848 743.929 493.618C743.827 494.354 744.202 494.963 744.366 495.239C745.563 497.196 748.617 497.365 749.068 497.382C748.795 498.73 748.526 500.078 748.253 501.422L750.034 502.01C749.362 506.418 748.687 510.826 748.012 515.234C748.449 516.585 748.109 518.003 747.161 518.808C746.371 519.477 745.43 519.495 745.118 519.488C745.041 520.121 744.964 520.755 744.887 521.389L732.006 535.456C730.026 537.259 728.183 538.285 726.811 538.897C724.264 540.032 722.232 540.238 721.525 541.838C721.112 542.777 721.336 543.795 721.595 544.524C723.834 545.175 726.874 545.819 730.512 545.914C734.515 546.015 737.852 545.413 740.235 544.793C741.84 544.268 743.922 543.386 746.063 541.849C747.133 541.082 748.025 540.287 748.757 539.549C749.645 539.041 750.975 538.306 752.636 537.497C755.348 536.177 756.191 535.995 756.95 535.102C757.615 534.325 758.423 532.767 757.856 529.536C757.804 526.21 757.751 522.884 757.699 519.558L759.119 518.129C758.857 517.401 758.584 516.403 758.496 515.192C758.381 513.63 758.622 512.338 758.853 511.477C759.234 510.175 759.609 508.851 759.98 507.507C760.406 505.96 760.809 504.426 761.194 502.917C761.648 502.714 762.1 502.511 762.554 502.308C762.53 501.202 762.509 500.099 762.484 498.992L766.035 496.724C766.301 496.577 767.365 495.95 767.819 494.606C768.376 492.96 767.561 491.57 767.442 491.371C767.368 490.534 767.358 489.316 767.687 487.901C768.057 486.305 768.708 485.104 769.194 484.358C770.419 483.633 772.451 482.66 775.121 482.355C780.004 481.799 783.716 483.868 784.979 484.652C786.781 485.496 789.947 486.693 794.054 486.826C798.581 486.97 802.093 485.748 803.969 484.936C804.924 484.495 806.124 484.047 807.551 483.745C810.133 483.199 812.354 483.367 813.834 483.609C814.187 485.184 814.544 486.763 814.901 488.339L813.264 494.165L820.166 499.483V502.332C820.495 502.452 820.82 502.571 821.149 502.69C821.58 507.476 822.006 512.265 822.437 517.051C822.311 517.156 821.401 517.954 821.415 519.278C821.426 520.566 822.307 521.336 822.437 521.448C822.262 521.525 822.01 521.658 821.747 521.872C820.775 522.674 820.278 524.137 820.586 528.688C820.694 530.302 820.911 532.41 821.373 534.871C822.171 534.959 823.182 535.158 824.287 535.599C826.299 536.398 827.642 537.613 828.387 538.407C830.126 539.93 832.292 541.614 834.908 543.235C837.501 544.846 839.95 546.029 842.07 546.908C847.307 547.24 851.54 547.013 854.486 546.729C858.652 546.33 860.104 545.833 860.457 544.818C861.07 543.046 858.054 540.567 857.592 540.196L848.671 535.361C847.709 534.535 846.282 533.247 844.7 531.517C842.451 529.056 841.664 527.687 840.03 525.804C838.697 524.263 836.644 522.215 833.593 520.177C833.6 519.148 833.488 517.804 833.03 516.305C832.823 515.633 832.579 515.038 832.33 514.52C832.201 510.374 832.071 506.226 831.942 502.08C832.302 501.776 832.659 501.471 833.019 501.167C832.886 499.759 832.753 498.348 832.62 496.941C834.349 495.537 836.077 494.133 837.809 492.733C837.921 492.039 838.019 490.909 837.732 489.571C837.417 488.118 836.791 487.064 836.378 486.473C836.371 484.89 836.364 483.304 836.357 481.722L838.253 480.409C838.165 478.966 838.078 477.521 837.991 476.078C839.614 474.569 841.237 473.06 842.864 471.551C841.961 465.039 841.062 458.527 840.16 452.015L851.624 469.787L853.758 469.776L858.131 465.127C856.578 463.233 855.021 461.339 853.467 459.448C853.314 459.448 853.16 459.448 853.006 459.448C853.02 459.406 853.342 458.412 852.684 457.659C852.222 457.137 851.592 457.085 851.456 457.078C846.838 449.81 842.22 442.545 837.602 435.277L836.262 425.782L855.825 451.48L855.472 452.905L860.457 458.587L864.372 452.632L861.51 448.724L859.726 447.426L852.796 435.813L860.552 445.997L862.805 446.106L865.516 441.106L864.799 439.804L839.519 409.495L843.675 409.6L830.665 359.528L835.528 358.915L837.091 364.251C836.077 367.574 836.255 368.666 836.672 368.991C836.749 369.051 837.035 369.247 837.364 369.601C837.707 369.965 837.928 370.322 838.064 370.57C837.854 371.04 837.063 372.916 837.833 373.98C838.064 374.296 838.603 374.775 838.729 374.887C839.173 375.283 839.575 375.57 839.866 375.763C838.841 376.991 838.935 377.895 838.984 378.182C839.086 378.749 839.614 379.365 840.663 380.576C841.08 381.06 841.433 381.445 841.667 381.693C841.276 382.593 840.411 384.806 841.255 385.614C841.485 385.832 841.741 385.856 843.693 386.266C844.347 386.399 844.875 386.514 845.201 386.584C845.932 387.803 845.918 389.256 845.173 390.246C844.557 391.066 843.654 391.29 843.347 391.353C842.958 391.381 842.57 391.405 842.182 391.433C842.045 392.011 841.587 394.301 842.881 396.646C844.512 399.608 847.597 400.238 848.031 400.319C848.192 399.825 848.755 398.309 850.326 397.308C851.236 396.73 852.117 396.559 852.645 396.499C860.839 418.44 871.376 442.657 885.013 468.152C894.549 485.979 904.366 502.112 913.993 516.578C915.578 518.707 918.111 521.613 921.854 524.284C925.762 527.074 929.495 528.541 932.084 529.336C928.585 525.212 923.32 518.728 917.516 510.336ZM759.129 304.849C758.892 305.861 758.493 306.634 758.188 307.135C757.398 306.403 756.607 305.675 755.816 304.943C755.523 304.275 755.141 303.889 754.833 303.658C753.319 302.528 750.642 302.962 748.193 304.789L726.759 277.618H758.188C757.996 283.191 758.087 289.22 758.608 295.634C758.797 297.945 759.031 300.189 759.304 302.363C759.357 302.951 759.367 303.826 759.129 304.849ZM755.54 246.819L745.993 253.919L742.036 253.24L739.549 255.473L735.043 256.114L736.841 254.094L738.503 253.67L743.953 245.947C744.111 245.562 744.289 245.019 744.363 244.347C744.454 243.496 744.331 242.789 744.216 242.334C743.726 241.504 742.991 240.457 741.914 239.428C741.207 238.752 740.511 238.234 739.899 237.839C741.095 236.54 742.292 235.241 743.488 233.938L743.831 232.689C744.097 232.699 744.492 232.738 744.94 232.892C745.489 233.081 745.846 233.35 745.937 233.413C747.025 234.18 749.995 233.886 751.394 233.77C752.545 233.672 754.246 233.564 756.387 233.543C755.802 234.166 755.285 234.621 754.91 234.926C754.354 235.384 754.004 235.605 753.906 236.046C753.808 236.484 754.015 236.9 754.183 237.159L752.524 238.693C752.451 238.773 751.821 239.491 752.017 240.443C752.14 241.053 752.531 241.417 752.675 241.539C753.137 242.047 753.602 242.555 754.067 243.062C754.309 243.367 755.201 244.438 756.152 244.302C756.429 244.263 756.758 244.113 757.121 243.951C757.566 243.752 757.915 243.545 758.16 243.391C758.542 243.416 759.101 243.409 759.756 243.248C760.774 242.996 761.445 242.506 761.764 242.267C762.684 241.578 763.209 240.769 763.488 240.247C765.441 242.439 767.389 244.627 769.341 246.819H755.54Z" fill="black" fill-opacity="0.9"/>
</g>
<g filter="url(#filter1_d_803_651)">
<path d="M1197.99 313.106C1197.24 311.999 1196.5 310.89 1195.75 309.782C1194.15 310.082 1192.55 310.384 1190.95 310.684C1187.76 308.119 1185.04 307.632 1183.25 307.631C1183.12 307.631 1182.99 307.632 1182.85 307.638C1182.82 307.313 1182.75 306.812 1182.59 306.218C1182.32 305.2 1181.97 304.622 1181.52 303.644C1181.27 303.103 1180.93 302.3 1180.6 301.272C1181.83 300.359 1183.05 299.445 1184.28 298.532C1184.49 298.3 1184.89 297.806 1185.08 297.06C1185.29 296.255 1185.16 295.584 1185.08 295.278L1189.11 292.661H1186.53C1187.72 290.884 1188.94 288.84 1190.1 286.525C1192.04 282.636 1193.29 278.995 1194.11 275.901C1192.56 277.136 1191.01 278.368 1189.47 279.603C1189.65 275.449 1189.83 271.294 1190.01 267.14C1189.08 268.483 1188.14 269.828 1187.21 271.17C1186.57 266.791 1185.93 262.413 1185.29 258.034L1181.87 262.698C1181.88 261.165 1181.89 259.631 1181.9 258.098C1181.05 259.299 1180.19 260.497 1179.34 261.697C1178.62 258.465 1177.9 255.232 1177.18 252C1175.27 253.983 1173.36 255.965 1171.45 257.948C1170.13 259.029 1168.82 260.108 1167.51 261.188L1167.58 254.767C1166.04 256.222 1164.49 257.677 1162.95 259.133L1163.16 255.381C1161.27 257.004 1158.96 259.373 1156.95 262.645C1156.01 264.164 1155.29 265.627 1154.74 266.954C1154.45 265.674 1154.16 264.394 1153.86 263.112C1152.96 265.249 1151.51 269.546 1152.14 274.948C1152.51 278.11 1153.48 280.63 1154.31 282.347C1153.4 281.49 1152.46 280.526 1151.5 279.449C1150.17 277.943 1149.05 276.471 1148.11 275.105C1149.15 279.164 1150.2 283.224 1151.24 287.283C1151.08 289.571 1151.09 292.198 1151.46 295.068C1151.58 295.947 1151.72 296.79 1151.88 297.593C1152.31 296.598 1152.74 295.601 1153.18 294.606L1154.76 299.453C1155.12 299.823 1155.56 300.222 1156.08 300.609C1157.08 301.348 1158.06 301.792 1158.82 302.064C1159.11 302.74 1159.59 303.64 1160.39 304.535C1160.85 305.042 1161.31 305.439 1161.71 305.743C1161.92 307.241 1162.13 308.74 1162.34 310.24C1161.29 310.295 1159.69 310.504 1157.89 311.267C1155.96 312.09 1154.63 313.207 1153.86 313.962C1153.57 313.955 1153.24 313.97 1152.9 314.017C1151.57 314.202 1150.57 314.796 1149.97 315.242C1148.53 315.59 1146.78 316.139 1144.87 317.031C1143.02 317.899 1141.51 318.866 1140.33 319.728C1138.7 320.543 1137.07 321.358 1135.44 322.174C1135.02 323.247 1134.48 325.063 1134.6 327.334C1134.78 330.854 1136.42 333.321 1137.16 334.301C1137.06 334.846 1136.98 335.619 1137.11 336.525C1137.19 337.081 1137.33 337.556 1137.47 337.939C1137.34 338.809 1137.12 340.247 1136.83 342.036C1136.3 345.36 1136.18 345.956 1136.19 346.892C1136.2 348.146 1136.43 350.031 1137.58 352.347C1136.49 351.925 1134.95 351.479 1133.08 351.403C1129.4 351.256 1126.62 352.62 1125.35 353.353C1124.9 353.063 1124.22 352.69 1123.33 352.502C1121.57 352.132 1120.55 352.791 1118.88 352.823C1117.93 352.84 1116.58 352.658 1114.93 351.726V348.187L1114.36 347.583L1114.61 346.824C1114.52 346.265 1114.34 345.47 1113.89 344.602C1113.53 343.895 1113.12 343.362 1112.78 342.989C1112.5 342.739 1112.02 342.376 1111.36 342.287C1110.18 342.129 1108.93 342.894 1108.23 344.22C1107.93 344.002 1107.28 343.599 1106.36 343.47C1105.43 343.339 1104.69 343.552 1104.34 343.681C1103.08 344.915 1101.82 346.15 1100.56 347.386C1099.36 347.853 1098.8 348.966 1099.07 349.773C1099.29 350.444 1100.03 350.723 1100.17 350.774V351.482L1099.06 352.497C1099.1 352.774 1099.19 353.226 1099.47 353.708C1099.79 354.263 1100.2 354.597 1100.44 354.766H1100.74L1101.5 355.621C1101.56 355.942 1101.72 356.502 1102.16 357.034C1103.03 358.078 1104.29 358.173 1104.54 358.187C1104.53 358.34 1104.53 358.754 1104.8 359.146C1105.28 359.835 1106.16 359.801 1106.22 359.797C1107.01 360.315 1107.81 360.836 1108.6 361.354C1108.67 361.736 1108.93 362.906 1109.97 363.876C1110.94 364.769 1112.01 364.974 1112.41 365.029C1114.79 365.329 1116.17 366.161 1117 366.889C1117.67 367.483 1118.31 368.305 1119.6 368.691C1120.38 368.926 1121.19 368.934 1121.47 368.936C1122.28 368.94 1122.96 368.812 1123.44 368.691C1124.14 369.173 1125.25 369.836 1126.73 370.28C1128.9 370.934 1129.77 370.486 1133.76 370.506C1137.62 370.525 1138.39 370.951 1140.89 370.478C1142.26 370.218 1143.35 369.838 1144.07 369.555L1144.73 370.279L1143.97 371.021L1143.93 373.346L1144.64 373.697L1144.04 375.621L1145.41 376.576L1140.94 384.883C1140.51 386.497 1139.9 388.947 1139.35 391.967C1138.1 398.905 1138.09 403.877 1137.9 408.705C1137.73 413.067 1137.33 419.346 1136.3 427.111C1135.53 430.224 1134.86 434.188 1134.83 438.795C1134.82 441.615 1135.04 444.164 1135.37 446.375C1134.9 449.753 1134.57 453.422 1134.45 457.348C1134.4 459.015 1134.39 460.634 1134.42 462.2C1134.1 464.388 1133.89 467.119 1134.1 470.24C1134.34 474.07 1135.12 477.278 1135.9 479.686C1135.98 480.634 1136.08 482.111 1136.17 483.931C1136.31 486.895 1136.25 487.651 1136.54 488.832C1136.83 489.987 1137.49 491.651 1139.19 493.472L1140.67 496.955L1140.43 501.152L1142.56 502.761L1139.94 503.175C1139.62 503.635 1139.27 504.259 1139.03 505.05C1138.45 506.951 1138.86 508.609 1139.1 509.345L1140.06 510.555L1140.02 512.627C1139.94 512.756 1139.68 513.174 1139.72 513.74C1139.8 514.561 1140.45 514.997 1140.54 515.051C1140.16 515.88 1139.66 516.834 1138.98 517.837C1138.39 518.718 1137.78 519.459 1137.22 520.068C1135.99 521.242 1134.56 522.463 1132.94 523.675C1129.96 525.899 1127.07 527.502 1124.57 528.662C1124.05 528.896 1121.57 530.06 1120.74 532.72C1120.47 533.594 1120.45 534.394 1120.5 534.996L1120.61 537.271C1123.45 537.816 1127.68 538.296 1132.74 537.628C1138.07 536.925 1142.22 535.224 1144.86 533.89C1149.15 532.187 1151.48 531.623 1152.84 531.471C1153.2 531.431 1154.29 531.332 1155.36 530.614C1156.11 530.115 1156.58 529.494 1156.87 529.042L1156.81 527.171C1157.28 526.109 1157.89 524.328 1157.91 522.06C1157.93 518.891 1156.78 516.53 1156.16 515.446L1156.86 511.904L1156.55 511.602L1156.75 510.589L1158.92 509.52L1159.81 505.674C1159.4 505.315 1158.78 504.863 1157.94 504.52C1157.43 504.313 1156.96 504.191 1156.57 504.121C1156.6 503.834 1156.64 503.547 1156.67 503.261L1158.64 502.292L1158.63 500.421C1159.87 499.962 1161.61 499.217 1163.52 498.026C1165.08 497.062 1166.03 496.471 1166.9 495.436C1167.65 494.541 1168.39 493.269 1169.1 488.855C1169.42 486.842 1169.75 484.126 1169.83 480.865C1169.42 480.047 1168.82 478.712 1168.4 476.978C1167.91 475.01 1168.01 473.987 1167.62 471.825C1167.42 470.741 1167.06 469.127 1166.34 467.18C1166.96 465.247 1167.56 462.766 1167.82 459.844C1168.14 456.343 1167.87 453.345 1167.49 451.1C1168.05 447.979 1168.61 444.861 1169.17 441.741L1171.92 446.38C1172.57 449.119 1173.47 452.188 1174.73 455.468C1175.74 458.072 1176.82 460.411 1177.89 462.481C1178.08 464.438 1178.43 466.692 1179.03 469.149C1179.65 471.664 1180.42 473.863 1181.18 475.713C1181.02 477.263 1180.96 479.312 1181.3 481.678C1181.62 483.872 1182.19 485.699 1182.74 487.081L1181.81 494.517C1181.64 495.012 1181.36 496.095 1181.67 497.398C1182.14 499.399 1183.64 500.438 1184 500.674C1186.35 502.13 1188.7 503.587 1191.05 505.044L1193.16 503.266C1193.21 503.217 1193.41 503.031 1193.72 503.012C1194.09 502.989 1194.34 503.224 1194.38 503.262L1195.25 507.91L1198 507.898L1198.6 510.272L1195.47 512.306L1196.25 515.387L1198.07 516.188L1198.17 517.098C1198.11 517.318 1198.07 517.597 1198.13 517.907C1198.31 519.046 1199.52 519.569 1199.65 519.62C1199.52 519.855 1199.38 520.093 1199.25 520.328L1200.27 521.943C1200.07 523.777 1200.01 526.115 1200.45 528.766C1200.64 529.976 1200.92 531.074 1201.22 532.05L1202.13 533.564C1201.91 535.427 1201.79 537.55 1201.9 539.884C1201.95 540.82 1202.03 541.715 1202.13 542.562V544.229C1202.74 544.748 1206.73 547.999 1212.29 547.173C1216.88 546.491 1219.56 543.481 1220.21 542.695V539.763C1220.2 539.003 1220.11 538.006 1219.79 536.883C1219.35 535.368 1218.68 534.234 1218.15 533.503C1217.98 531.44 1217.56 528.829 1216.61 525.927C1215.8 523.471 1214.82 521.428 1213.91 519.821C1213.92 518.524 1213.93 517.227 1213.94 515.928L1213.09 516.488L1213.84 515.525L1213.83 513.959L1213.27 513.051L1214.69 511.983L1214.01 507.841L1210.63 508.259L1210.16 505.581L1212.38 504.713L1211.66 500.066C1211.89 499.99 1212.39 499.791 1212.82 499.303C1213.16 498.915 1213.3 498.518 1213.37 498.29C1214.66 498.211 1216.84 497.857 1218.7 496.311C1219.47 495.679 1220.11 494.735 1221.39 492.851C1222.07 491.848 1222.4 491.241 1222.54 490.42C1222.71 489.421 1222.5 488.569 1222.33 488.044C1221.55 486.553 1220.28 484.18 1218.56 481.336C1215.74 476.668 1214.31 475.01 1212.2 471.301C1211.13 469.404 1209.61 466.512 1208.13 462.723C1208.03 460.178 1207.94 457.635 1207.84 455.09L1200.74 434.594C1200.49 433.255 1200.29 431.766 1200.16 430.148C1200.06 428.756 1200.03 427.453 1200.05 426.257C1198.86 420.768 1197.68 415.279 1196.5 409.791C1196.02 407.871 1195.62 405.689 1195.41 403.275C1195.32 402.217 1195.26 401.201 1195.25 400.234C1195.19 396.643 1194.63 391.054 1191.9 384.938C1190.41 381.598 1188.65 378.933 1187.07 376.92L1187.22 375.454C1187.3 375.323 1187.49 374.951 1187.46 374.442C1187.43 373.944 1187.2 373.606 1187.11 373.482C1187.14 372.117 1187.16 370.753 1187.19 369.388L1187.19 368.63C1187.68 368.478 1187.98 368.043 1187.94 367.616C1187.9 367.185 1187.53 366.942 1187.49 366.909C1187.55 366.522 1187.62 366.135 1187.68 365.745C1187.81 365.692 1188.17 365.527 1188.39 365.136C1188.64 364.678 1188.59 364.095 1188.28 363.62C1188.86 363.668 1189.32 363.221 1189.32 362.762C1189.31 362.408 1189.03 362.065 1188.63 361.951C1188.96 361.662 1189.3 361.375 1189.64 361.087C1189.69 361.087 1190.48 361.058 1190.9 360.374C1191.19 359.898 1191.19 359.292 1190.89 358.808C1191.42 358.219 1192.12 357.539 1193.01 356.878C1193.75 356.329 1194.46 355.917 1195.08 355.606C1195.4 357.005 1196.01 358.834 1197.17 360.754C1197.72 361.66 1198.3 362.431 1198.85 363.073C1198.81 363.791 1198.72 367.472 1201.5 370.393C1203.27 372.246 1205.33 372.88 1206.27 373.105C1208.15 373.519 1211.26 373.931 1214.91 373.122C1216.82 372.7 1218.4 372.05 1219.61 371.435C1220.13 371.454 1222.2 371.469 1223.95 369.952C1224.97 369.065 1225.44 368.038 1225.66 367.468C1226.25 367.259 1228.41 366.421 1229.69 364.116C1230.51 362.638 1230.59 361.235 1230.58 360.523C1231.15 359.694 1231.72 358.866 1232.29 358.038L1234.66 355.501C1234.87 355.372 1235.28 355.076 1235.57 354.536C1235.78 354.13 1235.85 353.752 1235.87 353.524C1235.6 353.34 1235.33 353.156 1235.06 352.971C1235.3 352.717 1235.56 352.398 1235.81 352.009C1236.31 351.226 1236.54 350.474 1236.66 349.933C1236.17 349.361 1235.68 348.791 1235.19 348.22C1233.86 347.107 1232.86 346.159 1232.2 345.502C1231.31 344.63 1230.51 343.77 1229.2 343.39C1228.54 343.196 1228.1 343.231 1227.74 343.396C1227.13 343.673 1226.86 344.256 1226.78 344.461L1224.35 343.056C1224.24 342.986 1223.93 342.794 1223.49 342.807C1223.04 342.82 1222.73 343.037 1222.63 343.113C1221.73 344.448 1220.82 345.783 1219.92 347.116C1219.87 347.572 1220 347.863 1220.08 347.996C1220.45 348.634 1221.39 348.934 1222.4 348.674C1222.21 349.017 1222 349.477 1221.85 350.041C1221.64 350.814 1221.63 351.49 1221.65 351.963C1221.46 352.111 1221 352.499 1220.75 353.18C1220.45 353.98 1220.64 354.675 1220.7 354.899C1219.73 354.888 1218.75 354.878 1217.77 354.867C1217.24 354.55 1216.38 354.12 1215.24 353.91C1214.19 353.716 1213.3 353.78 1212.71 353.87C1212.83 353.397 1212.94 352.926 1213.06 352.453C1213.3 351.209 1213.5 349.505 1213.34 347.498C1213.16 345.128 1212.54 343.227 1212.01 341.943C1212.36 341.103 1212.71 340.067 1212.96 338.855C1213.12 338.046 1213.21 337.296 1213.25 336.629C1213.71 336.092 1214.24 335.351 1214.71 334.399C1215.07 333.651 1215.31 332.954 1215.46 332.375C1215.64 331.617 1215.81 330.825 1215.95 329.997C1216.42 327.319 1216.57 324.847 1216.53 322.664C1214.4 321.198 1211.95 319.673 1209.18 318.194C1206.38 316.695 1203.71 315.497 1201.28 314.534C1200.93 314.232 1200.57 313.93 1200.22 313.628L1198 313.104L1197.99 313.106Z" fill="black" fill-opacity="0.9"/>
</g>
<g filter="url(#filter2_d_803_651)">
<path d="M412.188 303.569C413.537 301.329 415.622 298.398 418.749 295.587C428.351 286.955 444.93 282.005 459.475 288.614C476.687 296.433 480.151 315.486 480.867 319.421C485.391 344.302 467.188 365.765 459.475 368.077C458.839 368.27 455.938 369.03 452.512 371.012C449.364 372.832 446.849 374.287 445.47 376.874C443.006 381.488 446.746 385.093 445.817 392.541C445.322 396.511 443.76 399.552 442.666 401.338C430.859 383.569 422.84 375.508 418.611 377.16C416.767 377.879 415.646 380.445 415.24 384.856C415.419 386.483 415.491 388.74 415.016 391.358C414.428 394.602 413.241 397.086 412.326 398.665C412.281 400.784 412.233 402.907 412.188 405.026C412.89 405.955 413.692 406.939 414.614 407.943C415.739 409.172 416.847 410.224 417.885 411.126C418.677 412.213 419.843 414.095 420.479 416.699C421.033 418.969 420.975 420.913 420.837 422.179C423.036 427.924 425.237 433.666 427.436 439.412C428.523 439.862 429.72 440.309 431.02 440.715C432.586 441.207 434.058 441.572 435.407 441.84L438.427 448.274C438.482 448.48 438.582 448.969 438.372 449.502C437.956 450.558 436.731 450.758 436.669 450.765C436.57 451.683 436.473 452.602 436.374 453.52L436.105 453.754C438.231 457.876 440.351 462.09 442.453 466.404C445.917 473.505 449.154 480.482 452.182 487.317C448.827 480.661 445.219 473.842 441.331 466.899C439.016 462.768 436.694 458.743 434.364 454.831C433.952 454.563 433.539 454.294 433.126 454.026C432.765 454.029 432.407 454.033 432.046 454.04L431.719 455.467L431.918 456.138C434.733 462.042 437.547 467.942 440.364 473.845C443.309 480.024 446.258 486.199 449.202 492.378C445.762 486.987 442.27 481.142 438.823 474.836C435.283 468.365 432.176 462.114 429.441 456.173L428.826 455.873C428.093 456.028 427.36 456.183 426.631 456.341C428.781 461.457 431.223 466.82 434.003 472.366C437.148 478.648 440.364 484.448 443.547 489.767C440.423 484.951 437.265 479.763 434.137 474.203C430.604 467.928 427.498 461.856 424.759 456.073C424.102 456.038 423.442 456.007 422.784 455.973L420.07 453.193L418.106 448.773L416.716 446.688L416.63 443.385L414.717 441.909L414.803 439.301L407.678 428.269C406.385 427.058 404.909 425.42 403.588 423.28C403.037 422.389 402.583 421.522 402.205 420.71C401.778 419.203 401.176 417.518 400.313 415.746C399.969 415.037 399.611 414.377 399.249 413.761C398.582 412.312 397.918 410.864 397.251 409.416L392.386 414.975L391.168 420.535L392.211 422.534L390.821 425.922L396.033 430.439C396.25 431.475 396.628 433.013 397.295 434.808C398.434 437.881 398.919 437.674 399.246 439.212C399.439 440.127 399.435 440.977 397.364 448.174C396.755 450.293 396.869 449.908 396.294 451.549C395.389 454.133 394.55 455.959 394.099 456.954C393.208 458.928 391.956 461.832 390.432 465.792C390.301 469.18 390.171 472.569 390.04 475.958L385.347 492.375L374.142 507.491V511.227L371.624 514.093V516.353L370.32 518.177L369.278 525.388L369.887 534.945L371.624 539.462L368.844 545.716L364.761 546.759L355.988 543.37L350.6 538.853L351.729 534.855L356.16 530.772L355.29 528.773L354.161 531.033L352.162 528.253L353.38 525.474L357.897 515.136L359.115 514.788L361.633 504.103L361.547 502.713L363.367 500.453C363.016 495.265 363.065 490.95 363.192 487.858C363.715 475.005 366.044 470.818 366.759 469.614C368.469 466.734 370.499 464.78 371.885 463.621C372.426 462.276 373.004 460.476 373.32 458.302C373.63 456.18 373.599 454.332 373.471 452.911C372.388 452.392 371.28 451.824 370.152 451.205C366.993 449.468 364.231 447.613 361.847 445.793C361.045 445.511 359.955 445.222 358.647 445.14C357.811 445.088 357.065 445.129 356.442 445.208C353.435 447.163 350.136 449.547 346.727 452.443C343.111 455.516 340.08 458.564 337.572 461.361V462.836C338.023 463.459 338.563 464.422 338.456 465.534C338.315 466.999 337.159 467.532 334.531 470.395C333.537 471.478 332.577 472.535 331.565 474.076C330.709 475.383 330.131 476.563 329.752 477.43C329.491 479.023 329.229 480.616 328.971 482.209C328.115 483.265 327.258 484.321 326.398 485.377C324.244 485.48 322.091 485.584 319.937 485.683C317.825 484.844 315.709 484.005 313.597 483.165C313.514 482.546 313.47 481.72 313.586 480.76C313.693 479.866 313.91 479.123 314.12 478.562C316.696 475.407 319.273 472.249 321.85 469.094L320.113 468.052L317.766 464.749L320.199 460.057C320.36 457.817 320.522 455.581 320.684 453.341C322.669 448.917 325.414 443.791 329.226 438.455C331.593 435.142 333.991 432.276 336.272 429.827C339.137 425.079 342.007 420.328 344.872 415.581C345.801 413.936 346.933 411.487 347.556 408.346C348.385 404.159 347.924 400.65 347.48 398.551C346.661 397.471 345.781 396.167 344.938 394.633C344.078 393.068 343.438 391.592 342.963 390.298C342.53 390.738 341.976 391.396 341.494 392.29C340.985 393.236 340.741 394.103 340.617 394.729C339.719 395.104 338.821 395.483 337.923 395.858C336.378 397.777 334.276 400.01 331.5 402.143C326.505 405.982 321.54 407.806 318.203 408.714C312.31 410.702 310.796 412.701 310.556 414.201C310.463 414.779 310.532 415.471 310.036 416.272C309.231 417.583 307.944 417.542 305.939 418.543C305.271 418.877 303.238 419.912 301.783 421.835C300.355 423.72 300.792 424.739 299.437 426.266C298.27 427.584 296.763 428.158 295.7 428.437C295.363 428.293 294.937 428.045 294.871 427.663C294.734 426.834 296.464 426.211 297.665 424.925C298.432 424.102 299.271 422.702 299.433 420.187C298.016 419.114 296.602 418.037 295.184 416.964C295.325 415.925 295.47 414.886 295.611 413.847C294.679 414.064 293.299 414.487 291.827 415.378C289.216 416.957 287.327 419.403 286.515 418.942C286.405 418.88 285.844 418.498 285.909 418.154C285.909 418.154 285.92 418.123 285.93 418.089C286.873 415.127 290.017 413.52 291.885 412.605C294.833 411.16 296.041 411.37 297.421 409.801C298.353 408.738 298.762 407.548 298.958 406.684C298.714 406.306 298.308 405.786 297.665 405.387C296.626 404.747 295.958 405.036 295.178 404.376C294.816 404.073 294.589 403.564 294.152 402.563C293.881 401.94 293.533 401.077 293.196 400.01C293.096 399.528 293.344 399.067 293.739 398.909C294.039 398.792 294.39 398.861 294.658 399.078C296.048 400.148 297.438 401.221 298.828 402.291L302.564 402.377C303.596 402.828 304.628 403.282 305.66 403.732C307.79 402.642 310.514 400.98 313.308 398.496C316.167 395.951 318.166 393.37 319.504 391.344C320.98 389.896 322.459 388.447 323.935 386.999L333.492 383.001C333.554 382.213 333.702 381.212 334.049 380.094C334.417 378.918 334.896 377.968 335.315 377.266C335.735 373.424 336.155 369.581 336.574 365.738C336.791 364.541 337.008 363.347 337.228 362.15C337.228 362.119 337.183 361.61 336.808 361.42C336.43 361.231 335.845 361.431 335.58 361.974C332.456 363.887 328.596 366.677 324.754 370.651C321.909 373.592 319.745 376.489 318.121 379C318.757 367.919 316.734 360.172 314.646 355.025C313.576 352.386 312.245 349.823 311.457 345.667C310.225 339.172 311.216 333.475 312.3 329.57C313.318 327.32 312.544 324.678 310.559 323.385C308.729 322.194 306.245 322.401 304.569 323.925C304.8 321.664 305.034 319.408 305.264 317.147C302.553 309.758 298.924 305.196 295.993 302.344C292.986 299.42 290.32 297.909 287.595 293.54C286.147 291.218 284.017 287.798 284.241 283.787C284.575 277.828 289.924 273.765 292.064 272.142C306.558 261.14 339.929 262.306 356.937 282.029C361.375 287.176 363.739 292.474 365.029 296.124C364.066 294.885 362.624 293.286 360.591 291.782C359.225 290.767 352.255 285.597 348.674 288.125C346.073 289.959 346.661 294.858 346.785 295.776C351.591 298.962 356.397 302.148 361.207 305.333C369.501 310.332 377.796 315.334 386.09 320.333C391.017 320.901 429.046 324.988 434.268 311.801C435.427 308.877 435.242 304.339 432.778 301.652C429.008 297.541 420.211 297.51 412.192 303.562L412.188 303.569Z" fill="black" fill-opacity="0.9"/>
</g>
<g filter="url(#filter3_d_803_651)">
<path d="M1077.77 312.743C1075.62 309.164 1074.54 307.374 1073.28 305.724C1070.35 301.871 1062.59 293.106 1051.63 282.019C1051.24 281.84 1050.84 281.66 1050.44 281.479L1049.1 279.551C1050.59 279.11 1053.81 277.938 1056.66 274.914C1059.87 271.512 1060.76 267.745 1061.04 266.224C1060.32 264.26 1059.6 262.298 1058.89 260.334C1058.05 259.083 1056.62 257.261 1054.36 255.646C1051.42 253.548 1048.53 252.829 1046.91 252.551C1047.18 252.702 1049.89 254.313 1050.05 257.248C1050.12 258.428 1049.75 259.376 1049.47 259.925C1049.61 260.27 1049.86 260.737 1050.27 261.211C1050.76 261.794 1051.3 262.145 1051.66 262.346C1051.89 262.311 1053.82 262.051 1055.28 263.472C1056.39 264.549 1056.51 265.899 1056.53 266.242C1056.46 266.614 1056.34 267.185 1056.11 267.85C1055.01 270.977 1052.63 272.89 1050.1 274.876C1049.39 275.433 1048.38 276.181 1047.11 276.982C1046.84 277.083 1046.44 277.199 1045.95 277.165C1045.02 277.096 1044.81 276.534 1043.78 276.282C1043 276.092 1041.89 276.114 1041.6 276.657C1041.48 276.885 1041.54 277.156 1041.61 277.35C1040.1 276.943 1038.84 277.208 1038.48 277.906C1038.41 278.046 1038.34 278.268 1038.39 278.601C1038.16 278.56 1037.22 278.423 1036.31 279.006C1035.69 279.407 1035.39 279.95 1035.27 280.199C1034.98 280.107 1033.6 279.702 1032.23 280.445C1031.5 280.835 1031.08 281.38 1030.87 281.703C1030.37 281.537 1029.68 281.244 1028.98 280.721C1027.92 279.93 1027.34 279.006 1027.04 278.448V276.96L1030.66 279.176L1028.56 273.486H1035.25L1028.44 267.937C1028.58 267.719 1028.73 267.508 1028.91 267.308C1030.39 265.662 1032.64 265.499 1033.58 265.488C1030.44 264.394 1027.3 263.298 1024.15 262.204L1027.7 256.839L1019.78 258.157L1018.5 249.392C1017.99 250.686 1017.19 252.314 1015.94 254.009C1015.04 255.245 1014.11 256.229 1013.28 256.994C1012.71 256.01 1012.03 254.961 1011.24 253.88C1010.01 252.211 1008.76 250.819 1007.6 249.68C1006.77 252.211 1005.94 254.741 1005.11 257.272L995.674 253.443L998.375 259.875L989.41 261C990.588 262.449 991.766 263.898 992.944 265.348C991.15 266.726 989.354 268.105 987.56 269.483L992.222 270.603C991.914 271.32 991.606 272.035 991.298 272.752C992.22 272.81 993.142 272.868 994.064 272.927L993.924 274.908L977.556 271.354L978.038 267.883C978.471 267.155 978.376 266.239 977.832 265.654C977.211 264.99 976.134 264.891 975.353 265.466C975.122 265.608 974.89 265.751 974.659 265.895C973.615 264.855 972.374 264.39 971.485 264.786C971.317 264.861 971.127 264.982 970.94 265.184C969.183 264.196 967.563 263.898 966.878 264.575C966.781 264.669 966.695 264.792 966.628 264.954C965.821 264.153 964.804 263.896 964.147 264.269C964.01 264.349 963.783 264.514 963.605 264.868C963.359 265.21 963.111 265.552 962.866 265.895C962.373 265.4 961.576 264.626 960.527 263.739C959.153 262.572 958.582 262.255 957.745 261.42C957.131 260.81 956.284 259.832 955.503 258.357C955.625 256.811 955.912 255.609 956.134 254.836C956.717 252.786 958.184 249.056 960.015 246.049C960.21 245.724 960.658 245.005 960.699 244.014C960.712 243.732 960.719 242.745 959.896 241.44C954.882 233.481 947.631 233.026 947.631 233.026C946.365 232.946 943.938 232.974 941.037 234.228C941.437 234.211 943.739 234.137 945.165 235.806C945.531 236.235 945.76 236.687 945.904 237.084C946.052 237.224 946.416 237.523 946.948 237.575C947.65 237.646 948.359 237.254 948.777 236.577C949.156 237.303 949.783 238.341 950.771 239.394C952.285 241.012 953.119 241.029 953.853 242.158C955.016 243.943 954.465 246.237 954.122 247.658C953.801 248.989 953.5 249.211 951.223 253.763C949.806 256.593 949.397 257.56 949.804 258.527C950.052 259.12 950.48 259.41 952.19 260.451C953.472 261.23 954.882 262.072 956.411 262.962C957.241 263.543 958.231 264.359 959.196 265.479C959.795 266.171 960.266 266.845 960.641 267.454C960.083 268.365 959.526 269.276 958.968 270.187L957.185 270.639C956.45 271.677 955.509 272.84 954.325 274.021C952.696 275.638 951.081 276.816 949.729 277.656C948.447 279.166 947.164 280.673 945.88 282.181C944.976 282.945 943.864 284.035 942.822 285.512C942.006 286.667 941.437 287.767 941.037 288.691C940.005 289.82 938.973 290.946 937.94 292.075C937.619 292.572 937.147 293.352 936.66 294.357C936.228 295.255 936.202 295.471 935.874 296.095C934.907 297.95 934.197 297.87 934.031 298.725C933.699 300.435 936.101 302.987 938.282 303.668C938.661 303.786 939.415 303.969 940.268 304.553C940.935 305.011 941.386 305.524 941.661 305.886C944.147 307.626 946.63 309.368 949.115 311.111C951.075 312.243 953.035 313.376 954.994 314.509C955.539 314.701 956.358 315.05 957.21 315.687C958.134 316.38 958.664 317.091 958.802 317.268C959.571 318.252 961.666 319.93 967.298 322.984C968.164 324.73 969.03 326.479 969.895 328.225C970.277 332.897 970.824 337.846 971.588 343.036C972.361 348.278 973.277 353.221 974.272 357.844C974.478 358.282 974.847 359.231 974.679 360.42C974.603 360.952 974.442 361.389 974.287 361.71C973.729 363.409 973.19 365.44 972.824 367.76C972.499 369.812 972.372 371.684 972.351 373.314C972.54 373.781 972.859 374.41 973.397 375.043C974.287 376.086 975.31 376.588 975.883 376.818C976.193 380.318 976.505 383.819 976.815 387.321L978.551 387.959C978.325 388.334 978.107 388.747 977.913 389.199C976.841 391.697 977.022 394.11 977.293 395.596C976.608 397.381 975.936 399.457 975.385 401.796C974.778 404.372 974.446 406.734 974.272 408.789C972.822 413.141 971.444 418.192 970.414 423.869C969.045 431.43 968.633 438.238 968.659 443.947C968.543 443.848 968.427 443.749 968.31 443.65L968.373 447.07C968.106 447.233 967.871 447.414 967.664 447.604C965.067 450.014 966.176 454.849 966.426 455.848C965.866 456.386 965.088 457.218 964.354 458.361C963.079 460.347 962.674 462.115 962.34 463.446C961.847 465.432 961.065 468.255 959.797 471.931C959.097 473.77 958.182 476.581 957.648 480.115C957.327 482.243 957.288 483.684 957.131 487.353C957.03 489.75 956.866 493.336 956.627 497.812C957.114 498.089 958.201 498.806 958.817 500.183C958.884 500.331 959.054 500.738 959.218 501.667C959.371 502.528 959.515 503.809 959.381 505.433C958.714 505.965 958.048 506.497 957.381 507.029C957.251 507.322 956.287 509.592 957.465 511.39C957.648 511.668 957.93 512.008 958.367 512.325L958.436 517.379L957.35 518.275L957.366 522.191L957.322 523.924L958.022 525.458C957.643 525.895 957.15 526.571 956.791 527.495C956.575 528.053 956.461 528.563 956.401 528.983C956.222 529.843 956.043 530.704 955.864 531.563L954.335 533.204L950.004 540.902L948.172 541.207L946.449 544.384L946.455 545.823L945.419 547.065C945.258 547.414 945.094 547.847 944.978 548.355C944.758 549.327 944.806 550.164 944.887 550.735C944.874 551.932 945.163 552.807 945.473 553.416C947.03 556.481 951.665 557.935 957.053 557.08C958.628 555.947 960.611 554.258 962.485 551.855C965.235 548.329 966.525 544.836 967.158 542.571C967.621 542.635 968.082 542.7 968.545 542.762C969.15 542.12 969.816 541.328 970.468 540.376C971.117 539.433 971.614 538.535 971.995 537.744C972.017 536.67 972.038 535.595 972.06 534.52C971.918 534.456 971.778 534.391 971.636 534.326L971.054 525.111C971.648 524.698 971.939 524.004 971.791 523.373C971.648 522.766 971.157 522.453 971.043 522.385C971.388 521.723 971.732 521.062 972.077 520.399L971.892 511.033C972.301 510.458 972.954 509.353 973.07 507.858C973.109 507.333 973.076 506.863 973.014 506.469C972.467 505.894 971.92 505.317 971.373 504.742L972.348 501.07L975.811 499.323L976.139 494.316C976.3 492.712 976.664 490.048 977.597 486.877C979.147 481.61 981.036 479.15 984.081 472.183C984.837 470.452 985.94 467.814 987.125 464.49C987.202 463.267 987.28 462.044 987.357 460.823C990.501 456.186 992.597 452.204 993.904 449.497C996.88 443.34 997.645 439.907 1001.17 432.027C1002.99 427.956 1004.64 424.736 1005.7 422.74C1006.83 420.955 1008.36 420.321 1009.06 420.746C1009.77 421.183 1009.58 422.725 1009.56 422.876C1009.1 422.889 1008.88 423.031 1008.77 423.175C1008.01 424.138 1010.5 427.116 1010.72 427.379C1010.68 427.672 1010.62 428.432 1011.02 429.261C1011.4 430.026 1011.97 430.435 1012.22 430.594C1012.49 433.254 1012.77 435.912 1013.04 438.571C1012.88 438.903 1012.61 439.597 1012.65 440.505C1012.69 441.343 1012.98 441.968 1013.16 442.286C1013.52 442.351 1013.88 442.416 1014.25 442.48L1014.62 449.863C1014.54 450.031 1014.43 450.287 1014.33 450.608C1013.7 452.49 1013.93 454.28 1014.39 456.117C1015.53 460.629 1018.27 466.31 1018.55 466.896C1018.33 468.182 1018.15 469.627 1018.07 471.21C1017.96 473.702 1018.13 475.911 1018.4 477.75C1018.68 481.366 1018.95 484.982 1019.23 488.6L1020.56 497.712L1020.98 503.708L1025.34 505.177L1025.86 509.982L1024.72 511.375C1024.74 512.928 1024.77 514.481 1024.79 516.033C1025.1 516.346 1025.42 516.658 1025.73 516.97C1025.66 517.978 1025.58 518.986 1025.5 519.994C1025.82 521.198 1026.14 522.404 1026.45 523.608C1026.12 523.905 1025.91 524.209 1025.79 524.465C1024.82 526.403 1026.62 528.779 1026.72 528.91C1026.76 529.819 1026.79 530.726 1026.83 531.634C1026.99 531.787 1027.44 532.248 1027.53 532.97C1027.57 533.271 1027.53 533.53 1027.48 533.715C1027.44 535.102 1027.4 536.489 1027.35 537.878L1027.8 539.263L1027.92 543.822C1028.24 544.382 1028.64 544.985 1029.12 545.601C1030.07 546.843 1031.08 547.778 1031.95 548.465C1032.17 548.448 1032.38 548.431 1032.59 548.413C1033.34 549.79 1034.39 551.446 1035.84 553.158C1037.22 554.799 1038.62 556.063 1039.81 557.006C1040.72 557.521 1044.07 559.263 1048.46 558.477C1052.99 557.668 1055.56 554.711 1056.2 553.92V550.698C1056.17 550.212 1056.03 549.324 1055.49 548.372C1054.96 547.444 1054.29 546.88 1053.9 546.596C1052.8 545.179 1051.71 543.764 1050.61 542.347L1049.67 542.351L1042.05 532.072C1041.86 531.863 1041.59 531.518 1041.4 531.034C1041.18 530.482 1041.14 529.993 1041.15 529.696C1040.9 529.367 1040.65 529.037 1040.4 528.708L1040.79 528.507L1040.43 524.148L1039.73 523.358L1039.01 516.126C1040.43 513.876 1040.42 511.582 1039.34 510.624C1039.13 510.436 1038.65 510.107 1037.75 510.085C1037.71 508.366 1037.67 506.65 1037.63 504.931L1040.8 503.829C1041.01 500.325 1041.22 495.107 1040.99 488.762C1040.78 482.947 1040.35 479.919 1040.04 475.435C1039.7 470.32 1039.51 463.028 1040.31 453.976C1041.63 453.923 1042.95 453.867 1044.27 453.813L1042.99 429.981L1039.72 430.142L1039.61 428.359C1040.02 428.034 1040.33 427.687 1040.57 427.342C1043.05 423.819 1039.93 418.148 1039.57 417.505C1039.56 414.218 1039.55 410.932 1039.53 407.643C1039.76 406.405 1039.33 405.257 1038.48 404.774C1038.03 404.514 1037.55 404.503 1037.24 404.531C1037.03 401.888 1036.82 399.246 1036.62 396.603C1036.44 394.896 1036.03 392.695 1035.11 390.267C1034.48 388.62 1033.75 387.233 1033.06 386.111C1033.49 385.797 1033.91 385.48 1034.34 385.165L1033.28 380.016L1032.98 377.985C1034.09 377.135 1035.41 375.883 1036.48 374.107C1037.33 372.705 1038.05 371.499 1037.95 369.888C1037.8 367.555 1036.01 366.039 1035.51 365.634C1035.18 365.35 1034.56 364.719 1034.21 363.707C1033.76 362.408 1034.03 361.286 1034.15 360.883C1033.72 356.557 1033.29 352.23 1032.86 347.903C1032.64 346.682 1032.47 345.323 1032.4 343.842C1032.24 340.641 1032.59 337.859 1033.06 335.662C1033.78 334.503 1034.5 333.345 1035.23 332.186C1038.85 331.447 1041.83 330.7 1043.99 330.119C1047.74 329.111 1051.05 328.058 1054.98 326.806C1056.41 326.352 1057.59 325.966 1058.39 325.704C1063.42 325.206 1067.45 324.159 1070.33 323.229C1075.07 321.694 1079.44 320.225 1079.86 317.462C1079.98 316.697 1079.76 316.053 1077.77 312.743ZM993.924 298.579C992.957 299.022 992.627 301.016 993.342 303.549C992.681 303.472 991.766 303.448 990.719 303.674C990.196 303.788 989.739 303.943 989.356 304.103C988.303 303.431 987.497 302.905 987.058 302.617C984.672 301.055 983.692 300.355 982.298 300.398C981.923 300.411 981.622 300.474 981.448 300.517V299.778C980.56 299.862 979.641 299.974 978.689 300.121C976.451 300.465 974.407 300.943 972.577 301.477C972.512 301.258 972.167 300.157 971.127 299.681C969.956 299.145 968.371 299.617 967.421 300.932C966.626 300.009 965.526 298.923 964.055 297.922C961.195 295.977 958.371 295.333 956.676 295.092C957.303 294.444 957.981 293.657 958.647 292.718C959.577 291.407 960.23 290.151 960.693 289.09C960.878 288.695 961.141 288.235 961.513 287.759C962.19 286.897 962.939 286.357 963.475 286.038C965.48 284.61 967.182 283.398 968.724 282.342C969.394 281.884 970.479 281.153 970.748 279.887C970.852 279.403 970.806 278.976 970.75 278.688C971.95 278.767 972.738 278.823 973.246 278.862C974.063 278.92 974.543 278.959 975.116 278.716C975.303 278.636 975.725 278.431 976.074 278.024C976.957 277.001 976.632 275.571 976.585 275.384C976.587 275.349 976.643 274.716 977.216 274.419C977.804 274.113 978.368 274.458 978.389 274.473L993.286 279.265C993.372 279.728 993.458 280.189 993.542 280.652C993.545 281.203 993.545 281.754 993.545 282.303C993.01 282.999 992.27 284.175 991.951 285.779C991.231 289.402 993.252 292.262 993.667 292.826C993.501 293.151 993.336 293.548 993.211 294.015C992.916 295.12 993 296.085 993.107 296.69C993.191 296.576 993.517 296.16 994.098 296.046C994.415 295.983 994.679 296.035 994.83 296.078C994.942 296.937 995.056 297.797 995.17 298.656C994.509 298.389 994.124 298.488 993.924 298.579ZM1047.76 306.698C1045.29 307.299 1043.46 308.367 1042.36 309.138C1042.3 308.985 1041.48 306.991 1039.35 306.538C1037.76 306.2 1036.09 306.851 1035.1 308.199C1033.2 307.71 1030.5 307.234 1027.26 307.359C1024.41 307.469 1022.04 308.009 1020.3 308.546C1019.99 308.281 1019.53 307.949 1018.92 307.691C1018.52 307.525 1018.16 307.428 1017.86 307.37C1017.58 307.016 1017.38 306.67 1017.25 306.355C1016.24 304.092 1017.37 301.719 1017.68 301.109C1018.09 300.786 1018.37 300.801 1018.48 300.818C1019.11 300.915 1019.65 301.899 1019.59 303.295C1019.67 301.329 1019.74 299.362 1019.81 297.396C1020.7 296.75 1022.17 295.507 1023.34 293.479C1024.39 291.642 1024.76 289.932 1024.91 288.876C1024.87 288.771 1024.7 288.312 1024.21 288.067C1023.54 287.726 1022.88 288.097 1022.83 288.125C1023.12 287.446 1023.41 286.768 1023.69 286.09C1024.08 286.309 1024.33 286.277 1024.45 286.24C1025.06 286.062 1025.44 284.955 1025.23 283.473C1025.2 283.35 1025.2 283.253 1025.25 283.18C1025.55 282.695 1027.61 283.301 1031.43 284.996C1031.35 285.538 1031.31 286.428 1031.65 287.427C1031.78 287.817 1032.37 289.402 1033.87 290.209C1034.46 290.53 1034.52 290.36 1035.49 290.789C1036.73 291.334 1037.05 291.79 1037.65 292.034C1038.39 292.335 1039.58 292.329 1041.61 290.955C1041.26 291.562 1040.9 292.462 1041.15 293.369C1041.42 294.34 1042.29 294.868 1042.66 295.111C1044.54 296.334 1045.7 298.413 1047.26 300.026C1048.61 301.43 1050.49 303.493 1052.7 306.293C1051.49 306.205 1049.76 306.217 1047.76 306.698Z" fill="black" fill-opacity="0.9"/>
</g>
<g filter="url(#filter4_d_803_651)">
<path d="M705.36 526.294C625.57 527.505 481.661 529.773 385.628 531.588C227.186 534.462 205.813 535.067 150.53 539.151C91.5416 543.538 89.5468 543.84 75.0135 549.134C60.4802 554.428 37.3979 569.402 27.424 579.536C24.5743 582.561 22.8645 587.855 23.1495 593.905C23.4345 602.829 23.4345 603.132 26.8541 599.199L30.2737 594.964L37.1129 602.678C40.8175 606.913 44.807 610.695 45.6619 610.997C46.8018 611.3 47.3717 604.342 47.3717 595.418C47.0867 584.074 48.2266 578.175 51.0763 575.452L55.0658 571.671L58.4854 577.116C69.8841 594.51 97.2409 613.115 120.608 619.467C131.152 622.341 132.292 622.341 143.121 620.224C154.234 617.804 154.519 617.804 171.902 622.946C181.591 625.82 206.953 631.87 228.326 636.559L267.081 645.181L317.235 642.004L367.675 638.828L387.337 647.601C422.673 663.483 436.637 667.566 495.91 679.818C550.338 691.162 556.038 691.918 602.202 695.7L650.647 699.481L676.864 712.943C691.112 720.354 705.645 727.161 709.065 728.068C715.049 729.732 715.334 729.581 715.334 721.867C715.334 714.455 716.474 713.094 731.292 703.263C740.126 697.364 747.536 692.523 747.821 692.221C748.391 692.07 774.038 687.078 805.384 681.331L861.807 670.591L899.993 675.28C935.614 679.516 942.453 679.818 994.317 679.818H1050.17L1149.91 658.642L1249.65 637.467L1315.19 610.241C1377.31 584.528 1382.44 582.107 1413.5 561.991C1431.46 550.344 1446.56 540.966 1446.84 541.269C1447.13 541.42 1446.27 550.193 1444.56 560.932C1442.86 571.52 1442.29 580.595 1442.86 581.049C1444.28 581.805 1457.67 563.654 1461.09 555.94L1463.66 550.798L1468.79 560.478L1474.2 570.158L1476.77 563.352C1481.04 551.857 1475.63 534.311 1465.65 528.563C1464.8 528.11 1367.34 527.353 1248.79 526.748C1130.25 526.294 992.037 525.387 941.883 525.084C891.729 524.631 785.436 525.236 705.36 526.294ZM1204.05 527.807C1312.34 528.261 1415.21 529.017 1432.88 529.471C1461.09 530.227 1465.37 530.681 1467.93 533.403C1474.2 539.605 1478.19 558.36 1473.63 560.781C1471.35 561.991 1470.5 561.688 1470.5 559.571C1470.21 557.907 1468.5 554.428 1466.51 552.008L1462.8 547.47L1459.38 554.277C1457.39 558.058 1453.4 564.411 1450.55 568.646L1445.13 576.209L1446.27 567.89C1447.13 563.352 1448.27 554.882 1449.41 549.285L1451.12 539L1460.81 542.327C1466.22 543.991 1470.5 544.899 1470.5 544.143C1470.5 543.538 1461.66 540.664 1451.12 537.941L1432.03 532.798L1402.39 534.462C1365.34 536.58 1292.68 536.58 1241.95 534.614C1208.04 533.252 1195.22 533.403 1146.49 536.126C1111.15 538.092 1074.96 541.269 1049.89 544.445C1011.7 549.285 952.712 554.277 933.334 554.277C928.775 554.277 913.386 551.857 899.423 548.983L874.061 543.689H824.477C783.441 543.689 769.193 543.084 738.417 539.907C704.791 536.429 699.091 536.277 674.869 537.639C656.061 538.849 638.108 538.849 612.746 537.639C582.825 536.277 565.727 536.429 504.459 539C464.563 540.664 401.586 543.084 364.825 544.445C324.645 545.958 283.324 548.378 260.812 550.647L223.766 554.428L177.602 551.857C141.411 549.89 125.168 549.739 102.085 550.949C85.8422 551.705 72.4488 552.31 71.8789 552.008C71.3089 551.857 75.2985 550.193 80.7128 548.378C88.4069 545.958 104.65 544.143 151.1 540.664C205.813 536.58 227.471 535.975 385.628 533.101C677.149 527.807 846.704 525.689 929.06 526.446C972.09 526.748 1096.05 527.353 1204.05 527.807Z" fill="black" fill-opacity="0.9" shape-rendering="crispEdges"/>
</g>
<g filter="url(#filter5_d_803_651)">
<path d="M660.987 537.539C660.306 537.357 659.631 537.169 658.95 536.981C659.002 536.838 659.495 535.216 658.457 533.892C657.782 533.029 656.855 532.795 656.563 532.737C654.643 531.952 652.632 531.043 650.543 529.992C647.339 528.383 644.485 526.689 641.975 525.041C638.874 519.408 635.495 512.017 632.984 503.004C629.605 490.869 629.034 480.201 629.241 472.492C628.067 469.449 626.926 466.217 625.856 462.811C624.26 457.723 623.008 452.85 622.035 448.256C623.177 447.516 624.396 446.439 625.337 444.875C627.938 440.572 626.323 436.063 626.024 435.238C624.759 431.695 622.178 429.788 621.205 429.145C617.391 421.326 613.583 412.702 609.983 403.299C605.669 392.021 602.329 381.36 599.715 371.555C599.929 371.71 600.149 371.873 600.383 372.035C602.893 381.463 606.078 391.651 610.126 402.384C613.226 410.586 616.482 418.192 619.765 425.193C621.075 425.167 622.385 425.141 623.695 425.109C624.591 424.778 626.504 424.207 628.917 424.57C630.189 424.765 631.259 425.167 632.102 425.602C630.474 424.415 628.58 422.74 626.841 420.443C625.187 418.25 624.15 416.135 623.494 414.473C623.248 413.487 622.774 411.917 621.814 410.152C620.79 408.27 620.063 407.738 618.143 404.96C616.839 403.079 616.898 402.923 615.464 400.756C614.595 399.445 613.265 397.511 611.455 395.233C610.781 394.091 609.873 392.469 608.887 390.477C605.909 384.423 604.223 378.868 604.521 378.745C604.787 378.634 606.312 382.898 609.989 388.368C611.176 390.133 612.37 391.749 613.551 393.228C614.219 394.137 615.205 395.506 616.34 397.206C620.932 404.104 623.001 408.964 625.375 413.468C627.179 416.881 629.929 421.547 634.042 426.874C634.301 427.218 634.567 427.562 634.839 427.906C636.176 429.463 637.512 431.027 638.848 432.591C639.425 433.175 640.308 433.35 641.066 433.026C641.812 432.701 642.292 431.948 642.279 431.131C642.558 430.469 643.084 429.457 644.037 428.464C645.146 427.322 646.321 426.744 647.021 426.459C648.565 426.348 649.771 426.271 650.569 426.225C651.406 426.173 652.055 426.141 652.119 425.888C652.191 425.576 651.341 425.122 651.114 425.005C650.394 424.622 649.084 424.129 647.021 424.356C645.588 423.143 643.415 421.209 641.008 418.613C634.042 411.099 634.152 407.803 627.639 399.6C624.033 395.058 622.152 393.903 619.356 390.938C617.631 389.114 616.489 387.635 615.516 386.35C613.778 384.066 611.598 380.847 609.496 376.655C610.573 377.012 611.592 377.291 612.539 377.518C609.062 372.658 604.333 364.832 601.401 354.255C597.931 341.75 598.534 331.056 599.384 324.73C600.026 322.66 601.187 319.798 603.36 316.858C604.696 315.048 606.085 313.653 607.298 312.595C611.579 310.246 615.211 308.981 617.598 308.28C623.209 306.625 632.751 304.886 638.939 301.181C639.373 300.921 639.964 300.551 640.424 299.85C642.351 296.976 639.672 292.323 637.453 287.619C635.845 284.192 633.743 279.183 631.875 272.596C630.675 273.907 629.475 275.218 628.275 276.535L623.683 277.515L611.228 263.09C610.748 261.967 609.711 259.982 607.648 258.223C606.149 256.951 604.651 256.27 603.626 255.893C599.929 254.252 596.238 252.603 592.547 250.962C590.75 249.359 588.954 247.75 587.157 246.147C585.237 246.225 583.31 246.296 581.39 246.367L572.231 248.334V250.631C570.402 250.533 567.496 250.644 564.337 251.974C557.448 254.881 554.77 261.292 554.205 262.759C548.062 264.232 542.763 267.84 541.732 272.473C540.22 279.241 547.576 289.28 561.087 290.96C561.327 291.707 561.866 293.011 563.04 294.27C564.078 295.386 565.18 295.996 565.875 296.307C565.68 298.708 565.485 301.109 565.291 303.51C562.469 304.789 559.647 306.073 556.826 307.352C555.068 307.845 552.577 308.818 550.248 310.869C543.995 316.352 544.3 324.723 544.372 326.04C543.885 330.505 542.899 335.878 540.94 341.75C539.786 345.203 538.475 348.278 537.159 350.958C534.661 353.152 531.593 355.494 527.915 357.694C526.125 358.765 524.387 359.68 522.739 360.465C523.939 361.12 525.146 361.776 526.346 362.431L529.297 365.384L519.788 383.417L516.843 389.977L514.877 396.531C514.741 398.212 515.176 399.399 515.474 400.016C516.752 402.728 519.995 404.526 521.429 403.747C521.941 403.468 522.194 402.877 522.551 402.981C523.057 403.124 522.81 404.383 523.446 404.766C523.777 404.973 524.374 404.947 525.515 404.201C526.605 405.226 528.175 405.486 529.407 404.876C530.919 404.13 531.677 402.177 530.977 400.399C530.503 399.652 530.023 398.731 529.66 397.628C529.563 397.336 529.479 397.044 529.407 396.765C529.277 393.488 529.154 390.211 529.024 386.934C532.689 381.1 536.354 375.266 540.019 369.433L543.995 374.475C543.288 375.266 542.581 376.065 541.874 376.863C544.437 376.24 547.005 375.623 549.567 375L551.423 377.395L546.382 385.883L545.591 393.046C545.195 393.695 544.8 394.338 544.404 394.987C543.918 397.44 543.425 399.886 542.938 402.339L537.898 413.487C536.335 419.781 534.772 426.076 533.208 432.377C532.391 432.928 530.004 434.706 529.024 437.99C528.862 438.541 527.604 443.019 530.348 446.516C532.086 448.729 534.538 449.411 535.751 449.748C537.678 450.287 539.358 450.228 540.415 450.111C538.164 456.568 535.907 463.025 533.649 469.481C533.857 477.19 533.286 487.858 529.907 499.993C527.396 509.006 524.017 516.397 520.916 522.03C518.406 523.678 515.552 525.372 512.348 526.981C510.259 528.032 508.248 528.941 506.328 529.726C506.036 529.784 505.109 530.018 504.434 530.881C503.396 532.205 503.889 533.827 503.941 533.97C503.26 534.158 502.585 534.346 501.904 534.528C501.878 535.845 501.846 537.169 501.813 538.486H521.189C527.76 537.117 534.33 535.754 540.901 534.385C540.856 533.438 540.804 532.49 540.752 531.536C539.539 531.556 538.32 531.569 537.107 531.582C537.418 530.777 537.911 529.187 537.697 527.169C537.528 525.56 536.971 524.333 536.575 523.62C536.328 522.718 536.108 521.653 535.998 520.459C535.783 518.208 536.017 516.287 536.309 514.866C541.349 501.771 546.389 488.676 551.429 475.587C551.533 470.98 551.935 465.886 552.824 460.429C553.193 458.171 553.621 456.016 554.082 453.959C559.07 454.602 563.98 452.506 566.77 448.509C570.402 443.311 568.625 437.51 568.411 436.841C568.742 434.22 569.248 431.313 570.013 428.191C570.791 424.992 571.712 422.111 572.653 419.587C573.645 410.21 574.943 403.468 575.676 403.351C576.714 403.182 577.531 403.617 577.531 403.617C578.076 403.909 578.406 404.337 578.588 404.623C582.889 417.218 587.189 429.814 591.49 442.415C591.866 451.085 596.18 456.769 600.188 456.899C600.629 456.912 601.92 456.886 603.607 455.711H603.613C606.227 463.343 608.848 470.967 611.468 478.598C616.508 491.687 621.548 504.782 626.588 517.877C626.88 519.298 627.114 521.219 626.9 523.47C626.79 524.664 626.569 525.729 626.323 526.631C625.927 527.344 625.369 528.571 625.2 530.18C624.986 532.198 625.479 533.788 625.791 534.593C624.578 534.58 623.358 534.567 622.145 534.547C622.093 535.501 622.041 536.449 621.996 537.396C628.567 538.765 635.138 540.128 641.709 541.497H661.077C661.045 540.18 661.013 538.856 660.987 537.539ZM552.324 358.907C550.962 361.536 549.418 363.56 548.114 365.02C549.626 362.061 551.17 358.577 552.525 354.599C553.647 351.315 554.458 348.233 555.048 345.449C555.107 347.058 555.172 348.674 555.23 350.29C554.841 352.503 554.05 355.579 552.324 358.907ZM595.129 294.718C594.247 294.867 592.897 295.204 591.438 296.035C590.063 296.82 589.116 297.748 588.545 298.403H584.458V300.253H579.587C579.282 300.091 578.51 299.63 578.004 298.669C577.446 297.618 577.557 296.625 577.609 296.294C578.445 296.002 579.665 295.464 580.904 294.452C582.512 293.134 583.375 291.648 583.803 290.759C584.718 290.863 595.771 291.947 601.343 284.367C602.251 283.135 605.436 278.806 603.821 274.024C602.504 270.117 598.463 267.314 593.546 266.912C592.8 264.537 592.054 262.168 591.308 259.793C592.677 260.287 594.513 261.195 596.05 262.96C596.608 263.596 596.75 263.914 597.12 264.316C598.164 265.439 600.273 266.432 605.008 265.724C607.213 268.378 609.594 271.616 611.858 275.477C613.466 278.216 614.764 280.837 615.808 283.251C614.978 283.783 614.024 284.471 613.045 285.36C612.13 286.184 611.391 287.002 610.807 287.729C614.271 289.358 617.741 290.98 621.211 292.609C617.527 293.258 613.525 293.809 609.224 294.185C604.152 294.633 599.429 294.769 595.129 294.718Z" fill="black" fill-opacity="0.9"/>
</g>
<defs>
<filter id="filter0_d_803_651" x="702.203" y="186.03" width="235.88" height="365.043" filterUnits="userSpaceOnUse" color-interpolation-filters="sRGB">
<feFlood flood-opacity="0" result="BackgroundImageFix"/>
<feColorMatrix in="SourceAlpha" type="matrix" values="0 0 0 0 0 0 0 0 0 0 0 0 0 0 0 0 0 0 127 0" result="hardAlpha"/>
<feOffset dy="-2"/>
<feGaussianBlur stdDeviation="3"/>
<feComposite in2="hardAlpha" operator="out"/>
<feColorMatrix type="matrix" values="0 0 0 0 1 0 0 0 0 1 0 0 0 0 1 0 0 0 0.5 0"/>
<feBlend mode="normal" in2="BackgroundImageFix" result="effect1_dropShadow_803_651"/>
<feBlend mode="normal" in="SourceGraphic" in2="effect1_dropShadow_803_651" result="shape"/>
</filter>
<filter id="filter1_d_803_651" x="1093" y="244" width="149.661" height="307.307" filterUnits="userSpaceOnUse" color-interpolation-filters="sRGB">
<feFlood flood-opacity="0" result="BackgroundImageFix"/>
<feColorMatrix in="SourceAlpha" type="matrix" values="0 0 0 0 0 0 0 0 0 0 0 0 0 0 0 0 0 0 127 0" result="hardAlpha"/>
<feOffset dy="-2"/>
<feGaussianBlur stdDeviation="3"/>
<feComposite in2="hardAlpha" operator="out"/>
<feColorMatrix type="matrix" values="0 0 0 0 1 0 0 0 0 1 0 0 0 0 1 0 0 0 0.5 0"/>
<feBlend mode="normal" in2="BackgroundImageFix" result="effect1_dropShadow_803_651"/>
<feBlend mode="normal" in="SourceGraphic" in2="effect1_dropShadow_803_651" result="shape"/>
</filter>
<filter id="filter2_d_803_651" x="278.225" y="257.186" width="209.354" height="293.573" filterUnits="userSpaceOnUse" color-interpolation-filters="sRGB">
<feFlood flood-opacity="0" result="BackgroundImageFix"/>
<feColorMatrix in="SourceAlpha" type="matrix" values="0 0 0 0 0 0 0 0 0 0 0 0 0 0 0 0 0 0 127 0" result="hardAlpha"/>
<feOffset dy="-2"/>
<feGaussianBlur stdDeviation="3"/>
<feComposite in2="hardAlpha" operator="out"/>
<feColorMatrix type="matrix" values="0 0 0 0 1 0 0 0 0 1 0 0 0 0 1 0 0 0 0.5 0"/>
<feBlend mode="normal" in2="BackgroundImageFix" result="effect1_dropShadow_803_651"/>
<feBlend mode="normal" in="SourceGraphic" in2="effect1_dropShadow_803_651" result="shape"/>
</filter>
<filter id="filter3_d_803_651" x="928" y="225" width="157.886" height="337.678" filterUnits="userSpaceOnUse" color-interpolation-filters="sRGB">
<feFlood flood-opacity="0" result="BackgroundImageFix"/>
<feColorMatrix in="SourceAlpha" type="matrix" values="0 0 0 0 0 0 0 0 0 0 0 0 0 0 0 0 0 0 127 0" result="hardAlpha"/>
<feOffset dy="-2"/>
<feGaussianBlur stdDeviation="3"/>
<feComposite in2="hardAlpha" operator="out"/>
<feColorMatrix type="matrix" values="0 0 0 0 1 0 0 0 0 1 0 0 0 0 1 0 0 0 0.5 0"/>
<feBlend mode="normal" in2="BackgroundImageFix" result="effect1_dropShadow_803_651"/>
<feBlend mode="normal" in="SourceGraphic" in2="effect1_dropShadow_803_651" result="shape"/>
</filter>
<filter id="filter4_d_803_651" x="13.1187" y="512.932" width="1475.12" height="223.989" filterUnits="userSpaceOnUse" color-interpolation-filters="sRGB">
<feFlood flood-opacity="0" result="BackgroundImageFix"/>
<feColorMatrix in="SourceAlpha" type="matrix" values="0 0 0 0 0 0 0 0 0 0 0 0 0 0 0 0 0 0 127 0" result="hardAlpha"/>
<feOffset dy="-2"/>
<feGaussianBlur stdDeviation="5"/>
<feComposite in2="hardAlpha" operator="out"/>
<feColorMatrix type="matrix" values="0 0 0 0 1 0 0 0 0 1 0 0 0 0 1 0 0 0 0.5 0"/>
<feBlend mode="normal" in2="BackgroundImageFix" result="effect1_dropShadow_803_651"/>
<feBlend mode="normal" in="SourceGraphic" in2="effect1_dropShadow_803_651" result="shape"/>
</filter>
<filter id="filter5_d_803_651" x="495.813" y="238.147" width="171.264" height="307.35" filterUnits="userSpaceOnUse" color-interpolation-filters="sRGB">
<feFlood flood-opacity="0" result="BackgroundImageFix"/>
<feColorMatrix in="SourceAlpha" type="matrix" values="0 0 0 0 0 0 0 0 0 0 0 0 0 0 0 0 0 0 127 0" result="hardAlpha"/>
<feOffset dy="-2"/>
<feGaussianBlur stdDeviation="3"/>
<feComposite in2="hardAlpha" operator="out"/>
<feColorMatrix type="matrix" values="0 0 0 0 1 0 0 0 0 1 0 0 0 0 1 0 0 0 0.5 0"/>
<feBlend mode="normal" in2="BackgroundImageFix" result="effect1_dropShadow_803_651"/>
<feBlend mode="normal" in="SourceGraphic" in2="effect1_dropShadow_803_651" result="shape"/>
</filter>
</defs>
</svg>
