<svg width="665" height="1641" viewBox="0 0 665 1641" fill="none" xmlns="http://www.w3.org/2000/svg">
<g filter="url(#filter0_d_801_651)">
<path d="M657.625 1611.11C654.816 1610.11 652.033 1609.07 649.223 1608.03C649.437 1607.24 651.471 1598.27 647.19 1590.95C644.407 1586.18 640.58 1584.89 639.376 1584.56C631.456 1580.22 623.161 1575.2 614.544 1569.39C601.326 1560.49 589.552 1551.13 579.196 1542.01C566.406 1510.87 552.465 1470 542.109 1420.17C528.168 1353.08 525.813 1294.09 526.67 1251.47C521.826 1234.64 517.117 1216.78 512.702 1197.94C506.119 1169.81 500.955 1142.87 496.941 1117.46C501.65 1113.37 506.681 1107.42 510.561 1098.77C521.291 1074.99 514.628 1050.05 513.397 1045.49C508.179 1025.9 497.53 1015.36 493.516 1011.8C477.782 968.57 462.075 920.888 447.224 868.9C429.429 806.544 415.649 747.596 404.865 693.384C405.748 694.245 406.658 695.142 407.621 696.039C417.977 748.17 431.115 804.499 447.812 863.841C460.603 909.192 474.036 951.241 487.575 989.954C492.981 989.81 498.386 989.667 503.791 989.487C507.484 987.657 515.378 984.5 525.332 986.509C530.576 987.586 534.991 989.81 538.47 992.214C531.754 985.648 523.94 976.392 516.769 963.691C509.946 951.564 505.664 939.867 502.962 930.683C501.945 925.229 499.991 916.547 496.031 906.788C491.803 896.383 488.806 893.441 480.886 878.085C475.507 867.68 475.748 866.819 469.835 854.836C466.249 847.589 460.764 836.897 453.298 824.304C450.515 817.989 446.769 809.019 442.702 798.005C430.419 764.53 423.462 733.818 424.693 733.137C425.79 732.527 432.078 756.099 447.251 786.344C452.147 796.103 457.071 805.037 461.941 813.217C464.697 818.24 468.764 825.81 473.447 835.21C492.392 873.349 500.928 900.222 510.722 925.122C518.16 943.993 529.506 969.79 546.471 999.246C547.541 1001.15 548.638 1003.05 549.762 1004.95C555.274 1013.56 560.787 1022.21 566.299 1030.85C568.68 1034.08 572.319 1035.05 575.45 1033.26C578.527 1031.46 580.508 1027.3 580.454 1022.78C581.605 1019.12 583.772 1013.53 587.706 1008.04C592.281 1001.72 597.125 998.528 600.014 996.95C606.383 996.34 611.36 995.909 614.651 995.658C618.103 995.371 620.779 995.192 621.047 993.792C621.341 992.07 617.836 989.559 616.899 988.913C613.929 986.796 608.524 984.07 600.014 985.325C594.101 978.616 585.137 967.924 575.209 953.573C546.471 912.026 546.926 893.8 520.06 848.45C505.183 823.335 497.423 816.948 485.89 800.552C478.772 790.47 474.062 782.29 470.049 775.186C462.877 762.557 453.887 744.761 445.217 721.584C449.659 723.557 453.86 725.1 457.767 726.356C443.424 699.483 423.917 656.214 411.822 597.732C397.507 528.595 399.995 469.467 403.5 434.486C406.15 423.041 410.939 407.219 419.903 390.966C425.416 380.956 431.142 373.242 436.146 367.394C453.806 354.406 468.791 347.409 478.638 343.535C501.784 334.386 541.146 324.77 566.673 304.284C568.466 302.849 570.901 300.804 572.801 296.929C580.748 281.035 569.697 255.31 560.546 229.298C553.91 210.354 545.24 182.656 537.534 146.24C532.583 153.487 527.633 160.735 522.683 168.018L503.738 173.436L452.361 93.6782C450.381 87.4713 446.1 76.4925 437.591 66.7695C431.41 59.7373 425.228 55.9701 421 53.8892C405.748 44.812 390.523 35.6989 375.297 26.6217C367.885 17.7597 360.473 8.86194 353.061 0C345.14 0.430539 337.193 0.8252 329.273 1.21986L291.49 12.091V24.7919C283.944 24.2537 271.956 24.8636 258.925 32.2187C230.507 48.2922 219.456 83.7399 217.128 91.8484C191.788 99.9928 169.926 119.941 165.671 145.558C159.437 182.979 189.781 238.483 245.519 247.775C246.509 251.901 248.73 259.113 253.573 266.073C257.854 272.244 262.403 275.617 265.266 277.339C264.464 290.614 263.661 303.889 262.858 317.164C251.218 324.232 239.578 331.336 227.938 338.404C220.687 341.131 210.412 346.512 200.805 357.85C175.01 388.167 176.268 434.45 176.562 441.733C174.555 466.418 170.488 496.125 162.407 528.595C157.644 547.682 152.239 564.688 146.807 579.506C136.505 591.633 123.848 604.585 108.676 616.748C101.291 622.668 94.1194 627.726 87.3227 632.068C92.273 635.691 97.2501 639.315 102.2 642.939L114.376 659.263L75.1476 758.969L62.9993 795.242L54.8915 831.479C54.3296 840.772 56.1224 847.337 57.3533 850.746C62.6247 865.743 76.0039 875.681 81.9175 871.376C84.0314 869.833 85.075 866.568 86.5467 867.142C88.6339 867.932 87.6171 874.892 90.2394 877.009C91.6041 878.157 94.0659 878.013 98.7753 873.887C103.271 879.556 109.746 880.991 114.83 877.619C121.065 873.493 124.196 862.693 121.306 852.863C119.353 848.737 117.372 843.642 115.874 837.543C115.473 835.928 115.125 834.314 114.83 832.771C114.295 814.652 113.787 796.534 113.252 778.415C128.37 746.161 143.489 713.906 158.607 681.651L175.01 709.529C172.093 713.906 169.177 718.319 166.26 722.732C176.83 719.288 187.426 715.879 197.996 712.435L205.649 725.674L184.857 772.603L181.593 812.213C179.96 815.8 178.328 819.352 176.696 822.94C174.689 836.502 172.655 850.028 170.649 863.59L149.857 925.229C143.408 960.031 136.96 994.833 130.511 1029.67C127.139 1032.72 117.292 1042.55 113.252 1060.71C112.583 1063.76 107.392 1088.51 118.71 1107.85C125.882 1120.08 135.996 1123.85 141 1125.72C148.947 1128.69 155.878 1128.37 160.239 1127.73C150.954 1163.43 141.642 1199.12 132.33 1234.82C133.187 1277.45 130.832 1336.43 116.891 1403.52C106.535 1453.36 92.5941 1494.22 79.8036 1525.37C69.4481 1534.48 57.6744 1543.84 44.4557 1552.74C35.8395 1558.55 27.5444 1563.58 19.6239 1567.92C18.4197 1568.24 14.5933 1569.53 11.8104 1574.3C7.52906 1581.62 9.5627 1590.59 9.77677 1591.38C6.96713 1592.42 4.18425 1593.46 1.37462 1594.47C1.26758 1601.75 1.13379 1609.07 1 1616.35H80.9275C108.034 1608.78 135.14 1601.25 162.246 1593.68C162.059 1588.44 161.845 1583.2 161.631 1577.93C156.627 1578.03 151.597 1578.11 146.593 1578.18C147.877 1573.73 149.911 1564.94 149.028 1553.78C148.332 1544.88 146.031 1538.1 144.398 1534.16C143.382 1529.17 142.472 1523.28 142.017 1516.68C141.134 1504.23 142.097 1493.61 143.301 1485.76C164.093 1413.35 184.884 1340.95 205.675 1268.58C206.103 1243.11 207.762 1214.95 211.428 1184.77C212.954 1172.29 214.72 1160.38 216.62 1149C237.197 1152.55 257.453 1140.97 268.959 1118.86C283.944 1090.13 276.612 1058.05 275.729 1054.36C277.094 1039.86 279.181 1023.79 282.338 1006.53C285.549 988.841 289.349 972.911 293.229 958.955C297.323 907.111 302.675 869.833 305.698 869.187C309.98 868.254 313.351 870.658 313.351 870.658C315.599 872.273 316.964 874.641 317.713 876.219C335.454 945.859 353.195 1015.5 370.935 1085.17C372.487 1133.11 390.282 1164.54 406.818 1165.25C408.638 1165.33 413.963 1165.18 420.92 1158.69H420.947C431.731 1200.88 442.541 1243.04 453.351 1285.23C474.143 1357.6 494.934 1430 515.725 1502.4C516.93 1510.26 517.893 1520.88 517.01 1533.33C516.555 1539.93 515.645 1545.82 514.628 1550.8C512.996 1554.75 510.695 1561.53 509.999 1570.43C509.116 1581.59 511.15 1590.38 512.434 1594.83C507.43 1594.75 502.4 1594.68 497.396 1594.57C497.182 1599.85 496.968 1605.09 496.78 1610.32C523.887 1617.9 550.993 1625.43 578.099 1633H658C657.866 1625.72 657.732 1618.4 657.625 1611.11ZM209.368 623.457C203.749 637.988 197.38 649.182 192.002 657.254C198.236 640.894 204.605 621.627 210.197 599.634C214.827 581.479 218.172 564.437 220.607 549.045C220.847 557.943 221.115 566.877 221.356 575.811C219.75 588.045 216.486 605.051 209.368 623.457ZM385.947 268.549C382.308 269.374 376.742 271.24 370.721 275.832C365.049 280.173 361.142 285.304 358.787 288.928H341.929V299.153H321.834C320.576 298.256 317.392 295.709 315.305 290.399C313.003 284.587 313.458 279.097 313.672 277.267C317.124 275.653 322.155 272.675 327.266 267.078C333.902 259.795 337.461 251.579 339.227 246.663C343 247.237 388.596 253.229 411.581 211.323C415.328 204.506 428.466 180.575 421.803 154.133C416.371 132.534 399.701 117.035 379.418 114.811C376.341 101.679 373.263 88.5835 370.186 75.452C375.832 78.1788 383.405 83.2017 389.747 92.9606C392.048 96.4767 392.637 98.2347 394.162 100.459C398.47 106.666 407.166 112.156 426.7 108.245C435.798 122.919 445.618 140.822 454.957 162.17C461.593 177.31 466.945 191.805 471.253 205.152C467.828 208.094 463.894 211.897 459.854 216.812C456.081 221.369 453.03 225.89 450.622 229.908C464.911 238.913 479.227 247.883 493.543 256.888C478.344 260.476 461.834 263.526 444.093 265.607C423.168 268.083 403.688 268.836 385.947 268.549Z" fill="black"/>
</g>
<defs>
<filter id="filter0_d_801_651" x="0" y="0" width="665" height="1641" filterUnits="userSpaceOnUse" color-interpolation-filters="sRGB">
<feFlood flood-opacity="0" result="BackgroundImageFix"/>
<feColorMatrix in="SourceAlpha" type="matrix" values="0 0 0 0 0 0 0 0 0 0 0 0 0 0 0 0 0 0 127 0" result="hardAlpha"/>
<feOffset dx="3" dy="4"/>
<feGaussianBlur stdDeviation="2"/>
<feComposite in2="hardAlpha" operator="out"/>
<feColorMatrix type="matrix" values="0 0 0 0 0 0 0 0 0 0 0 0 0 0 0 0 0 0 0.5 0"/>
<feBlend mode="normal" in2="BackgroundImageFix" result="effect1_dropShadow_801_651"/>
<feBlend mode="normal" in="SourceGraphic" in2="effect1_dropShadow_801_651" result="shape"/>
</filter>
</defs>
</svg>
