<?xml version="1.0" encoding="UTF-8"?><svg id="Layer_2" xmlns="http://www.w3.org/2000/svg" viewBox="0 0 657.22 1633.53"><defs><style>.cls-1{fill:#231f20;}</style></defs><g id="Layer_1-2"><path class="cls-1" d="M556.86,1176.79c-2.22-10.11-4.78-26.34-3.11-46.1,1.24-14.69,4.32-25.4,5.51-29.62,3.93-13.94,23.77-95.61,28.85-120.2,9.09-43.97,32.17-155.6-14.92-253.01-12.23-25.3-23.1-37.02-19.31-56.17,9.81-49.64,102.07-63.59,103.32-104.6,.5-16.43-13.58-27.5-26.02-62.51-5.86-16.48-10.12-33.24-10.12-33.24,0,0-.7-2.8-1.35-5.49-4.7-19.56-6.85-36.31-7.79-50.02-.13-1.97-2.57-37.74-16.16-79.96-5.74-17.8-12.91-21.44-22.79-29.18-8.91-6.98-16.64-7.81-43.69-15.73-14.73-4.31-26.64-8.22-34.37-10.84,12.6-12.8,34.46-38.46,47.04-77.41,10.06-31.16,10.14-58.3,8.86-75.05-10.83-28.43-21.48-51.44-29.83-68.26-12.54-25.25-18.63-33.92-28.83-41.07-9.23-6.45-20.43-8.96-42.82-13.98-35.53-7.95-44.06-3.11-47.62-.43-5.94,4.45-8.7,10.82-10.07,15.25-3.65-.71-14.77-2.39-26.63,3.53-15.05,7.52-20.04,21.64-20.97,24.47-11.93,33.39-23.86,66.79-35.78,100.18-3.99,5.16-20.68,27.96-17.96,60.6,2.85,34.22,24.97,54.41,29.59,58.45-8.67,2.79-20.83,8.11-31.34,18.88-12.28,12.59-15.87,26.05-20.05,39.29-16.84,53.4-24.99,44.11-36.75,88.72-8.12,30.85-7.7,49.48-25.18,68.77-4.42,4.88-5.63,4.99-15.45,14.68,0,0-21.51,21.23-37.57,43.25-21.31,29.21-21.87,71.62-22.72,135.44-.21,15.68,.06,46.2-7.88,86.68-.95,4.86-1.82,8.83-2.4,11.42-24.24-22.84-48.48-45.68-72.72-68.52-15.94-7.38-31.89-14.76-47.83-22.14,8.53,15.4,17.06,30.79,25.6,46.18,25.64,23.04,51.28,46.08,76.92,69.12-2.01,5.21-4.64,14.55-2.27,25.37,2.11,9.67,7.21,15.93,13.1,23.16,3.99,4.89,10.38,11.69,19.82,18.17-5.81,8.62-11.62,17.23-17.43,25.85h58.9l51.08,49.88c-2,21.3-8.09,81.67-19.74,135.91-5.71,26.55-10.29,40.18-17.04,53.73-5.53,11.1-9.41,15.94-21.85,38.45-5.31,8.92-12.73,22.22-20.2,38.98-6.16,13.83-20.69,48.76-32.35,127.16-8.8,59.17-5.7,74.08-17.35,138.38-3.02,16.66-5.89,30.34-7.89,39.51-12.02,40.27-24.04,80.53-36.06,120.8H121.15c-1.3-27.92-2.95-50-4.21-64.91-1.5-17.84-2.75-29.19,.35-44.72,3.45-17.31,10.26-29.54,13.48-35.21,23.73-41.8,56.71-98.16,60.09-103.96,29.11-49.95,47.61-81.7,53.13-127.34,3.76-31.13-1.42-44.76,10.23-70.6,12.32-27.34,27.57-33.1,46.13-60.03,11.58-16.82,25.08-42.79,31.14-81.58,50.28,46.27,100.56,92.55,150.85,138.82-7.81,21.86-17.03,55.68-15.97,96.98,.96,37.3,9.28,40.71,18.97,106.15,6.9,46.56,8.81,86.18,10.3,117.11,1.23,25.57,1.62,47.19,1.72,63.18-2.2,22.04-4.41,44.07-6.61,66.11h64.3c-14.37-35.51-20.84-66.06-24.02-87.78-1.66-11.33-3.72-25.81-3.5-45.01,.36-31.07,6.49-56.36,11.9-73.34,5.26-14.69,10.26-30.45,14.76-47.24,10.85-40.52,16.38-78.02,18.89-110.82,28.05,13.22,56.09,26.44,84.14,39.66-14.54-26.96-29.08-53.92-43.62-80.88-18.91-17.11-37.83-34.22-56.74-51.33Zm-241.07-558.5c-11.19,39.34-15.9,75.37-17.45,105.68-10.79,20.12-21.71,42.76-32,67.86-12.08,29.49-21.19,57.26-28.11,82.42l-22.3-27.15-3.88-60.11c-10.99,9.99-21.98,19.98-32.97,29.98,.74-2.41,3.88-13.55-2.08-25.07-4.19-8.08-10.67-12.13-13.43-13.64,1.82-24.01,6.74-55.4,19.39-90.17,8.24-22.63,17.94-41.73,27.15-57.2,15.73-26.42,18.09-31.64,23.27-45.57,5.27-14.16,10.95-35.94,9.69-65.93,8.86-7.86,19.36-18.56,29.49-32.53,9.33-12.88,15.89-25.15,20.5-35.37,5.17,4.86,12,12.49,16.91,23.3,6.89,15.18,5.98,27.75,6.79,40.73,.87,13.91,4.06,33.48,14.54,57.2-5.53,13.89-10.83,29.1-15.51,45.57Zm42.46,365.77c12.47-19.94,29.85-50.62,45.18-90.36,22.95-59.49,26.39-100.61,33.81-100.35,5.72,.2,13.03,24.95,18.9,141.23-1.62,19.45-2.5,40.69-2.15,63.47,.51,33.05,3.51,63.02,7.6,89.29-34.45-34.43-68.9-68.85-103.34-103.28Zm167.87-378.06c-8.5-4.82-25.23-16.02-30.8-35.49-3.13-10.95-1.5-20.24,8.86-51.04,16.59-49.31,24.89-73.97,32.91-73.12,5.96,.63,7.63,13.93,13.4,32.9,9.42,30.95,23.48,56.42,37.78,76.78-8.27,2.88-19.15,7.68-30.46,15.85-16.28,11.75-26.19,25.21-31.69,34.12Z"/></g></svg>