<svg width="334" height="449" viewBox="0 0 334 449" fill="none" xmlns="http://www.w3.org/2000/svg">
<g filter="url(#filter0_d_110_8)">
<path d="M189.713 431.708C187.457 424.999 189.474 423.022 195.003 418.52C196.47 417.33 197.809 415.966 199.349 414.886C202.091 412.964 205.061 411.344 207.72 409.322C209.902 407.665 212.002 405.78 213.753 403.675C216.201 400.719 217.751 396.792 220.648 394.486C226.076 390.166 224.847 384.812 224.141 379.486C223.756 376.585 222.399 373.83 221.721 370.947C220.584 366.142 216.256 364.119 213.304 360.88C209.178 356.349 205.345 351.526 200.972 347.252C196.965 343.326 196.754 338.146 195.021 333.414C194.068 330.815 191.647 328.682 189.685 326.522C185.22 321.635 180.315 317.105 176.189 311.961C173.539 308.657 171.458 304.685 170.027 300.695C168.762 297.181 169.083 293.126 168.084 289.484C167.258 286.445 165.544 283.654 164.224 280.753C163.857 280.835 163.49 280.908 163.123 280.991C162.197 283.004 161.436 285.118 160.309 287.013C157.595 291.552 154.551 295.899 151.947 300.503C150.461 303.13 149.508 306.067 148.463 308.923C147.371 311.906 145.437 315.073 145.785 317.929C146.097 320.528 149.627 322.578 150.617 325.287C154.138 334.878 154.184 344.241 147.051 352.542C144.346 355.681 141.485 358.701 138.927 361.95C138.074 363.039 137.616 364.668 137.533 366.078C137.148 372.905 138.267 378.964 142.787 384.886C147.729 391.356 150.7 399.337 149.636 407.876C149.187 411.527 147.674 415.069 146.39 418.575C146.051 419.499 144.887 420.469 143.915 420.753C140.137 421.86 136.323 423.05 132.436 423.572C123.001 424.835 113.52 425.741 104.058 426.775C102.921 426.903 101.775 426.885 100.638 426.958C93.2667 427.425 85.8583 427.599 78.5325 428.468C70.1706 429.456 61.9738 429.685 53.8136 427.159C51.1363 426.326 48.184 426.427 45.4975 425.612C40.6564 424.139 39.3178 418.959 43.1778 415.792C48.2481 411.628 53.4743 407.427 59.2415 404.407C64.7244 401.533 68.887 397.241 73.7739 393.772C79.7795 389.507 85.8675 385.325 92.1114 381.417C96.3107 378.781 98.3462 372.933 96.76 368.238C93.8627 359.662 90.6169 351.215 89.8834 341.98C89.4892 337.084 87.3162 332.352 86.1151 327.502C84.9231 322.688 83.3828 317.855 83.0344 312.959C82.6493 307.431 82.2367 301.427 83.9604 296.348C86.8027 287.964 84.6481 279.361 86.6835 271.125C88.2056 264.974 89.6084 258.733 91.873 252.839C94.4128 246.194 98.3737 240.081 100.767 233.399C103.325 226.27 108.395 221.429 113.502 216.395C118.728 211.242 120.672 205.101 118.948 197.834C118.508 195.976 118.848 193.954 118.6 192.041C118.307 189.716 117.674 187.438 117.371 185.122C117.206 183.813 117.005 182.276 117.509 181.159C121.351 172.675 119.59 164.713 115.51 156.943C114.318 154.673 112.952 155.021 110.935 156.631C106.983 159.789 102.967 163.084 98.4837 165.308C93.4776 167.797 92.5974 168.008 92.9366 173.554C93.3125 179.768 90.3694 184.628 86.5827 188.911C83.667 192.206 80.0179 194.869 76.6163 197.734C74.8375 199.235 73.9206 200.726 75.3418 203.005C76.5979 205.01 78.2391 207.032 78.6609 209.247C79.321 212.67 80.0362 216.569 79.0185 219.717C77.3223 224.989 74.5074 229.949 69.052 232.731C68.236 233.152 67.53 235.44 67.9426 236.328C70.2073 241.298 69.4555 246.469 69.2904 251.557C69.1162 256.692 61.4328 263.492 55.9682 263.666C51.5031 263.803 47.0012 264.022 42.5819 263.565C40.1063 263.309 37.264 262.284 35.4761 260.645C31.2126 256.728 26.7383 252.692 23.7218 247.851C20.476 242.634 18.7798 236.447 16.4418 230.672C14.4155 225.666 14.4063 220.98 17.1753 215.965C19.3941 211.956 20.256 207.224 21.9705 202.905C23.4559 199.161 25.3996 195.601 26.9492 191.876C27.921 189.533 28.9021 187.108 29.2688 184.628C30.2774 177.892 31.1209 171.119 31.7077 164.328C32.1753 159.029 35.5861 155.634 38.9694 152.312C45.3692 146.033 50.7971 138.803 58.2971 133.531C60.3692 132.076 61.3503 128.141 61.6162 125.23C62.368 117.03 67.0074 111.859 73.829 108.372C76.9372 106.789 79.4127 104.949 80.788 101.728C82.8693 96.868 86.0326 92.5848 87.0411 87.1119C88.8749 77.1269 96.6866 72.2396 104.856 67.6636C110.247 64.6342 115.437 61.1381 120.278 57.3034C123.414 54.8231 125.779 51.3545 128.438 48.2885C128.768 47.9133 128.997 47.2177 128.896 46.751C128.09 42.9986 127.017 39.3011 126.393 35.5304C125.917 32.6292 125.339 29.5083 125.944 26.7261C127.054 21.6558 128.438 16.4666 130.84 11.9271C132.124 9.51094 135.635 8.0649 138.395 6.70123C141.274 5.28265 144.41 4.25761 147.536 3.49799C149.554 3.01292 151.956 2.72921 153.835 3.37901C158.236 4.91657 162.472 6.96664 166.681 8.99842C171.88 11.5153 175.409 20.4935 173.878 27.9616C172.925 32.5835 173.035 32.3638 177.546 32.8306C181.452 33.2333 185.413 34.121 189.089 35.4755C194.646 37.5348 199.89 40.4085 205.419 42.5318C211.938 45.0395 216.293 50.3477 221.702 54.2923C223.72 55.7658 225.434 57.6786 227.543 58.9782C228.753 59.7195 230.66 60.2046 231.944 59.8019C238.041 57.8982 244.203 58.2643 249.621 60.9093C254.087 63.0875 257.992 66.7758 261.541 70.3909C268.096 77.0537 271.645 85.6841 275.752 93.9119C277.109 96.6392 278.338 99.3391 281.895 100.3C283.546 100.739 284.884 102.698 286.15 104.153C289.964 108.528 293.714 112.967 297.391 117.46C298.674 119.034 300.022 120.718 300.728 122.586C303.167 129.029 306.752 135.087 306.843 142.327C306.908 147.104 310.337 150.463 313.372 153.556C319.084 159.395 324.457 165.372 327.473 173.087C328.042 174.533 328.399 176.125 328.528 177.681C329.289 186.66 328.344 195.61 325.007 203.875C320.441 215.159 320.441 226.892 319.771 238.635C319.377 245.526 317.498 252.015 314.674 258.302C312.95 262.137 311.501 266.109 310.144 270.09C309.209 272.827 307.852 274.996 305.074 276.158C292.659 281.348 280.438 281.375 268.876 274.099C266.886 272.845 265.767 269.514 265.172 266.933C264.282 263.098 264.328 259.053 263.732 255.136C263.604 254.257 262.613 253.141 261.761 252.811C255.673 250.468 251.125 247.073 251.437 239.696C251.473 238.781 251.006 237.573 250.346 236.941C246.972 233.738 246.715 229.748 246.385 225.382C245.798 217.566 248.98 211.727 254.435 206.748C257.791 203.692 261.568 201.449 266.363 201.513C267.189 201.523 268.023 201.157 269.958 200.708C267.436 198.347 265.868 196.077 263.695 194.988C256.039 191.144 252.913 184.811 252.858 176.675C252.84 174.167 251.776 173.087 249.796 171.641C246.641 169.335 244.148 166.122 241.452 163.221C240.874 162.608 240.599 161.711 239.948 160.512C238.747 161.564 237.895 162.425 236.932 163.139C232.384 166.534 227.745 169.801 223.307 173.325C222.17 174.231 221.162 175.86 220.951 177.279C220.373 181.205 220.235 185.195 219.979 189.158C219.924 190.055 219.951 191.007 220.171 191.876C221.666 197.789 223.325 203.655 224.719 209.595C225.783 214.116 226.122 218.848 227.58 223.213C229.184 228.036 231.641 232.594 233.824 237.225C238.362 246.817 242.589 256.454 242.836 267.372C243.02 275.435 243.662 283.48 244.047 291.543C244.248 295.79 247.357 298.352 250.355 299.935C258.818 304.402 262.531 312.044 266.226 320.153C272.516 333.954 270.205 348.469 269.756 362.637C269.49 370.974 270.334 378.68 272.58 386.542C273.625 390.212 274.276 394.193 274.056 397.973C273.653 404.855 276.238 410.566 279.255 416.433C281.739 421.274 281.143 426.573 279.713 431.717H189.667L189.713 431.708Z" fill="black"/>
</g>
<defs>
<filter id="filter0_d_110_8" x="0" y="0" width="333.775" height="448.717" filterUnits="userSpaceOnUse" color-interpolation-filters="sRGB">
<feFlood flood-opacity="0" result="BackgroundImageFix"/>
<feColorMatrix in="SourceAlpha" type="matrix" values="0 0 0 0 0 0 0 0 0 0 0 0 0 0 0 0 0 0 127 0" result="hardAlpha"/>
<feOffset dx="-5" dy="7"/>
<feGaussianBlur stdDeviation="5"/>
<feComposite in2="hardAlpha" operator="out"/>
<feColorMatrix type="matrix" values="0 0 0 0 0 0 0 0 0 0 0 0 0 0 0 0 0 0 0.3 0"/>
<feBlend mode="normal" in2="BackgroundImageFix" result="effect1_dropShadow_110_8"/>
<feBlend mode="normal" in="SourceGraphic" in2="effect1_dropShadow_110_8" result="shape"/>
</filter>
</defs>
</svg>
