<svg width="286" height="429" viewBox="0 0 286 429" fill="none" xmlns="http://www.w3.org/2000/svg">
<g filter="url(#filter0_d_152_1822)">
<path d="M68.3947 108.745C69.0866 111.784 67.1255 114.479 64.4061 114.598C63.7896 114.625 63.2174 114.78 62.6257 114.94C61.1951 115.327 59.8621 116.496 58.2247 115.52C57.9139 115.335 57.6603 115.72 57.4379 115.98C54.7693 119.107 53.1228 119.434 49.8078 117.238C48.6543 116.473 48.0586 116.356 46.9714 117.477C45.2131 119.289 41.3168 118.635 39.1813 116.374C38.4205 115.567 37.6272 114.812 36.8066 114.069C35.5581 112.941 34.5905 111.591 34.1614 109.926C33.277 106.492 32.4616 103.055 32.6827 99.457C32.8244 97.1512 33.1235 96.3056 35.3227 95.8457C39.5598 94.9585 42.7525 92.4826 46.0701 89.9353C49.2603 87.4867 53.0487 85.7759 55.9788 82.9844C61.476 77.7481 68.1451 74.6331 75.0235 71.8104C75.9936 71.4116 76.9976 71.0063 77.843 70.4023C83.8591 66.1039 90.8091 63.6981 97.4859 60.7663C100.047 59.6414 102.856 59.1335 105.388 57.7968C106.794 57.0551 106.895 56.2835 106.707 54.9026C106.054 50.1132 106.388 45.4446 109.655 41.5424C111.867 38.9016 114.459 36.6205 117.575 35.0656C118.8 34.4538 119.182 33.6043 119.197 32.3027C119.224 29.7943 119.336 19.3919 119.501 17.5344C120.125 10.512 130.932 2.13213 142.25 3.07261C151.631 3.85201 158.654 10.812 160.227 15.43C160.431 16.0288 161.133 18.3228 161.755 21.2235C162.016 22.4433 162.552 24.5801 162.748 27.2716C163.055 31.4609 163.504 35.6554 163.482 39.8446C163.469 42.3595 164.491 43.7183 166.542 44.7782C169.59 46.3526 172.653 47.9257 175.567 49.7261C177.462 50.8965 179.397 51.8954 181.439 52.7632C185.687 54.5675 189.081 57.5916 192.393 60.7066C194.691 62.8668 197.073 64.9465 199.001 67.4704C200.2 69.0396 201.722 70.1464 203.565 70.9271C209.396 73.3991 214.431 77.0817 218.004 82.2751C220.258 85.5499 222.677 88.8156 223.878 92.797C224.551 95.0326 226.378 96.8148 227.899 98.6217C230.677 101.922 232.859 105.458 234.067 109.668C235.223 113.698 236.893 117.497 239.356 121.035C242.289 125.246 245.532 129.174 248.768 133.128C249.554 134.088 250.139 135.186 250.18 136.439C250.283 139.526 251.5 142.263 252.869 144.917C254.341 147.771 255.115 150.792 255.593 153.927C255.814 155.378 255.909 156.684 257.046 158.037C258.353 159.589 258.145 162.012 258.276 164.112C258.583 168.995 257.951 173.835 257.579 178.685C257.091 185.045 257.571 191.417 257.286 197.773C257.115 201.617 257.822 205.375 257.978 209.179C258.106 212.306 257.003 215.137 255.767 217.928C254.519 220.75 254.486 223.861 253.655 226.778C252.233 231.769 252.694 236.69 253.716 241.705C254.35 244.814 252.757 247.57 250.727 249.843C248.075 252.811 245.251 255.63 242.437 258.449C239.86 261.03 237.389 261.399 234.171 259.662C231.106 258.007 228.647 255.59 226.472 252.917C225.498 251.719 224.814 250.306 225.105 248.613C225.282 247.582 224.412 247.045 223.81 246.428C221.005 243.552 220.724 236.831 223.435 233.464C223.927 234.937 223.885 236.365 223.927 237.737C223.976 239.36 224.673 240.172 226.235 240.431C227.44 240.631 228.557 241.078 229.643 241.684C231.497 242.721 233.614 241.58 233.776 239.458C233.946 237.209 234.011 235.088 232.307 233.084C230.314 230.738 229.321 227.784 229.259 224.639C229.229 223.161 228.682 223.083 227.291 223.212C223.945 223.523 221.728 224.706 221.448 228.41C221.351 229.701 220.314 230.547 219.109 231.001C217.986 231.425 217.634 232.187 217.748 233.329C217.887 234.713 218.114 236.067 218.621 237.368C218.917 238.129 219.205 238.893 218.965 239.731C218.302 239.733 218.224 238.993 217.573 238.923C217.268 239.463 217.453 240.033 217.58 240.597C218.947 246.637 220.854 252.546 221.845 258.682C222.222 261.021 223.472 262.64 225.902 263.653C230.645 265.631 235.501 267.533 239.772 270.396C244.154 273.333 248.088 276.925 249.957 282.105C252.282 288.548 254.958 294.882 256.393 301.621C257.126 305.068 256.851 308.57 256.929 312.05C256.965 313.693 257.39 315.179 258.085 316.668C259.925 320.611 262.299 324.146 265.184 327.427C267.534 330.099 269.173 333.413 269.949 336.836C270.968 341.328 273.747 344.48 276.641 347.684C277.456 348.587 278.274 349.493 279.015 350.457C281.19 353.284 281.407 356.477 280.486 359.767C279.798 362.223 275.579 365.154 272.623 365.089C269.052 365.01 265.586 365.613 262.068 365.996C257.991 366.439 253.895 366.13 250.805 362.577C249.557 361.144 247.912 360.115 246.864 358.394C245.921 356.844 245.432 355.302 245.474 353.549C245.61 347.955 245.578 342.372 244.535 336.846C244.453 336.414 244.517 335.893 244.294 335.558C241.773 331.763 241.107 327.34 240.006 323.065C238.344 316.604 234.778 311.531 228.996 308.133C224.846 305.695 221.304 302.542 217.982 299.116C216.137 297.213 213.953 296.111 211.334 295.675C208.569 295.213 206.288 293.722 204.307 291.801C200.251 287.866 196.281 283.837 192.862 279.332C191.188 277.126 189.379 275.076 187.531 273.025C185.356 270.612 184.433 267.414 183.145 264.492C181.469 260.686 178.981 257.455 176.531 254.188C172.979 249.454 169.266 244.838 165.729 240.092C164.003 237.777 163.159 234.949 161.723 232.454C161.448 231.974 161.146 231.498 160.954 230.983C159.713 227.671 156.757 226.682 153.81 225.688C153.175 225.474 152.586 225.688 152.136 226.157C148.965 229.472 144.662 231.053 140.928 233.506C132.751 238.877 123.487 241.857 114.562 245.596C109.568 247.687 104.5 249.783 100.307 253.3C96.9163 256.143 93.414 258.856 90.073 261.742C86.0661 265.204 82.4897 269.158 81.8824 274.783C81.5559 277.8 81.6587 280.861 81.4155 283.89C80.8159 291.331 81.1177 298.821 80.1163 306.241C79.7521 308.937 78.596 311.329 77.4944 313.724C76.0171 316.934 74.0897 319.931 72.507 323.082C69.3324 329.406 66.349 335.864 65.8249 343.072C65.4725 347.923 63.6947 352.584 64.0575 357.522C64.4048 362.246 64.107 366.9 62.7063 371.487C62.1276 373.383 62.2979 375.475 62.6361 377.427C63.0678 379.92 62.9469 382.21 62.1393 384.304C61.4305 386.143 60.4798 387.129 59.4199 388.387C59.0818 390.821 57.3963 400.928 48.597 407.294C36.977 415.699 22.2487 410.854 18.2639 407.975C17.8204 407.655 16.4536 407.012 15.9282 405.476C14.9047 402.485 14.5522 399.371 15.7825 396.398C17.2326 392.894 19.3745 389.83 22.3813 387.39C24.2085 385.908 25.1631 383.689 26.4961 381.799C29.0764 378.139 31.5161 374.377 34.0001 370.649C34.3668 370.098 34.7791 369.536 34.969 368.917C35.7233 366.445 36.9054 364.198 38.5272 362.211C40.2504 360.101 40.3453 357.512 40.833 355.04C43.2324 342.879 43.3859 330.61 41.9735 318.359C41.1152 310.914 40.3336 303.492 41.1009 296.034C41.6965 290.24 41.2023 284.334 42.9411 278.638C43.4132 277.091 44.0804 275.654 44.6227 274.154C45.8257 270.825 47.3316 267.614 48.3421 264.206C49.406 260.617 51.5271 257.529 53.4063 254.34C53.8121 253.653 54.2387 252.962 54.2075 252.2C54.0839 249.196 54.703 246.265 54.9292 243.296C55.0944 241.14 55.6861 239.204 57.1193 237.526C58.2143 236.245 58.8503 234.705 59.2222 233.062C60.524 227.308 62.6244 221.843 65.2618 216.581C66.1566 214.796 67.3244 213.2 68.6991 211.72C72.1545 208 75.4995 204.189 78.3346 199.945C80.522 196.67 83.3207 193.96 86.3002 191.347C91.0185 187.208 96.3272 183.896 101.296 180.116C104.085 177.994 107.331 176.432 110.217 174.373C110.847 173.923 111.495 173.497 112.111 173.031C113.555 171.941 115.084 171.055 116.705 170.208C119.02 168.998 121.317 167.573 122.112 164.404C122.696 162.08 124.023 159.881 124.646 157.451C125.188 155.337 125.544 153.239 125.539 151.069C125.538 150.349 125.401 149.584 125.595 148.918C126.61 145.425 124.856 142.941 122.657 140.625C121.527 139.435 120.71 138.077 120.159 136.552C118.751 132.661 116.709 129.014 115.692 124.967C115.342 123.574 114.788 122.23 114.763 120.77C114.731 118.891 113.854 117.34 113.122 115.658C111.738 112.479 110.509 109.162 109.816 105.778C109.107 102.32 107.99 98.9413 107.679 95.3924C107.525 93.618 107.567 91.8539 107.562 90.086C107.56 88.9403 107.026 88.5454 105.998 88.8532C100.766 90.4237 95.3505 90.1016 90.0041 90.3406C84.1726 90.6004 78.4399 91.4733 72.719 92.5125C70.5549 92.9061 68.8811 93.7881 68.4949 96.2809C68.3167 97.4318 67.4415 98.3359 66.6352 99.1829C65.6429 100.225 64.6935 101.325 63.5998 102.254C61.7413 103.833 61.5567 106.014 61.4526 108.143C61.4331 108.532 61.5085 108.832 61.6477 109.072C62.3578 110.292 64.094 110.543 64.4087 110.57C66.5909 110.758 68.1659 109.006 68.3921 108.746L68.3947 108.745ZM234.885 194.219C235.153 187.021 232.889 181.148 230.656 175.338C228.942 170.877 227.025 166.511 226.982 161.658C226.957 158.872 226.415 156.539 224.549 154.234C222.121 151.236 220.174 147.941 216.423 146.249C214.956 145.588 213.969 144.037 212.479 143.253C209.874 141.882 207.483 140.192 205.222 138.319C203.437 136.841 203.078 136.917 202.556 139.135C201.191 144.932 199.1 150.548 198.182 156.457C197.931 158.074 197.865 159.655 199.005 161.029C200.128 162.383 200.639 164.003 201.1 165.672C202.194 169.626 202.66 173.704 203.538 177.692C204.553 182.302 204.644 186.891 204.114 191.533C203.96 192.873 204.101 194.169 204.424 195.475C206.551 204.056 209.117 212.513 211.687 220.967C212.091 222.297 212.654 223.559 213.493 224.68C213.718 224.982 213.936 225.388 214.409 225.235C214.843 225.093 214.907 224.663 214.923 224.278C214.982 222.949 214.877 221.63 214.674 220.313C214.288 217.802 214.937 216.571 217.089 215.259C219.79 213.61 222.53 211.881 224.223 209.168C225.667 206.856 227.274 204.802 229.635 203.485C233.624 201.261 235.918 198.244 234.884 194.218L234.885 194.219ZM53.8576 111.161C53.8706 111.421 53.8628 111.644 53.894 111.862C54.0605 112.998 54.8278 113.307 55.8227 113.154C57.0205 112.969 56.5029 112.162 56.3663 111.492C56.1361 110.357 55.9306 109.216 55.7108 108.08C55.6614 107.823 55.7395 107.461 55.3792 107.404C55.0749 107.356 54.8993 107.629 54.7537 107.863C54.1151 108.884 54.0722 110.063 53.8563 111.162L53.8576 111.161Z" fill="#040404"/>
</g>
<defs>
<filter id="filter0_d_152_1822" x="0" y="0" width="286" height="429" filterUnits="userSpaceOnUse" color-interpolation-filters="sRGB">
<feFlood flood-opacity="0" result="BackgroundImageFix"/>
<feColorMatrix in="SourceAlpha" type="matrix" values="0 0 0 0 0 0 0 0 0 0 0 0 0 0 0 0 0 0 127 0" result="hardAlpha"/>
<feOffset dx="-5" dy="7"/>
<feGaussianBlur stdDeviation="5"/>
<feComposite in2="hardAlpha" operator="out"/>
<feColorMatrix type="matrix" values="0 0 0 0 0 0 0 0 0 0 0 0 0 0 0 0 0 0 0.3 0"/>
<feBlend mode="normal" in2="BackgroundImageFix" result="effect1_dropShadow_152_1822"/>
<feBlend mode="normal" in="SourceGraphic" in2="effect1_dropShadow_152_1822" result="shape"/>
</filter>
</defs>
</svg>
