<svg width="276" height="479" viewBox="0 0 276 479" fill="none" xmlns="http://www.w3.org/2000/svg">
<path d="M34.2396 44.9264C31.0111 39.7264 27.7283 34.5716 24.5812 29.3264C22.8087 26.3692 21.0452 23.3668 20.376 19.8941C19.9419 17.6513 20.3036 15.6798 22.4017 14.3776C24.5722 13.0391 26.417 13.8078 28.1443 15.3C33.6789 20.0478 37.9746 25.8447 42.2069 31.7139C43.1474 33.0252 44.1241 34.3094 45.7067 36.4346C43.9975 29.5887 42.3516 23.8551 41.185 18.0221C40.4796 14.4771 39.0507 9.90106 43.69 8.16472C48.4379 6.3922 49.5864 11.1852 51.2866 14.1153C54.09 18.9445 56.0163 24.2259 57.3547 29.6249C59.2086 37.0948 63.0521 43.4252 67.6281 49.4391C68.65 50.7866 69.4911 51.9261 71.1008 50.1535C73.2983 47.7299 75.3331 44.4381 79.2942 46.3643C83.3728 48.3448 83.2643 52.3421 83.1196 56.1765C83.1105 56.4568 83.2371 56.7462 83.2733 56.9271C93.7637 49.1497 105.086 46.916 117.512 51.7542C120.758 53.0203 123.68 51.1302 126.736 50.6419C128.409 50.3706 127.622 48.7156 127.613 47.5942C127.577 39.6269 127.297 31.6416 127.559 23.6833C127.867 14.3685 130.164 5.70489 140.202 2.32264C150.946 -1.30379 161.554 -1.17718 171.004 6.26559C174.712 9.18663 175.806 13.5908 176.312 17.8955C177.154 25.0398 177.976 32.2384 177.551 39.4642C177.235 44.8902 174.124 49.7375 174.251 55.2812C174.296 57.0718 174.061 58.8805 173.88 60.6711C173.599 63.4384 174.712 65.0572 177.334 66.2147C185.238 69.7146 191.017 75.222 195.277 83.0446C197.547 87.2227 202.258 90.4512 206.491 93.1281C220.517 101.991 222.76 116.37 211.645 128.542C208.679 131.789 206.228 135.28 205.903 139.964C205.396 147.298 202.43 153.909 199.382 160.475C198.505 162.365 197.899 164.056 200.314 165.44C210.497 171.318 218.708 179.954 228.891 185.887C231.279 187.28 233.404 187.913 236.072 187.289C241.597 186.005 247.204 185.308 252.115 181.835C254.765 179.963 258.653 177.802 261.493 181.293C264.486 184.983 261.059 187.614 258.662 190.047C256.284 192.452 254.593 194.831 257.197 198.141C259.63 201.234 262.47 203.024 266.539 201.65C267.254 201.406 267.932 201.08 268.628 200.809C270.627 200.031 272.924 199.063 274.434 201.143C276.08 203.413 274.941 205.774 273.322 207.718C271.739 209.617 269.795 210.883 267.236 211.263C265.264 211.561 263.103 211.471 261.14 212.936C262.84 214.998 264.396 213.542 265.834 213.325C267.688 213.044 269.542 212.836 270.735 214.627C272.047 216.617 271.052 218.371 269.786 219.963C269.234 220.668 268.646 221.663 267.905 221.853C261.484 223.49 255.298 226.99 248.317 224.665C247.457 224.376 246.607 223.833 245.739 224.322C241 227.017 238.224 224.195 234.797 221.247C226.287 213.913 215.814 210.548 204.537 207.808C204.944 210.901 206.608 212.936 208.118 215.061C213.255 222.296 216.357 230.345 217.677 239.108C218.03 241.423 218.075 243.548 216.348 245.456C215.814 246.044 215.588 247.111 215.588 247.952C215.588 256.209 212.875 263.48 207.72 269.856C206.653 271.176 207.205 272.433 207.585 273.69C210.732 284.153 210.063 294.725 208.308 305.279C207.829 308.155 207.974 310.949 208.155 313.798C208.263 315.579 208.697 317.008 210.569 317.695C212.92 318.555 213.526 320.616 213.635 322.778C214.358 337.591 214.811 352.422 215.787 367.217C216.221 373.883 212.902 379.408 211.211 385.368C209.348 391.942 205.767 397.992 199.075 401.284C198.134 401.745 197.257 402.903 196.407 402.849C191.135 402.55 191.994 405.942 192.057 409.288C192.148 414.225 192.328 419.154 191.343 424.11C190.511 428.252 192.826 432.041 194.255 435.776C197.094 443.174 195.53 450.083 193.034 457.155C191.795 460.646 190.475 464.1 189.227 467.582C186.776 474.464 178.338 479.655 171.194 478.235C165.289 477.059 159.763 471.389 158.868 465.484C157.764 458.186 157.638 450.815 157.014 443.481C156.851 441.537 158.217 437.133 152.908 438.58C151.28 439.023 151.009 436.906 151.235 435.568C151.75 432.457 152.456 429.373 153.08 426.28C154.753 418.042 153.686 410.12 148.278 403.654C136.485 389.528 130.173 372.589 123.173 356.031C117.973 343.732 111.661 331.849 108.586 318.699C104.643 301.851 102.445 284.696 99.642 267.649C99.0903 264.294 97.6976 261.346 96.5401 258.271C92.7328 248.142 93.1216 238.484 98.394 228.798C100.185 225.506 100.212 221.265 101.107 217.467C101.695 214.989 101.794 212.149 103.124 210.132C108.722 201.604 106.542 192.534 105.385 183.59C104.634 177.793 103.097 172.105 101.921 166.371C101.586 164.716 100.781 163.323 99.8228 161.931C89.8931 147.488 84.2681 131.518 82.7307 114.055C82.4956 111.423 84.4761 107.959 82.1429 106.44C80.4608 105.337 77.2413 106.748 74.7091 106.72C68.5324 106.657 63.8751 103.519 60.0045 99.0063C58.3766 97.1072 56.9025 95.9044 53.8911 96.5646C50.961 97.2067 47.9947 95.6603 45.6253 93.6797C38.9151 88.0818 32.6028 82.0498 27.6017 74.8512C26.3266 73.0154 24.7982 72.31 22.872 71.8307C17.9162 70.5918 12.9423 69.389 8.01356 68.0325C6.2953 67.5622 4.58609 66.8568 3.0487 65.9525C1.19479 64.8582 -0.36069 63.3841 0.0733965 60.861C0.534613 58.1751 2.76835 57.7591 4.82122 57.4787C9.80417 56.8005 14.7238 57.6144 19.6344 58.4374C21.2442 58.7087 23.0167 59.5045 23.9391 57.3793C24.8615 55.2541 23.0348 54.3859 21.7506 53.4906C17.6629 50.6419 14.0094 47.2958 10.3287 43.9678C8.99026 42.756 7.76939 41.4356 6.98261 39.7535C6.14156 37.9539 6.13252 36.2809 7.38956 34.6802C8.62852 33.0976 10.2835 33.2784 11.9294 33.7125C17.2469 35.1323 21.832 38.0262 26.3718 41.0015C28.7321 42.548 31.0111 44.2029 33.3262 45.8127L34.2125 44.9355L34.2396 44.9264ZM172.957 349.845C180.699 322.082 173.021 305.27 165.081 298.008C164.909 311.257 163.814 324.243 162.15 337.193C161.942 338.812 161.662 340.702 163.444 341.661C167.088 343.623 169.421 347.078 172.957 349.845Z" fill="black"/>
</svg>
