<svg width="226" height="502" viewBox="0 0 226 502" fill="none" xmlns="http://www.w3.org/2000/svg">
<g filter="url(#filter0_d_152_1806)">
<path d="M220.891 254.943C220.222 250.773 219.308 246.645 218.751 242.469C218.186 238.265 215.878 234.294 216.081 230.193C216.248 226.861 215.711 224.22 214.01 221.532C213.097 220.092 212.197 218.549 211.751 216.931C207.826 202.728 204.375 188.423 203.051 173.713C202.953 172.575 203.134 171.107 201.9 170.696C199.063 169.743 198.219 167.301 197.299 165.045C195.451 160.526 192.231 157.255 188.389 154.368C186.277 152.79 183.446 151.261 182.61 149.087C180.1 142.545 177.987 135.783 177.723 128.096C184.081 132.375 188.536 136.915 185.461 145.734C190.39 140.042 190.948 134.871 187.776 129.707C185.461 125.929 182.045 123.172 178.594 120.442C177.416 119.51 175.798 118.927 175.066 117.089C177.799 116.842 180.218 116.691 182.617 116.39C188.292 115.676 193.869 114.627 198.63 111.185C200.771 109.635 202.395 107.715 202.291 104.93C202.109 100.089 192.251 91.3657 187.176 91.5028C186.981 91.5097 186.8 91.7223 186.249 92.0583C189.539 93.0733 192.196 94.6368 193.36 97.764C195.005 102.18 195.089 106.528 192.077 110.451C188.773 114.744 184.039 114.559 179.354 113.825C176.224 113.331 173.003 112.59 173.839 108.112C173.986 107.31 173.414 106.364 173.107 105.513C171.476 101.028 168.555 97.2428 165.599 93.6425C160.733 87.7311 161.095 81.71 164.121 75.4146C165.676 72.1846 166.589 68.7969 167.544 65.3886C168.597 61.6443 167.816 58.5241 164.944 55.7192C162.294 53.1339 161.465 50.1508 163.033 46.3859C165.717 39.9602 163.633 33.4797 157.435 30.6063C152.736 28.4255 150.331 24.9418 148.672 20.6146C147.563 17.7343 145.639 15.6976 142.864 14.6072C138.765 13.0025 135.572 10.3074 132.344 7.47517C129.583 5.04753 125.533 2.45531 122.626 3.09994C118.805 3.9503 114.483 2.92849 110.997 5.42471C110.286 5.93218 109.045 6.48765 108.411 6.21334C103.663 4.16288 101.927 8.57926 98.9709 10.2937C97.8764 10.9246 96.9073 11.7612 95.9173 12.5499C91.2951 16.1982 86.9657 20.0385 84.1283 25.367C81.256 30.7571 78.788 36.3942 74.1519 40.7694C71.3353 43.4302 70.2408 47.1471 69.5924 50.9463C69.1671 53.4288 69.6412 55.2392 72.395 55.8495C75.3789 56.5079 75.4625 58.3115 74.7166 60.7665C71.5933 71.0806 59.4138 78.6446 48.5799 76.9028C43.2396 76.0455 40.3673 72.0475 41.1411 66.8288C42.1451 60.0602 45.9934 55.6781 52.4143 53.3328C52.9372 53.1407 53.6762 53.1613 53.725 52.4413C53.7738 51.5498 52.9162 51.3646 52.3027 51.2137C49.2004 50.4731 47.1019 52.2218 45.5472 54.4094C42.6889 58.4143 39.8863 62.4878 37.4462 66.7533C33.4166 73.7894 35.9752 78.4115 44.1529 79.3578C44.8431 79.4333 45.5403 79.4195 46.2374 79.4675C53.6552 79.9956 61.0103 79.4744 68.3933 78.0823C66.4761 80.167 64.0988 81.4837 61.7005 82.7935C54.5964 86.6544 47.2901 90.1862 40.8274 95.11C33.1447 100.973 27.4558 108.071 26.0197 117.837C25.7199 119.873 25.2876 121.848 24.6602 123.816C23.1264 128.583 23.489 133.301 25.7129 137.799C27.5395 141.503 30.4467 143.231 33.9325 142.901C26.3822 138.897 23.726 133.122 26.1382 125.922C28.3412 136.73 33.6885 141.338 40.3812 137.82C37.8226 136.997 35.1107 137.6 33.0192 135.811C28.9199 132.299 27.7765 127.787 28.4946 122.815C30.8231 106.665 43.2536 97.0439 60.4038 97.9354C61.2892 97.9765 62.5999 97.6062 62.8787 98.6417C63.2552 99.9859 61.7423 100.15 60.8918 100.562C56.1511 102.839 51.8426 105.691 48.2941 109.559C43.881 114.38 41.8801 120.573 43.0793 125.613C45.108 115.066 50.4413 108.167 58.1659 106.343C51.1315 115.402 45.2196 124.783 42.8841 136.03C41.6082 142.188 41.4967 148.024 44.9337 153.538C45.7076 154.779 45.9864 155.89 44.6061 156.788C40.8762 159.209 39.6701 163.283 37.6693 166.842C37.007 168.014 36.7142 169.516 35.2292 170.038C33.3678 170.689 32.9286 172.129 32.8867 173.823C32.7124 180.934 31.1996 187.868 29.6798 194.766C27.8881 202.893 26.6192 211.177 23.3914 218.919C21.76 222.828 18.3787 226.189 20.038 230.975C20.1635 231.339 19.8776 231.86 19.7312 232.292C17.2563 239.575 16.2036 247.146 15.116 254.71C14.4328 259.503 16.7822 262.212 21.767 262.397C23.97 262.48 26.1033 262.761 28.2715 263.33C32.2523 264.372 36.3307 263.769 39.9351 262.082C43.8392 260.258 46.1747 254.394 45.4148 250.143C45.2335 249.134 45.0662 248.12 44.9128 247.105C44.2575 242.825 43.7137 238.505 40.7926 234.973C40.0187 234.047 40.3812 233.039 40.5207 232.024C42.6679 216.409 48.0291 202.049 58.0753 189.609C61.2055 185.735 62.8508 181.174 64.531 176.525C67.0338 178.232 68.3793 180.66 71.8791 181.908C67.4591 176.772 64.043 172.163 69.2857 166.204C71.2726 170.161 72.2137 174.468 75.344 177.608C74.2216 173.069 74.6887 169.009 77.8608 164.757C78.1606 168.255 78.2791 171.169 78.6765 174.049C79.5758 180.571 81.1514 186.709 85.662 191.077C86.666 192.058 87.9209 192.791 87.9209 192.791C88.9875 193.491 89.9705 194.012 90.7723 194.382C82.5109 205.629 69.9061 226.23 65.9184 254.497C65.0957 260.347 64.7332 265.888 64.6844 271.045V271.065C67.0268 311.183 68.47 340.658 68.3515 346.459C68.2957 349.621 67.9889 351.459 67.9889 351.459C67.8844 355.073 68.5467 358.735 65.3537 361.841C64.05 363.11 64.5798 365.085 65.5349 366.614C66.3994 367.999 66.8247 369.405 66.7689 370.976C66.7131 372.505 66.6922 374.02 66.6922 375.543C66.6713 391.281 69.2159 406.787 72.2068 422.292C73.141 427.168 74.4098 432.181 73.1758 437.228C70.9519 446.308 68.2539 455.243 63.5829 463.624C62.3001 465.935 61.324 468.376 60.2713 470.776C58.7864 474.171 60.3132 476.646 63.3528 478.704C69.4321 482.798 80.008 482.503 88.1579 478.114C91.0093 476.578 92.6685 474.623 93.1217 471.62C93.791 467.1 95.1992 462.835 97.3535 458.569C99.445 454.414 100.47 449.675 99.2149 444.772C97.8206 439.306 97.0258 433.724 97.0328 428.059C97.0328 422.121 98.0716 416.34 98.8803 410.469C100.944 395.396 101.188 380.131 104.485 365.167C104.764 363.905 104.562 362.746 103.949 361.615C102.241 358.453 102.485 355.079 102.659 351.733C103.049 343.936 104.799 336.358 107.281 328.876C109.484 322.204 110.934 315.414 110.446 308.392C110.432 308.159 110.411 307.919 110.39 307.686C110.223 305.848 109.707 303.811 111.192 301.932C115.431 294.539 116.142 289.286 115.919 285.748C115.849 284.726 115.229 282.765 115.856 280.125C116.581 277.08 117.285 274.028 117.969 270.969C119.356 264.791 120.674 258.591 121.977 252.392C122.249 251.096 122.514 249.903 122.779 248.819C123.895 251.562 124.675 253.921 125.073 255.793C126.376 261.993 127.694 268.192 129.081 274.371C129.765 277.429 130.469 280.481 131.194 283.526C131.821 286.166 131.194 288.128 131.138 289.149C130.915 292.688 131.619 297.941 135.858 305.334C137.343 307.213 136.827 309.249 136.66 311.087C136.639 311.32 136.618 311.56 136.604 311.794C136.116 318.816 137.566 325.605 139.769 332.278C142.251 339.759 144.001 347.337 144.391 355.134C144.565 358.481 144.809 361.855 143.101 365.016C142.488 366.148 142.286 367.307 142.565 368.569C145.862 383.532 146.106 398.797 148.17 413.871C148.978 419.741 150.017 425.522 150.017 431.461C150.017 437.125 149.229 442.707 147.835 448.173C146.58 453.076 147.605 457.815 149.697 461.971C151.851 466.236 153.259 470.502 153.928 475.021C154.382 478.025 156.041 479.979 158.892 481.515C167.042 485.904 177.618 486.199 183.697 482.105C186.737 480.048 188.264 477.572 186.779 474.178C185.726 471.777 184.75 469.336 183.467 467.025C178.796 458.645 176.098 449.709 173.874 440.63C172.64 435.582 173.909 430.569 174.843 425.693C177.834 410.188 180.379 394.683 180.358 378.944C180.358 377.422 180.337 375.906 180.281 374.377C180.225 372.807 180.651 371.401 181.515 370.016C182.47 368.486 183 366.511 181.696 365.243C178.503 362.136 179.166 358.474 179.061 354.86C179.061 354.86 178.754 353.022 178.699 349.861C178.58 344.059 180.023 314.585 182.366 274.467V274.446C182.317 269.289 181.954 263.748 181.132 257.899C177.151 229.686 164.588 209.113 156.327 197.852C156.306 197.832 156.285 197.811 156.271 197.791C153.935 195.329 151.579 192.586 150.819 189.006C149.731 183.815 149.704 178.617 150.282 172.726C150.938 178.418 149.271 183.726 152.45 188.574C150.415 182.244 154.144 177.512 156.626 172.445C157.979 169.667 159.171 166.814 160.537 164.044C161.088 162.926 161.848 161.904 162.608 160.903C163.382 159.874 164.135 159.991 164.609 161.198C166.331 165.553 169.147 169.393 170.549 173.926C172.257 179.481 173.937 185.124 177.876 189.685C179.87 191.996 181.487 194.513 183.16 197.064C190.076 207.577 193.36 219.221 195.486 231.325C195.661 232.306 195.877 233.677 195.361 234.315C191.533 239.102 191.478 244.931 190.411 250.485C189.581 254.778 192.551 260.601 196.56 262.576C197.606 263.09 198.812 263.028 199.871 263.309C205.03 264.647 209.89 262.603 214.888 262.329C219.155 262.102 221.553 259.023 220.891 254.943ZM47.8409 153.771C46.1398 154.025 46.4535 152.331 46.2792 151.309C44.8431 142.874 45.7145 134.624 48.6914 126.553C48.4962 128.192 48.3498 129.838 48.1058 131.463C47.1368 137.957 47.5411 144.383 49.0609 150.747C49.3886 152.111 49.4165 153.538 47.8409 153.771ZM91.33 192.874C90.8838 192.99 90.2145 192.695 89.7893 192.394C87.4398 190.755 85.8503 188.512 85.0904 185.817C83.9889 181.901 84.2468 177.986 85.2995 174.118L86.2198 173.953C88.0603 179.775 89.9008 185.598 91.7274 191.42C91.8877 191.955 91.9923 192.702 91.33 192.874Z" fill="#040404"/>
</g>
<defs>
<filter id="filter0_d_152_1806" x="0" y="0" width="226" height="502" filterUnits="userSpaceOnUse" color-interpolation-filters="sRGB">
<feFlood flood-opacity="0" result="BackgroundImageFix"/>
<feColorMatrix in="SourceAlpha" type="matrix" values="0 0 0 0 0 0 0 0 0 0 0 0 0 0 0 0 0 0 127 0" result="hardAlpha"/>
<feOffset dx="-5" dy="7"/>
<feGaussianBlur stdDeviation="5"/>
<feComposite in2="hardAlpha" operator="out"/>
<feColorMatrix type="matrix" values="0 0 0 0 0 0 0 0 0 0 0 0 0 0 0 0 0 0 0.3 0"/>
<feBlend mode="normal" in2="BackgroundImageFix" result="effect1_dropShadow_152_1806"/>
<feBlend mode="normal" in="SourceGraphic" in2="effect1_dropShadow_152_1806" result="shape"/>
</filter>
</defs>
</svg>
