<svg width="311" height="415" viewBox="0 0 311 415" fill="none" xmlns="http://www.w3.org/2000/svg">
<path d="M185.794 341.79C185.516 342.022 184.306 342.965 183.555 344.679C182.971 346.005 183.292 346.915 182.906 348.188C181.858 351.635 180.477 354.908 178.903 358.103C178.486 358.951 178.265 359.824 178.103 360.751C177.689 363.089 176.111 364.896 175.469 367.136C175.028 367.773 175.655 368.658 175.028 369.254L175.063 369.197C174.63 370.266 175.268 371.47 174.677 372.518L174.696 372.481C174.232 373.681 174.835 374.991 174.352 376.19C174.332 376.549 174.313 376.904 174.294 377.263C173.969 379.112 174.24 380.976 174.135 382.829C174.1 383.478 174.328 384.163 173.922 384.767C173.934 384.902 173.942 385.036 173.953 385.167C174.27 386.93 174.22 388.692 173.992 390.459C173.969 391.251 173.95 392.046 173.926 392.838C173.485 393.911 174.019 395.09 173.605 396.167L173.532 396.889C173.161 397.555 173.586 398.354 173.211 399.023C172.248 401.345 172.097 403.903 171.239 406.274C170.643 407.927 169.096 408.971 168.911 410.807C168.675 411.374 168.246 411.75 167.77 412.076C165.345 412.496 163.276 414.247 160.678 414.067C158.044 413.884 155.554 411.664 154.985 408.808C154.753 407.31 154.684 405.817 155.035 404.324C155.349 403.638 154.676 402.769 155.403 402.165C155.933 401.174 155.264 400.019 155.793 399.027C155.875 398.942 155.886 398.848 155.828 398.746C156.281 397.518 155.646 396.171 156.203 394.955L156.196 394.98C156.621 394.352 156.118 393.544 156.551 392.915C156.633 392.817 156.644 392.711 156.594 392.597C157.039 391.1 156.489 389.529 156.911 388.027L156.992 386.999C157.336 386.15 156.954 385.208 157.29 384.359C157.197 382.996 157.681 381.638 157.336 380.271C157.05 379.181 157.008 378.092 157.363 377.006C157.391 376.607 157.456 376.223 157.777 375.95C158.152 375.117 157.661 374.162 158.118 373.342C158.195 373.253 158.206 373.155 158.156 373.049C158.597 371.682 158.029 370.229 158.481 368.862C158.562 368.777 158.585 368.675 158.547 368.56C159.022 366.373 158.338 364.109 158.93 361.93L158.918 361.958C159.316 361.322 158.876 360.539 159.235 359.894C159.506 358.776 159.78 357.658 160.051 356.54C160.357 355.797 160.353 355.055 160.051 354.312C159.61 352.301 160.395 350.428 160.674 348.502C160.89 346.996 161.176 345.503 161.161 343.969C160.794 342.847 161.246 341.651 160.875 340.529L160.786 339.892C160.84 338.301 160.039 337.856 158.667 338.052C157.479 338.22 156.257 337.832 155.082 338.269C154.869 340.558 156.729 342.002 157.197 344.014C157.974 344.703 157.217 345.748 157.712 346.502C157.669 346.629 157.688 346.739 157.77 346.841C157.986 349.697 158.114 352.553 157.704 355.406C156.586 358.339 155.844 361.465 153.879 363.978C153.558 364.46 153.202 364.9 152.696 365.174C151.64 366.031 150.642 366.998 149.243 367.206C148.09 367.597 146.93 367.467 145.77 367.271C144.494 367.226 143.674 366.218 142.665 365.61C140.685 365.419 140.205 364.884 140.043 362.697C140.023 362.566 139.985 362.44 139.927 362.318C139.606 361.865 139.474 361.31 139.184 360.84C138.948 360.51 138.712 360.184 138.476 359.853C138.19 359.592 138.186 359.327 138.469 359.061C138.07 358.147 137.715 357.225 137.641 356.205C137.135 355.312 137.773 354.251 137.254 353.357C136.698 352.823 135.87 353.504 135.333 352.876L135.379 352.9C134.768 352.48 133.979 353.039 133.387 352.505C131.581 352.333 129.888 351.782 128.279 350.905C127.78 350.444 127.15 350.811 126.608 350.619C126.365 350.509 126.183 350.334 126.117 350.052C125.344 348.922 123.801 348.649 123.29 347.221C122.892 345.409 123.418 343.54 122.993 341.733C123.147 341.394 123.151 341.055 122.993 340.717C122.494 339.435 122.892 338.101 122.768 336.796C122.699 336.082 122.942 335.327 122.498 334.666C122.455 334.074 122.416 333.474 122.378 332.87C122.246 330.622 122.188 328.439 122.184 326.33C117.277 326.007 112.226 325.575 107.045 325.016C97.0597 323.939 87.6085 322.49 78.7334 320.813C77.639 320.083 76.5446 319.348 75.4502 318.618L75.4889 318.651C74.9282 318.463 74.6072 317.982 74.2708 317.52C73.536 316.684 72.9018 315.79 72.7433 314.619C72.0859 311.816 72.8167 309.066 73.1454 306.32C73.2344 305.574 73.0101 304.696 73.5554 304.019L73.536 304.068C73.9653 303.44 73.3465 302.566 73.973 301.983L73.9421 302.048C74.1161 300.955 74.4487 299.812 73.1222 299.2C70.9876 298.139 69.2165 296.523 67.368 295.026C66.5946 294.443 65.6007 294.161 65.0941 293.202C64.6301 292.162 63.6633 291.562 63.0639 290.636C62.4413 290.244 62.275 289.501 61.8844 288.93C61.7104 288.771 61.6021 288.571 61.5634 288.334C61.6949 285.442 61.0955 282.577 61.2463 279.684C61.2386 279.46 61.2773 279.24 61.3275 279.027C61.8109 277.587 62.2209 276.126 62.2441 274.58C62.2441 274.38 62.2827 274.188 62.333 273.996C62.7661 272.658 63.644 271.389 62.9131 269.867C62.3987 269.031 61.4126 268.77 60.8519 267.998C60.4884 267.541 60.0437 267.199 59.5255 266.954C59.0962 266.656 58.6515 266.387 58.2648 266.024C57.8046 265.53 57.3599 265.012 56.7141 264.767C56.5555 264.681 56.424 264.563 56.3003 264.432C55.7048 263.147 54.4441 262.906 53.369 262.376C52.8547 261.939 52.5453 261.348 52.2669 260.736C51.71 260.213 51.1532 259.691 50.5924 259.173C50.1941 258.834 49.8384 258.451 49.5367 258.01C49.3936 257.716 49.2505 257.418 49.1075 257.125C48.8754 256.039 48.8522 254.958 49.1229 253.877C50.0936 250.939 51.42 248.124 51.8957 245.014C52.1818 244.529 51.8531 243.909 52.2089 243.439C52.5879 242.656 52.4061 241.913 52.0542 241.187C51.6018 240.759 51.2885 240.232 51.0758 239.637C50.5731 239.216 50.0704 238.8 49.5677 238.38C48.0169 237.295 46.4585 236.205 44.8884 235.12C42.4483 233.431 40.0159 231.762 37.5951 230.113L37.6647 230.187C36.1256 228.428 34.4318 226.829 32.9197 225.042C32.1386 224.479 31.4309 223.842 31.0364 222.9C30.7039 221.802 30.5569 220.708 31.0944 219.627L31.0635 219.709C31.2298 218.84 31.2955 217.934 31.8253 217.187L31.8021 217.232C32.1038 216.551 32.1192 215.743 32.6374 215.159L32.6026 215.22C32.7882 214.494 32.9932 213.776 33.318 213.099C34.4743 209.953 35.6344 206.807 36.7907 203.661C37.131 202.608 37.1039 201.45 37.6105 200.442C37.6531 199.981 37.4791 199.458 37.947 199.12C39.5209 190.013 44.7802 182.783 49.0224 175.042C50.1709 172.945 51.3388 170.848 52.7619 168.991C52.4796 168.657 52.2669 168.661 52.1083 168.755C47.2861 171.562 41.6285 171.994 36.7946 174.781C35.9206 175.287 34.9693 175.467 34.0451 174.85C33.6313 174.573 33.2098 174.524 32.7612 174.724L32.3513 174.732C31.6745 174.41 30.9088 174.748 30.2321 174.422C29.0062 174.349 27.7997 174.189 26.7014 173.549C25.87 173.006 24.8684 173.688 24.037 173.133C23.1437 173.169 22.3238 172.961 21.6316 172.329C21.1482 171.929 20.7267 171.448 20.1815 171.133C15.1619 167.747 9.98388 164.687 4.33402 162.602C3.34017 163.108 2.89159 162.365 2.42367 161.671C2.07176 161.394 1.73145 161.104 1.36795 160.843C-0.430263 159.541 -0.441864 159.195 1.25193 157.595C2.53968 157.375 3.82356 157.305 5.10358 157.64C7.5824 158.734 10.27 158.954 12.8339 159.692C13.4179 160.162 14.1604 159.664 14.7559 160.043L15.3746 160.149C16.0398 160.476 16.7939 160.117 17.459 160.451C17.7838 160.484 18.1126 160.521 18.4374 160.553C19.1141 160.872 19.876 160.537 20.5527 160.855L25.5683 160.974C26.7014 160.296 27.9892 161.063 29.1377 160.537C29.2498 160.557 29.3542 160.533 29.4471 160.459C29.9382 159.419 30.7851 158.905 31.806 158.574C33.7125 157.958 35.4836 157.052 37.0111 155.673C37.5641 155.314 38.2099 155.29 38.8132 155.11C39.0568 155.02 39.3237 154.992 39.5364 154.816C44.5365 153.193 48.2026 149.21 52.6381 146.583C53.1757 146.362 53.4889 145.897 53.7944 145.42C57.2207 142.992 60.7978 140.887 64.808 139.715C66.3741 139.258 67.5265 138.112 68.7833 137.141C70.3495 135.929 71.9389 134.774 73.8918 134.346C74.5105 134.199 74.8973 133.917 74.8624 133.122C74.7928 131.514 74.9553 129.894 74.6227 128.299C75.6436 122.795 77.612 117.727 80.8371 113.239C81.1349 112.68 81.6338 112.219 81.6106 111.501C82.2216 110.072 83.4513 109.75 84.7507 109.562C85.2456 108.759 85.7406 107.955 86.2356 107.147C86.7345 106.637 87.4344 106.327 87.6433 105.535C89.9867 100.223 92.0672 94.7511 96.0233 90.4383C97.3342 89.7732 98.3397 88.7817 98.9546 87.37C99.0396 87.2027 99.1479 87.0558 99.2639 86.9171C99.697 86.4723 99.9368 85.897 100.188 85.3298C101.82 82.641 104.067 80.507 105.997 78.0833C106.414 77.5611 107.006 77.5529 107.532 77.3366C111.001 74.6029 114.469 71.865 117.934 69.1313C125.069 55.2666 130.386 45.1353 130.68 44.7191C131.071 44.1601 131.462 43.6787 131.462 43.6787C132.057 43.0299 132.738 42.4627 133.194 41.6834C133.453 40.7001 134.261 40.3084 134.996 39.8391C136.133 39.4311 137.266 39.0231 138.403 38.6151C139.347 38.4967 139.32 37.6032 139.594 36.9544C139.25 35.3305 138.855 32.9721 138.774 30.0914C138.72 28.1329 138.848 27.3373 138.701 25.8439C138.531 24.1343 138.028 21.7514 136.516 18.9524L136.547 19.0095C135.858 18.173 135.998 17.0795 135.739 16.1125L135.758 16.1574C135.669 15.6147 135.058 11.6283 137.359 9.56371C137.641 9.31073 138.001 9.05367 138.461 8.84966C139.084 8.31107 139.706 7.7684 140.333 7.2298C140.998 6.73609 141.547 6.09958 142.177 5.56098C143.388 4.10433 145.066 3.33317 146.524 2.24374C147.259 1.76227 148.044 1.39505 148.86 1.09311L148.84 1.10127C149.668 0.493314 150.666 0.542276 151.59 0.297462L151.543 0.317863C154.111 -0.184008 156.687 0.00776389 159.262 0.219937C159.309 0.244418 159.37 0.27298 159.421 0.297462C169.711 5.36921 170.693 4.80614 172.789 6.37295C178.826 10.8857 178.923 21.682 178.954 25.8806C178.969 28.292 178.745 30.2873 178.54 31.6419C178.157 33.474 177.774 35.3019 177.391 37.1339C177.267 38.1377 177.144 39.1455 177.02 40.1493C176.664 40.8551 176.838 41.4345 177.411 41.9119C179.081 43.1197 180.752 44.3233 182.422 45.5311C183.095 45.9228 183.617 46.4736 183.989 47.1836C189.105 53.5896 193.25 58.494 196.147 61.8521C198.254 64.2962 203.599 70.4329 203.599 70.4329C204.917 71.5223 205.207 71.7793 205.207 71.7793C205.938 72.8239 206.665 73.8684 207.396 74.917C208.057 75.4312 207.996 76.2962 208.297 76.9817L208.27 76.9286C208.742 77.5447 208.8 78.3404 209.086 79.0381C209.809 81.9555 211.631 84.1711 213.317 86.4805C213.963 87.3659 214.562 88.2921 215.185 89.202C216.724 90.0874 217.149 91.695 217.59 93.2986C217.594 93.6046 217.59 93.9188 217.915 94.0738C218.572 94.4206 218.472 95.1877 218.746 95.7426C218.765 96.3873 219.044 96.8933 219.473 97.3298C220.459 97.8358 220.587 98.9456 221.035 99.827L221.005 99.778C221.859 100.835 222.845 101.753 223.754 102.757C228.58 106.551 232.277 111.325 234.973 117.005C236.713 120.673 238.608 124.255 240.433 127.879C241.164 128.209 240.851 129.042 241.164 129.576C241.852 132.065 243.032 134.142 245.394 135.239C246.137 135.709 246.763 136.325 247.324 137.014C249.312 139.36 252.282 140.119 254.59 142.013C256.126 143.273 256.733 145.379 258.55 146.24C259.099 146.652 259.687 147.015 260.074 147.627C262.777 150.916 265.128 154.637 269.374 156.024C270.167 156.567 270.856 157.216 271.304 158.113C272.7 160.651 274.804 162.455 276.942 164.23C277.723 164.638 278.675 164.022 279.413 164.691C280.663 165.45 281.772 166.4 282.762 167.494C283.493 168.302 284.34 168.771 285.415 168.71C286.401 168.934 287.387 168.983 288.374 168.702L288.327 168.726C289.193 168.073 290.245 168.779 291.135 168.294C291.243 168.334 291.34 168.31 291.421 168.224C292.016 167.796 292.774 168.322 293.362 167.853L293.741 167.796C295.296 167.363 296.912 167.939 298.467 167.473C298.571 167.531 298.668 167.514 298.757 167.433C299.801 166.939 300.953 167.51 302.005 167.078C302.342 167.045 302.678 167.008 303.014 166.976C303.78 166.747 304.546 166.755 305.315 166.972C305.957 166.996 306.599 167.053 307.237 167.037C308.309 167.004 309.132 167.404 309.449 168.522C309.793 169.73 309.175 170.689 308.328 171.301C307.62 171.815 306.7 172.251 305.865 172.272C302.782 172.345 300.025 173.614 297.26 174.753C294.395 175.932 291.313 176.352 288.524 177.858C287.268 178.535 286.958 180.094 285.62 180.489C282.789 180.808 279.959 180.881 277.132 180.445C274.448 180.041 272.437 178.066 270.098 177.037C267.329 175.822 264.718 173.965 261.621 173.582C259.796 173.357 258.713 171.994 257.665 170.607C256.427 168.975 255.573 166.984 253.759 165.907C253.237 165.596 252.641 165.021 252.011 165.609C251.485 166.102 251.048 166.714 251.245 167.571C252.181 171.68 252.355 175.907 252.607 180.077C252.931 185.504 255.047 190.07 257.39 194.701C261.269 202.36 266.126 209.394 269.993 217.048C273.752 224.483 277.878 231.684 282.155 238.788C284.87 243.297 287.635 247.781 290.895 251.89C291.44 252.334 291.842 252.91 292.171 253.542C293.923 256.647 296.371 259.206 298.285 262.184C300.029 264.902 304.441 270.177 308.394 276.086C309.558 277.828 310.462 279.256 311 280.113C301.208 286.009 290.396 291.848 278.555 297.319C248.477 311.216 220.359 318.769 196.82 322.935C190.462 335.902 187.38 340.505 185.806 341.814L185.794 341.79Z" fill="#040404"/>
</svg>
